<?xml version="1.0" encoding="UTF-8" standalone="no"?>
<!-- Created with Inkscape (http://www.inkscape.org/) -->

<svg
   width="48"
   height="48"
   viewBox="0 0 48 48"
   version="1.1"
   id="svg1"
   inkscape:version="1.3 (0e150ed6c4, 2023-07-21)"
   sodipodi:docname="egg.svg"
   xmlns:inkscape="http://www.inkscape.org/namespaces/inkscape"
   xmlns:sodipodi="http://sodipodi.sourceforge.net/DTD/sodipodi-0.dtd"
   xmlns="http://www.w3.org/2000/svg"
   xmlns:svg="http://www.w3.org/2000/svg">
  <sodipodi:namedview
     id="namedview1"
     pagecolor="#ffffff"
     bordercolor="#000000"
     borderopacity="0.25"
     inkscape:showpageshadow="2"
     inkscape:pageopacity="0.0"
     inkscape:pagecheckerboard="0"
     inkscape:deskcolor="#d1d1d1"
     inkscape:document-units="px"
     inkscape:zoom="16.770833"
     inkscape:cx="24"
     inkscape:cy="24"
     inkscape:window-width="2400"
     inkscape:window-height="1271"
     inkscape:window-x="2391"
     inkscape:window-y="-9"
     inkscape:window-maximized="1"
     inkscape:current-layer="layer1" />
  <defs
     id="defs1" />
  <g
     inkscape:label="Calque 1"
     inkscape:groupmode="layer"
     id="layer1">
    <path
       style="fill:#f9f9f9"
       d="m 21.243384,18.119562 c -0.281464,-0.215121 -0.486576,-0.200127 -0.759983,0 -0.784979,0.574581 -0.38433,1.629082 -0.811566,2.390853 -0.189802,0.33842 -0.467904,0.60616 -0.684329,0.923651 -0.324721,0.476356 -0.636389,1.066401 -0.828761,1.611311 -0.208629,0.590961 -0.27261,1.738759 0.01032,2.309611 0.397558,0.802138 1.424559,0.820997 2.156152,1.112249 0.989849,0.394067 1.780395,1.071969 2.892064,1.09871 0.446693,0.01075 0.879471,-0.147263 1.282687,-0.322069 0.401753,-0.174172 0.845731,-0.334763 1.196717,-0.604484 0.699797,-0.53777 1.269589,-1.186186 1.8948,-1.800877 0.568423,-0.558858 1.454281,-1.079204 1.80883,-1.805713 0.637058,-1.305401 -0.92805,-2.628925 -2.008283,-3.097857 -0.637866,-0.2769 -1.350791,-0.302265 -1.973893,-0.611254 C 25.055044,19.14364 24.81752,18.81223 24.482771,18.596378 23.921996,18.234781 23.26726,18.01095 22.605165,17.921291 c -0.279577,-0.03786 -0.743513,-0.109728 -1.014458,0.0048 -0.122056,0.05161 -0.219873,0.157134 -0.347323,0.193435 -0.23247,0.06621 -0.67736,-0.06303 -0.62243,0.304659"
       id="path2" />
    <path
       style="fill:#ffd42a"
       d="m 22.728963,20.93984 c -0.198306,0.02224 -0.416741,-0.02311 -0.594919,0.06674 -0.1119,0.05643 -0.13113,0.214087 -0.185698,0.326905 -0.20903,0.432166 -0.319712,1.018013 -0.165064,1.490414 0.501264,1.531206 3.383952,0.990185 3.02274,-1.075497 -0.126851,-0.725428 -0.837282,-1.172368 -1.537161,-1.237982 -0.07403,-0.0069 -0.355716,-0.0037 -0.402344,0.05126 -0.0868,0.102261 -0.01885,0.315712 -0.137554,0.378165 -0.133513,0.07024 -0.297173,-0.08784 -0.447049,-0.0706 -0.07476,0.0086 -0.12246,0.08867 -0.175381,0.142175 -0.241032,0.243702 -0.172676,0.58157 -0.137554,0.883997"
       id="path3" />
    <path
       style="fill:#ffe680"
       d="m 23.949751,21.185502 c -0.811784,-0.07342 -0.195907,1.567109 0.316373,1.218639 0.66581,-0.452905 -0.457055,-1.086598 -0.526142,-0.840474"
       id="path4" />
    <path
       style="fill:#808080"
       d="m 53.79544,39.270682 c 0.355686,-0.258858 0.247135,-0.349721 0.38515,-0.178927"
       id="path5" />
    <path
       style="fill:#f2f2f2"
       d="m 26.508248,21.989223 c -0.0321,0.100587 -0.0685,0.199898 -0.09629,0.301759 -0.111245,0.407781 -0.147541,0.775335 -0.340445,1.169313 -0.270904,0.55328 -0.695283,1.033979 -0.986947,1.579394 -0.135754,0.253861 -0.376255,0.641784 -0.171942,0.907209"
       id="path6" />
    <path
       style="fill:#f2f2f2"
       d="m 20.07074,21.652647 c -0.436138,0.316349 -0.528566,0.79234 -0.574286,1.309553 -0.09163,1.036611 0.308424,0.789914 0.856271,1.333733 0.184165,0.182811 0.311298,0.416747 0.477999,0.614155 0.100359,0.118846 0.295245,0.344167 0.333567,0.04642 0.09353,-0.726671 -0.391235,-1.465593 -0.560531,-2.14906 -0.06804,-0.27468 -0.02644,-0.605942 0.01719,-0.87239 0.06744,-0.411772 0.379504,-0.821129 0.605236,-1.154806 0.0038,-0.0057 0.183522,-0.269024 0.182259,-0.269841 -0.145846,-0.09434 -0.269287,0.04701 -0.409222,0.14024 -0.692788,0.461578 -1.064482,1.069278 -1.138256,1.91307"
       id="path7" />
    <path
       style="fill:#f2f2f2"
       d="m 19.434555,25.11126 c 0.06419,0.09736 0.115322,0.204725 0.192575,0.292086 0.06377,0.07211 0.329951,0.190359 0.261351,0.122831 -0.159747,-0.157251 -0.270252,-0.222428 -0.453926,-0.414917 z"
       id="path8" />
    <path
       style="fill:#f2f2f2"
       d="m 22.979998,18.726947 c 0.205767,0.261153 0.470314,0.459928 0.725595,0.668317 0.138698,0.11322 0.25856,0.234872 0.38515,0.360756 0.114285,0.113646 0.230367,0.237047 0.35764,0.336576 0.05357,0.0419 0.185643,0.184752 0.165064,0.119929 -0.111788,-0.352132 -1.295844,-1.503476 -1.650643,-0.984582 -0.445968,0.652227 0.838819,1.093132 1.241421,1.198328 0.025,0.0065 0.483549,0.07736 0.477999,0.06383 -0.05517,-0.134481 -0.30983,-0.31996 -0.398906,-0.40718 -0.205783,-0.201496 -0.424044,-0.402232 -0.588041,-0.6364"
       id="path9" />
  </g>
</svg>
