<?xml version="1.0" encoding="UTF-8" standalone="no"?>
<!-- Created with Inkscape (http://www.inkscape.org/) -->

<svg
   width="48"
   height="48"
   viewBox="0 0 48 48"
   version="1.1"
   id="svg1"
   inkscape:version="1.3 (0e150ed6c4, 2023-07-21)"
   sodipodi:docname="gorgonzola.svg"
   xmlns:inkscape="http://www.inkscape.org/namespaces/inkscape"
   xmlns:sodipodi="http://sodipodi.sourceforge.net/DTD/sodipodi-0.dtd"
   xmlns="http://www.w3.org/2000/svg"
   xmlns:svg="http://www.w3.org/2000/svg">
  <sodipodi:namedview
     id="namedview1"
     pagecolor="#ffffff"
     bordercolor="#000000"
     borderopacity="0.25"
     inkscape:showpageshadow="2"
     inkscape:pageopacity="0.0"
     inkscape:pagecheckerboard="0"
     inkscape:deskcolor="#d1d1d1"
     inkscape:document-units="px"
     inkscape:zoom="16.770833"
     inkscape:cx="24"
     inkscape:cy="24"
     inkscape:window-width="2400"
     inkscape:window-height="1271"
     inkscape:window-x="2391"
     inkscape:window-y="-9"
     inkscape:window-maximized="1"
     inkscape:current-layer="layer1" />
  <defs
     id="defs1" />
  <g
     inkscape:label="Calque 1"
     inkscape:groupmode="layer"
     id="layer1">
    <path
       style="fill:#f2f2f2"
       d="m 11.005959,11.226515 c -0.509853,0.938749 -1.1827556,1.756372 -1.9051173,2.53593 -0.2698088,0.291171 -0.530715,0.603062 -0.8459546,0.847244 -0.1655107,0.128203 -0.4103588,0.258413 -0.278546,0.49616 0.141926,0.255987 0.3542883,0.467576 0.5295813,0.700233 1.0076415,1.33739 1.4139504,1.72412 2.8748696,2.559142 0.510232,0.291634 1.091901,0.393326 1.633449,0.604483 0.229699,0.08956 0.456308,0.193594 0.68089,0.294988 0.06362,0.02872 0.106992,0.03922 0.158187,0.08801 0.0041,0.0039 0.04526,0.0684 0.05158,0.0648 0.162727,-0.0926 0.918187,-1.240537 1.038529,-1.398533 0.400165,-0.525373 0.795272,-1.055844 1.213911,-1.566822 0.303125,-0.369986 0.643661,-0.739961 0.928486,-1.119987 0.34936,-0.46613 0.619317,-0.914463 1.004141,-1.339535 0.206407,-0.227994 0.443135,-0.43205 0.629308,-0.677989 0.143241,-0.189224 0.248208,-0.401498 0.381711,-0.596746 0.01995,-0.02918 0.140495,-0.167641 0.134115,-0.20891 C 19.216039,12.385669 18.717304,12.12879 18.605791,12.049576 18.038986,11.646941 17.5076,11.218517 16.917321,10.846412 16.030956,10.28766 15.239477,9.6021417 14.358827,9.0378013 14.218696,8.948002 13.8029,8.5824835 13.58165,8.6306212 13.251928,8.7023591 12.8993,9.3807923 12.735695,9.6132696 12.063993,10.567736 11.42033,11.556011 10.620809,12.411303 c -0.290993,0.311291 -0.559442,0.649983 -0.863149,0.94783 -0.1426742,0.139922 -0.8177895,0.703202 -0.9009759,0.965239"
       id="path2" />
    <path
       style="fill:#f2f2f2"
       d="m 5.9405481,26.425649 c 0.6143508,1.599977 1.2104469,3.219688 1.7194198,4.85908 0.2038577,0.656622 0.3273204,1.338395 0.6121134,1.968199 0.1405517,0.310821 0.6866309,1.604141 1.1451336,1.711897 0.4909887,0.115391 1.5439091,-0.521859 1.7985131,-0.650908 0.757287,-0.38384 1.458148,-0.864582 2.207735,-1.263129 0.549077,-0.291938 2.636955,-1.105143 2.812971,-1.788304 0.05413,-0.210088 -0.410615,-0.880459 -0.477999,-0.995221 -0.448163,-0.763279 -0.985214,-1.463211 -1.310198,-2.294136 -0.236844,-0.605568 -0.315182,-1.273245 -0.323251,-1.918873 -0.0054,-0.430155 0.06439,-1.966396 -0.340445,-2.321216 -0.460141,-0.403292 -1.834633,0.109162 -2.314339,0.270808 -1.9750594,0.665535 -3.7012579,1.443095 -5.5296539,2.421803 z"
       id="path3" />
    <path
       style="fill:#f2f2f2"
       d="m 21.129903,36.013241 c -0.318285,-0.383445 -0.487606,-0.682941 -0.663696,-0.05319 -0.08296,0.2967 -0.312346,1.352321 -0.385151,1.718667 -0.15669,0.788458 -0.315648,1.574349 -0.481437,2.360871 -0.06988,0.331528 -0.368486,1.421537 -0.07909,1.737044 0.464346,0.506248 2.078044,0.758281 2.692611,0.840474 0.438601,0.05866 1.038113,0.101278 1.492456,0.137338 1.063332,0.0844 2.069775,0.233268 3.125906,0.09575 1.163383,-0.151483 2.155604,-0.800805 3.277214,-1.083235 0.686431,-0.172849 0.996349,-0.220332 1.729736,-0.24276 0.06343,-0.0019 1.20462,0.116872 1.361781,-0.04449 0.06423,-0.06595 0.09691,-0.159543 0.120359,-0.248564 0.159875,-0.607024 -0.418234,-2.647768 -0.550214,-3.362863 -0.09686,-0.524802 -0.189215,-1.053441 -0.261352,-1.582296 -0.02369,-0.173677 -0.01031,-0.602007 -0.175381,-0.734085 -0.48344,-0.386804 -1.2812,-0.368818 -1.860412,-0.435228 -1.118372,-0.128228 -2.268705,-0.244462 -3.370063,-0.478751 -0.534761,-0.113758 -1.015639,-0.366991 -1.526845,-0.550322 -0.368314,-0.132086 -0.738435,-0.219799 -1.121062,-0.296922 -1.09958,-0.221634 -1.594648,-0.07577 -2.297144,0.859817 -0.266418,0.354816 -0.44906,0.685212 -0.618992,1.100644 -8.58e-4,0.0021 -0.104502,0.27941 -0.120359,0.279513 -0.591297,0.0039 -0.0157,-0.16303 -0.53302,0.462309 -0.159442,0.192735 -0.390103,0.313245 -0.588042,0.466178 -0.113802,0.08793 -0.603103,0.400822 -0.29574,0.599648"
       id="path4" />
    <path
       style="fill:#f2f2f2"
       d="m 33.795149,28.180102 c -0.695018,0.873974 -1.11981,1.688086 -1.372097,2.739036 -0.03211,0.133779 -0.171227,0.517428 -0.04471,0.655743 0.0993,0.108557 0.222796,0.195312 0.350762,0.267907 0.313331,0.177756 0.663978,0.279761 0.993824,0.42459 1.005579,0.441528 2.051206,0.778082 3.005546,1.326962 0.606203,0.348652 1.181592,0.748878 1.80883,1.060989 0.134854,0.0671 0.489804,0.28459 0.670573,0.220516 0.276873,-0.09814 0.723331,-1.619931 0.89066,-2.00882 0.336645,-0.782394 0.733693,-1.524741 1.121061,-2.282529 0.108631,-0.212509 0.368025,-0.616597 0.295741,-0.898505 -0.108872,-0.4246 -1.612554,-1.266455 -1.984211,-1.528134 -0.478921,-0.337203 -0.94012,-0.671261 -1.396169,-1.041646 -0.269775,-0.219101 -0.616478,-0.639667 -0.97663,-0.730216 -0.47085,-0.118381 -1.574083,0.707508 -1.870729,0.931388 -0.828243,0.62508 -1.566408,1.328883 -2.297145,2.061047 -0.174966,0.175308 -0.705766,0.605515 -0.732473,0.864653"
       id="path5" />
    <path
       style="fill:#f2f2f2"
       d="m 36.415545,18.463876 c 0.467113,-0.0039 -0.115653,2.663779 0.113481,3.183935 0.05542,0.125798 0.159978,0.205355 0.26823,0.290152 1.058586,0.829226 2.293858,0.933234 3.583271,0.743757 0.662721,-0.09739 1.331723,-0.244087 1.980771,-0.412983 0.247697,-0.06446 0.937061,-0.169792 1.093551,-0.46908 0.104239,-0.199356 -0.06272,-0.689099 -0.09629,-0.829835 -0.188688,-0.791136 -0.447407,-1.557778 -0.708401,-2.327019 -0.13136,-0.387162 -0.252233,-0.779122 -0.35764,-1.174149 -0.02639,-0.09889 -0.09968,-0.706151 -0.209769,-0.759231 -0.366367,-0.176642 -2.202732,0.03882 -2.472525,0.06673 -0.647706,0.06701 -1.283527,0.200233 -1.929189,0.277578 -0.294629,0.03529 -0.790784,-0.06147 -0.986947,0.233089 -0.148315,0.222708 -0.279602,0.586301 -0.306057,0.848212 -0.01105,0.109439 0.05496,0.222323 0.02751,0.328839 -0.05394,0.209307 -0.194754,0.387425 -0.264791,0.59191 -0.09186,0.26821 -0.12512,0.571845 -0.113482,0.854981"
       id="path6" />
    <path
       style="fill:#f2f2f2"
       d="m 25.349359,7.4680785 c -0.111189,0.159906 -0.267381,0.2965454 -0.333568,0.4797181 -0.109334,0.302584 -0.120949,0.6319943 -0.182258,0.9478302 -0.08447,0.4351459 -0.185367,0.8691277 -0.264791,1.3047172 -0.0067,0.03648 -0.07348,0.368449 0,0.422655 0.05427,0.04003 0.120304,0.06381 0.185697,0.08028 0.413553,0.10416 0.843782,0.122835 1.258616,0.218582 0.783844,0.180917 1.482164,0.463458 2.224929,0.759231 0.215603,0.08585 2.187898,0.888195 2.438137,0.682824 0.529804,-0.434808 1.013334,-2.178114 1.248299,-2.8347855 C 32.065006,9.1362206 32.515765,7.9702747 32.213283,7.5860737 31.913461,7.2052521 31.295234,6.9646834 30.875574,6.7881554 29.906838,6.3806615 28.857831,6.124339 27.83564,5.8857824 27.591105,5.8287134 26.278531,5.4933958 26.030249,5.6623653 25.324213,6.1428617 24.471433,8.2475924 24.30739,8.5832297 24.150198,8.9048496 24.006219,9.3069066 24.090743,9.6664642"
       id="path7" />
    <path
       style="fill:#f2f2f2"
       d="m 35.855014,12.411303 c -0.160479,0.01548 -0.332102,-0.01434 -0.481438,0.04642 -0.444313,0.18078 -0.941298,0.658638 -1.293004,0.987485 -0.102054,0.09542 -0.60276,0.519808 -0.608674,0.682824 -0.0115,0.316877 0.64701,0.621134 0.82876,0.771805 0.182537,0.151323 0.355355,0.314 0.53302,0.471013 0.420404,0.371537 0.856808,0.690505 1.327392,0.995222 0.05809,0.03762 0.261427,0.174566 0.288863,0.162485 0.624162,-0.274844 1.140576,-0.771115 1.736614,-1.103545 0.229913,-0.12823 0.555512,-0.262954 0.794372,-0.35592 0.354817,-0.138096 0.588041,-0.106382 0.588041,-0.521306 0,-0.252235 0.01203,-0.35372 -0.123798,-0.657679 -0.06343,-0.141944 -0.163414,-0.26754 -0.271668,-0.379132 -0.315776,-0.325511 -0.812895,-0.639381 -1.203594,-0.839506 -0.474807,-0.243208 -1.694617,-0.70974 -2.245562,-0.676055"
       id="path8" />
    <path
       style="fill:#f2f2f2"
       d="m 17.687624,7.0115725 c 0.07777,0.3494035 0.220299,1.0099206 0.312935,1.3288966 0.02951,0.1016228 0.293787,1.1280299 0.570847,1.1325603 0.375754,0.00614 0.98922,-0.5454853 1.255176,-0.6779887 C 20.158044,8.629902 20.501709,8.489319 20.847918,8.3578782 21.129482,8.2509804 22.882489,7.8532335 23.031581,7.6450713 23.181261,7.4360872 22.774896,6.9793579 22.728963,6.9225926 22.24646,6.326297 21.296675,5.5956334 20.534983,5.3702789 19.80121,5.1531845 18.639768,6.5746616 18.169062,6.8955117 c -0.136403,0.092977 -0.320959,0.077374 -0.481438,0.1160608 z"
       id="path9" />
    <path
       style="fill:#f2f2f2"
       d="m 8.3855631,19.323693 c -0.2624981,0.774706 -0.5759647,1.533973 -0.7874943,2.324118 -0.055445,0.207109 -0.021203,0.429247 -0.00688,0.643171 0.072412,1.081335 0.8002202,0.755598 1.650643,0.646072 0.3225882,-0.04155 0.6904381,-0.101166 1.0213352,-0.134438 0.230118,-0.02314 0.530166,0.0067 0.749667,-0.08898 0.474648,-0.206822 0.520236,-0.829895 0.288863,-1.215737 C 11.010461,21.012227 10.456664,20.635902 9.9915011,20.34793 9.5224074,20.057524 8.9793242,19.828395 8.430268,19.751184"
       id="path10" />
    <path
       style="fill:#f9f9f9"
       d="m 15.225415,36.517139 c -0.0095,-0.326753 0.05209,-0.634435 0.130676,-0.947831 0.20345,-0.811301 -0.04884,0.179593 0.08597,-0.322068 0.0056,-0.02082 0.02456,-0.08001 0.01032,-0.06383 -0.602412,0.683989 -1.17409,1.397998 -1.764124,2.092964 -0.03712,0.04372 -0.333568,0.294954 -0.333568,0.390738 0,0.357218 0.860942,1.040059 0.986947,1.142232 0.386861,0.313692 0.892598,0.486658 1.327392,0.717643 0.428644,0.227717 0.82352,0.51356 1.241421,0.758264 0.0051,0.003 0.287291,0.195798 0.306057,0.172157 0.150635,-0.189764 0.231983,-0.491224 0.312935,-0.695398 0.282478,-0.712462 0.340083,-0.884166 0.663696,-1.527167 0.22069,-0.4385 0.383517,-0.693651 0.646501,-1.12579 0.01871,-0.03074 0.159663,-0.205473 0.07909,-0.26017 C 18.375923,36.48038 17.25648,36.008974 16.882936,35.846887 16.455229,35.661299 15.456889,35.568278 15.129127,35.29173"
       id="path11" />
    <path
       style="fill:#d7eef4"
       d="m 37.846102,17.687235 c 0.846451,-0.14925 1.648813,-0.447196 2.51723,-0.419753 0.204665,0.0065 0.401447,0.06645 0.601797,0.09575"
       id="path16" />
    <path
       style="fill:#d7eef4"
       d="m 39.207882,21.343151 c 0.01668,0.261549 -0.543465,-0.161373 -0.698084,0.01257 -0.04861,0.05468 0.112964,0.124971 0.185697,0.117028 0.175133,-0.01913 0.33794,-0.154213 0.512387,-0.129602 0.203697,0.02874 0.3497,0.233556 0.550215,0.279514 0.422985,0.09695 2.385454,-0.27114 2.193979,-1.035843"
       id="path17" />
    <path
       style="fill:#d7eef4"
       d="m 33.994601,30.687983 c 0.218368,0.198204 1.42789,1.134126 1.71942,1.090972 0.176995,-0.0262 0.329907,-0.232147 0.436733,-0.358821 0.143684,-0.170383 0.376601,-0.420122 0.395466,-0.661547 0.01043,-0.133507 -0.897522,-0.502774 -1.031651,-0.552256 -0.123322,-0.04549 -0.246802,-0.08913 -0.367956,-0.140241 -0.04837,-0.0204 -0.189284,-0.08642 -0.14787,-0.05416 0.104172,0.08113 0.241832,0.115632 0.367955,0.143141 0.249797,0.05448 0.17689,-0.003 0.244158,-0.245662 0.07672,-0.276752 0.15935,-0.554376 0.261352,-0.823064 0.142288,-0.374807 0.425738,-0.855954 0.811566,-1.036811"
       id="path18" />
    <path
       style="fill:#d7eef4"
       d="m 39.376385,29.609585 c 0.225931,0.470996 0.200178,1.008359 0.26823,1.515561"
       id="path19" />
    <path
       style="fill:#d7eef4"
       d="m 26.790233,40.155646 c 0.148853,0.64891 0.02004,0.48225 1.248298,0.675087 0.777842,0.122122 1.909697,-0.580771 2.682295,-0.837572"
       id="path20" />
    <path
       style="fill:#d7eef4"
       d="m 22.883711,40.467076 c -0.01558,-0.01483 -0.485379,-0.553073 -0.68089,-0.491324 -0.137637,0.04347 -0.269174,0.622733 -0.306057,0.754395 -0.01801,0.06428 -0.03584,0.148739 -0.04127,0.216647 -7.71e-4,0.0096 -0.0016,0.03855 0,0.02902 0.180783,-1.067751 0.291264,-2.125024 0.608674,-3.166526 0.05725,-0.187849 0.119355,-0.457528 0.23728,-0.623827 0.04226,-0.0596 0.694362,-0.522878 0.787495,-0.483587 0.03324,0.01402 -0.05866,0.49471 -0.08941,0.751494"
       id="path21" />
    <path
       style="fill:#d7eef4"
       d="m 29.978037,36.333376 c 0.337371,0.347383 0.682527,0.701451 1.117623,0.92365"
       id="path22" />
    <path
       style="fill:#d7eef4"
       d="m 12.629091,25.853082 c 0.196283,0.993309 0.497705,1.960326 0.735912,2.943109 0.0233,0.09611 0.130801,0.926574 0.312934,1.145134"
       id="path23" />
    <path
       style="fill:#d7eef4"
       d="m 8.6984975,32.35539 c -0.1192132,-0.01451 -0.2511756,0.01205 -0.3576394,-0.04352 -0.030156,-0.01574 0.034005,-0.385499 0.072216,-0.577403 0.1803809,-0.905931 0.4531443,-1.851297 0.9319255,-2.648121 0.059297,-0.09869 0.3074094,-0.554681 0.3954666,-0.572567 0.0851,-0.01729 0.039589,0.171553 0.034388,0.258235 -0.01261,0.21019 -0.036689,0.41961 -0.061899,0.628663 -0.1108213,0.918984 -0.6064992,2.778755 0.5055098,3.358027 0.160503,0.08361 0.37607,0.163268 0.56053,0.132503 0.700375,-0.116814 0.975599,-1.993539 1.055724,-2.579452 0.0089,-0.06492 0.05918,-0.278755 -0.01719,-0.331741 -0.03115,-0.02161 -0.49826,-0.251925 -0.481438,-0.272743 0.116484,-0.144148 0.477573,0.03849 0.605236,-0.110258 0.04523,-0.0527 -0.0945,-0.398956 -0.09629,-0.456506 -0.0096,-0.309346 -0.01792,-0.61951 0,-0.928486 0.03988,-0.687612 0.653683,-1.445423 0.216647,-2.068785 -0.463863,-0.661625 -1.07794,-0.305721 -1.519968,0.223417 -0.160476,0.192102 -0.407659,0.42929 -0.288862,0.682825"
       id="path24" />
    <path
       style="fill:#d7eef4"
       d="m 10.218465,15.005263 c -0.01596,-0.443635 0.0128,-0.450533 -0.2957407,-0.149912 -0.1031686,0.10052 -0.643091,0.553069 -0.4264161,0.78341 0.3404265,0.361899 0.9514648,0.728708 1.4649458,0.783411 0.418299,0.04456 0.657368,-0.524315 0.471121,-0.861752 -0.196986,-0.356893 -0.859962,-0.458626 -1.21391,-0.555157 z"
       id="path25" />
    <path
       style="fill:#d7eef4"
       d="m 16.927641,12.885218 c -0.09629,0.05739 -0.210498,0.09201 -0.288863,0.172157 -0.176782,0.1808 -0.109861,0.707669 0.175381,0.75633 0.785199,0.13395 2.067844,-0.915206 0.663696,-0.995222 -0.253819,-0.01446 -0.291753,0.01264 -0.550214,0.06673 z"
       id="path26" />
    <path
       style="fill:#d7eef4"
       d="m 12.917954,11.089177 c -0.268717,0.257994 -0.515485,0.5954 -0.199453,0.936224 0.204568,0.220615 0.497575,0.462595 0.821883,0.469079 0.466197,0.0093 1.477294,-0.339606 1.158889,-1.006828 -0.231102,-0.484275 -0.844651,-0.719942 -1.282688,-0.385902 -0.09192,0.0701 -0.252566,0.271015 -0.23728,0.414917 0.01309,0.123217 0.07566,0.235991 0.113482,0.353986"
       id="path27" />
    <path
       style="fill:#d7eef4"
       d="m 14.018382,18.151478 c 0,-0.144108 -0.04762,-0.296313 0,-0.432326 0.364552,-1.041234 1.068191,-2.010864 1.836341,-2.793198"
       id="path28" />
    <path
       style="fill:#d7eef4"
       d="m 20.393991,6.8297439 c -0.202892,0.064478 -0.415638,0.1036623 -0.608675,0.1934347 -0.230774,0.1073223 -0.646502,0.1517039 -0.646502,0.406213 0,0.075564 0.146497,-0.038649 0.216647,-0.066735 0.134844,-0.053987 0.273116,-0.1010084 0.402345,-0.1673211 0.217606,-0.1116627 0.402365,-0.293832 0.636185,-0.3655916 0.134347,-0.041231 0.279692,0.027726 0.419538,0.041588"
       id="path29" />
    <path
       style="fill:#d7eef4"
       d="m 28.822587,8.0213018 c 0.773228,0.6942163 1.022888,1.6104686 1.495895,2.4585552"
       id="path30" />
    <path
       style="fill:#d7eef4"
       d="m 25.156784,11.617253 c -0.12036,-0.07931 -0.240719,-0.158616 -0.361078,-0.237924"
       id="path31" />
    <path
       style="fill:#e6e6e6"
       d="m 26.26409,7.5889752 c -0.0057,0.9677166 -0.134002,2.0152599 0.323251,2.9053898"
       id="path32" />
    <path
       style="fill:#e6e6e6"
       d="m 12.0101,13.469391 c -0.65313,-0.0028 -0.306084,0.842185 0.02751,1.066792"
       id="path33" />
    <path
       style="fill:#e6e6e6"
       d="m 12.701307,16.01209 c -0.655235,0.0562 0.01365,0.679174 0.374833,0.671219 0.886935,-0.01954 1.553384,-1.009714 0.784056,-1.660637 -0.351912,-0.297751 -1.16152,0.0964 -1.231105,0.456506 -0.03401,0.176005 0.0179,0.362077 0.07222,0.532912 0.04716,0.148353 0.151309,0.272099 0.226963,0.408148"
       id="path34" />
    <path
       style="fill:#e6e6e6"
       d="m 26.962175,7.2959216 c -0.585014,0.01216 -0.102719,0.6836904 0.202891,0.7940495 0.783559,0.2829518 1.16358,-0.870199 0.811566,-1.3975659 -0.397294,-0.5952043 -1.119525,0.059302 -1.014457,0.6035164 0.03537,0.1831894 0.151308,0.3410899 0.226963,0.5116348"
       id="path35" />
    <path
       style="fill:#e6e6e6"
       d="m 29.077061,10.824171 c -0.55978,-0.08475 -0.430339,0.611289 -0.0069,0.709905 0.961106,0.223825 1.492488,-1.104505 0.618991,-1.7176999 -0.561874,-0.394436 -1.080237,0.7371609 -0.612113,1.0077949 0.210512,0.121702 0.472267,0.116061 0.708401,0.174091"
       id="path36" />
    <path
       style="fill:#e6e6e6"
       d="m 35.297922,14.270211 c 0.743446,1.020707 1.367394,-0.588457 0.557092,-0.935257 -0.280229,-0.119935 -0.792158,0.213268 -0.74279,0.544519 0.0059,0.03931 0.372517,0.767311 0.392028,0.789213 0.04219,0.04736 0.122461,0.0366 0.185697,0.04159 0.590043,0.04653 0.891256,-0.792213 0.278546,-0.990386"
       id="path37" />
    <path
       style="fill:#e6e6e6"
       d="m 41.446567,18.932955 c -0.267251,-0.378506 -0.23331,-0.520244 -0.674013,0.218581 -0.06716,0.112588 -0.04986,0.259744 -0.04471,0.390738 0.04156,1.054879 1.498968,0.622056 1.791636,-0.04642 0.185066,-0.422709 0.100952,-0.673643 -0.209769,-0.948798 -0.886028,-0.784608 -2.193683,0.190006 -0.900976,1.221541"
       id="path38" />
    <path
       style="fill:#e6e6e6"
       d="m 37.897684,19.215369 c -0.937966,0.743816 0.210627,0.651072 0.185698,0.46908 -0.02282,-0.166611 -0.0181,-0.455283 -0.185698,-0.46908 -0.152701,-0.01257 0.0298,0.304983 0.04471,0.457474"
       id="path39" />
    <path
       style="fill:#e6e6e6"
       d="m 39.847506,18.483219 c 0.297213,-0.298535 -0.07192,-0.55573 -0.07909,-0.368493 -0.0048,0.125536 0.05273,0.245662 0.07909,0.368493 z"
       id="path40" />
    <path
       style="fill:#e6e6e6"
       d="m 38.79866,31.753808 c -0.155835,0.09707 -0.526174,0.288337 -0.350761,0.550322 0.474084,0.708062 1.383716,0.301103 1.372097,-0.486488 -0.0055,-0.375754 -0.169928,-0.76167 -0.612114,-0.567731 -0.08385,0.03678 -0.169239,0.08367 -0.226963,0.154748 -0.08276,0.101912 -0.121506,0.232766 -0.182259,0.349149 z"
       id="path41" />
    <path
       style="fill:#e6e6e6"
       d="m 37.28901,28.049533 c -0.746599,0.623061 1.214522,1.653671 1.499334,1.095808 0.16725,-0.327593 -0.831899,-1.315162 -1.141695,-1.250555 -0.127158,0.02652 -0.238426,0.103165 -0.357639,0.154747 z"
       id="path42" />
    <path
       style="fill:#e6e6e6"
       d="m 35.77592,31.230568 c 0.03552,0.36479 0.160856,0.537793 0.464244,0.705069 0.734149,0.404782 1.204468,-0.48593 0.68089,-0.802754 -0.589272,-0.356577 -1.13415,0.569287 -0.350762,0.944929"
       id="path43" />
    <path
       style="fill:#e6e6e6"
       d="m 27.873467,36.426224 c -0.01261,0.131214 -0.06159,0.263982 -0.03783,0.39364 0.0087,0.04753 0.07848,0.05866 0.123798,0.07544 0.421334,0.156001 0.569025,-0.544071 0.199453,-0.609319 -0.104391,-0.01843 -0.190283,0.09349 -0.285424,0.14024 z"
       id="path44" />
    <path
       style="fill:#e6e6e6"
       d="m 31.504882,38.428274 c -0.09629,-0.106389 -0.145478,-0.313618 -0.288863,-0.319168 -1.049208,-0.04061 -0.333291,2.123953 0.550214,1.488481 0.164549,-0.118354 0.308134,-0.248193 0.361079,-0.449736 0.02953,-0.112419 0.05552,-0.230893 0.04127,-0.346248 -0.02764,-0.223699 -0.07215,-0.450386 -0.165065,-0.655744 -0.28477,-0.629382 -1.447363,-0.566757 -1.389291,0.218581 0.0077,0.104613 0.05731,0.201817 0.08597,0.302726"
       id="path45" />
    <path
       style="fill:#e6e6e6"
       d="m 24.761317,37.369219 c -0.277966,0.337647 -0.210159,0.808338 0.113482,1.108381 0.780763,0.723832 1.808718,-0.78204 1.399608,-1.515562 -0.327482,-0.587164 -1.210601,-0.434515 -1.581867,0.03869 -0.01152,0.01469 0.123529,0.620207 0.158187,0.779542"
       id="path46" />
    <path
       style="fill:#e6e6e6"
       d="m 13.939289,29.643436 c -0.07573,0.190572 -0.531495,0.776456 -0.209769,1.073562 0.745677,0.688614 1.574328,-0.955121 0.759983,-1.485578 -0.513097,-0.334228 -2.024667,-0.05857 -1.413363,0.667349"
       id="path47" />
    <path
       style="fill:#e6e6e6"
       d="m 7.9935353,26.706129 c -0.192575,0.129924 -0.4162224,0.222792 -0.577725,0.389771 -0.055059,0.05693 -0.035669,0.157216 -0.027511,0.235991 0.081197,0.784062 1.0711135,0.988241 1.5371613,0.361723 0.065199,-0.08765 0.2062947,-0.341286 0.1856973,-0.491325 C 9.0705701,26.90663 8.6147039,26.257552 8.237693,26.411141 8.0528499,26.486444 7.6748003,27.1549 7.7837661,27.268057"
       id="path48" />
    <path
       style="fill:#e6e6e6"
       d="m 9.0767698,21.166159 c -0.143285,-0.04191 -0.2818333,-0.106324 -0.4298549,-0.125733 -0.032612,-0.0043 -0.055301,0.03629 -0.079093,0.059 -0.2493989,0.238062 0.4891535,0.617933 0.5330201,0.309495 0.052303,-0.367753 -0.482834,-0.536886 -0.3748335,-0.296922"
       id="path49" />
    <path
       style="fill:#b3b3b3"
       d="M 11.294821,33.937687 C 12.523328,33.104453 13.777,32.213593 15.163516,31.650321"
       id="path50" />
    <path
       style="fill:#b3b3b3"
       d="m 32.30957,36.043224 c 0.296316,1.388861 0.505509,2.82883 0.505509,4.252662"
       id="path51" />
    <path
       style="fill:#e6e6e6;fill-opacity:1"
       d="m 15.390479,36.748293 c -0.06419,0.09672 -0.146986,0.183398 -0.192575,0.290152 -0.07151,0.167467 0.353545,0.290052 0.560531,-0.06383 0.121822,-0.20828 -0.07869,-0.666435 -0.23728,-0.506799 -0.07269,0.07317 -0.08712,0.186987 -0.130676,0.28048 z"
       id="path52" />
    <path
       style="fill:#e6e6e6;fill-opacity:1"
       d="m 17.013612,38.742605 c -0.680008,0.608379 0.06349,0.437926 0.07909,0.326905 0.01561,-0.111021 -0.05273,-0.217937 -0.07909,-0.326905 z"
       id="path53" />
    <path
       style="fill:#e6e6e6;fill-opacity:1"
       d="m 10.751485,29.673418 c -0.02637,0.112837 -0.05273,0.225674 -0.07909,0.338511"
       id="path54" />
    <path
       style="fill:#e6e6e6;fill-opacity:1"
       d="m 17.67043,36.890468 c 0.368122,0.460763 0.241594,1.077395 0.01719,1.582296"
       id="path55" />
    <path
       style="fill:#e6e6e6;fill-opacity:1"
       d="m 14.585791,38.369276 c -0.428856,-0.655199 -0.23766,-1.559032 0.38515,-2.040736"
       id="path56" />
    <path
       style="fill:#d7eef4;fill-opacity:1"
       d="m 16.955151,36.936892 c -0.581444,0.343453 -0.146894,0.78858 -0.130676,1.297947 0.01135,0.356367 -0.15557,0.655551 -0.220085,0.994254"
       id="path57" />
    <path
       style="fill:#d7eef4;fill-opacity:1"
       d="m 24.13201,41.877215 c 0.281393,-0.488459 0.716893,-0.844854 1.121061,-1.225409 0.395046,-0.371965 0.74509,-0.78754 1.265493,-0.977813"
       id="path58" />
    <path
       style="fill:#f2f2f2;fill-opacity:1"
       d="m 20.982032,19.382691 c 0.325544,1.499441 0.414312,3.070703 0.976631,4.498324 0.12381,0.314331 0.629588,0.245343 0.942242,0.373329 0.47577,0.194759 0.94085,0.415004 1.416802,0.609319 0.68652,0.280283 1.372903,0.497792 2.087375,0.692497 0.258691,0.0705 0.876961,0.332954 1.152012,0.188599 0.657527,-0.345092 0.986342,-2.379922 1.127939,-3.04563 0.100011,-0.470192 0.181402,-0.944183 0.278546,-1.414975 0.115874,-0.561563 0.362966,-1.208771 0.271668,-1.796042 -0.136962,-0.881005 -1.028992,-0.860443 -1.729736,-0.957501 -0.285756,-0.03958 -0.571733,-0.07818 -0.856271,-0.125733 -1.034174,-0.172848 -2.132422,-0.539486 -3.187804,-0.290152 -0.964231,0.227799 -1.406833,2.155853 -1.30332,3.01468"
       id="path59" />
    <path
       style="fill:#f2f2f2;fill-opacity:1"
       d="m 22.326619,28.304867 c -0.296887,0.165387 -0.612222,0.30131 -0.89066,0.49616 -0.205276,0.143652 -0.732243,0.841005 -0.708401,1.137397 0.03043,0.378244 1.365678,1.036618 1.605938,1.178984 0.816557,0.483852 1.606638,0.92317 2.524109,1.186722 0.114327,0.03284 0.6736,0.246531 0.839077,0.122831 0.470304,-0.351568 0.777132,-0.894115 1.127939,-1.353076 0.319948,-0.418589 1.056219,-1.031739 1.117623,-1.601639 0.04319,-0.400879 -0.63121,-1.007172 -0.821883,-1.167379 -0.740882,-0.622504 -1.384448,-0.977659 -2.25244,-1.321159 -0.245361,-0.0971 -0.476901,-0.203451 -0.715278,-0.312397 -0.0046,-0.0021 -0.213288,-0.114119 -0.23728,-0.08801 -0.205838,0.223975 -0.373374,0.480467 -0.567409,0.714742 -0.209769,0.248886 -0.419538,0.497772 -0.629308,0.746658 -0.130675,0.08672 -0.28668,0.143984 -0.392027,0.260169 -0.282968,0.533467 -0.110561,0.305725 -0.508949,0.70507 -0.05715,0.05729 -0.273361,0.200837 -0.182258,0.296922"
       id="path60" />
    <path
       style="fill:#f2f2f2;fill-opacity:1"
       d="m 22.350691,13.601894 c -0.216297,0.371084 -0.188198,0.209062 -0.171942,0.651875 0.01585,0.431896 -0.03359,0.744576 0.477998,0.684759 0.42117,-0.04924 0.837137,-0.123784 1.258616,-0.172157 0.728903,-0.08366 1.70431,0.04564 1.299881,-1.083235 -0.06453,-0.180114 -0.144359,-0.346175 -0.261352,-0.498094 -0.04167,-0.05411 -0.755204,-0.783706 -0.897537,-0.803721 -0.204337,-0.02873 -1.275478,0.561454 -1.485579,0.655743 -0.321979,0.144499 -1.032497,0.342783 -0.753106,0.435228"
       id="path61" />
    <path
       style="fill:#f2f2f2;fill-opacity:1"
       d="m 32.388663,16.898989 c -0.508256,0.0974 -1.028099,0.156824 -0.866587,0.77664 0.14609,0.560632 0.242689,0.717516 0.447049,1.223475 0.182857,0.452722 0.347689,0.902941 0.584603,1.330831 0.04142,0.07481 0.184395,0.346434 0.306056,0.349149 0.299506,0.0067 1.009264,-0.625519 1.265493,-0.798885 0.312733,-0.211598 0.634057,-0.436827 0.969753,-0.611254 0.125113,-0.06501 0.276351,-0.131603 0.271668,-0.14024 -0.363882,-0.671173 -1.421799,-1.860024 -2.063303,-2.319282"
       id="path62" />
    <path
       style="fill:#f2f2f2;fill-opacity:1"
       d="m 15.854723,21.622665 c 0.008,-0.170223 0.01402,-0.340553 0.02407,-0.510668 0.0022,-0.03685 0.01965,-0.145971 0.01032,-0.110258 -0.09493,0.363106 -0.162766,0.732805 -0.23728,1.100644 -0.04186,0.206627 -0.632558,2.831522 -0.288862,3.151051 0.17038,0.158401 1.314716,0.08838 1.581866,0.108324 0.155088,0.01158 0.309979,0.0267 0.464243,0.04642 0.51938,0.0664 1.039673,0.158814 1.554356,0.256301 0.06571,0.01245 0.268743,0.09184 0.312934,0.0048 0.105275,-0.207261 0.113239,-1.998462 0.130676,-2.279628 0.03542,-0.571164 0.08332,-1.127124 0.02751,-1.69739 -0.0064,-0.06585 0.05757,-0.20257 0.01719,-0.253399 -0.188718,-0.237583 -0.729136,-0.287315 -0.997264,-0.344314 -0.843554,-0.179326 -1.702016,-0.337505 -2.54818,-0.49616"
       id="path63" />
    <path
       style="fill:#f2f2f2;fill-opacity:1"
       d="m 32.257987,22.925448 c -0.04127,-0.09091 -0.03288,-0.31401 -0.123798,-0.272743 -0.09091,0.04127 0.163554,0.181157 0.123798,0.272743 -0.08092,0.186413 -0.325386,0.258015 -0.429854,0.432326 -0.199944,0.333617 -0.402377,1.185675 -0.557092,1.613246 -0.01444,0.03992 -0.168257,0.352922 -0.07222,0.390738 0.202306,0.07966 1.105921,-0.285925 1.30332,-0.338511 0.70456,-0.187689 1.432003,-0.295277 2.156153,-0.373329 0.03315,-0.0036 1.048685,-0.06639 1.048846,-0.06674 0.09012,-0.192638 -0.04125,-1.098777 -0.06878,-1.284406 -0.0482,-0.325048 -0.09422,-1.166739 -0.378273,-1.494284 -0.02979,-0.03435 -1.532594,0.182154 -1.640326,0.197304 -0.543357,0.07641 -1.087166,0.165904 -1.633449,0.218581 -0.03008,0.0029 -0.233315,0.0021 -0.254474,0.04642 -0.316485,0.663278 -0.320519,1.960756 -0.288863,2.748708 0.0057,0.141745 -0.0025,0.499061 0.175381,0.499061"
       id="path64" />
    <path
       style="fill:#cccccc;fill-opacity:1"
       d="m 26.405082,20.111939 c -0.09056,0.0032 -0.183435,-0.01096 -0.271668,0.0097 -0.07959,0.01861 -0.07641,0.304281 -0.06878,0.347215 0.07565,0.425515 0.433194,1.162382 0.976631,1.11225 0.856147,-0.07898 1.270462,-1.31271 0.306057,-1.694488 -0.465498,-0.184276 -1.108832,0.138538 -1.083235,0.679923 0.0073,0.153461 0.476632,0.573139 0.515826,0.612221"
       id="path65" />
    <path
       style="fill:#cccccc;fill-opacity:1"
       d="m 26.728333,23.919702 c -0.08482,0.03772 -0.183148,0.05374 -0.254474,0.113159 -0.151274,0.126022 0.09375,0.573514 0.350762,0.528077 0.418115,-0.07392 0.438568,-0.61363 0.742789,-0.797918"
       id="path66" />
    <path
       style="fill:#e6e6e6;fill-opacity:1"
       d="m 23.984139,29.63183 c -0.01375,0.09736 -0.06737,0.197285 -0.04127,0.292086 0.0306,0.111113 0.12696,0.192822 0.199453,0.282415 0.32323,0.399473 0.775565,0.412594 1.241421,0.309495"
       id="path67" />
    <path
       style="fill:#e6e6e6;fill-opacity:1"
       d="m 16.944835,22.416714 c -0.130676,0.28983 -0.303046,0.564269 -0.392028,0.869489 -0.04071,0.139629 0.0622,0.47488 0.130676,0.621893 0.0257,0.05518 0.07568,0.178677 0.120359,0.137339 0.395062,-0.365497 0.53471,-1.440969 0.605236,-1.931446 0.0155,-0.107774 -0.02575,-0.345142 0.08597,-0.397509"
       id="path68" />
    <path
       style="fill:#e6e6e6;fill-opacity:1"
       d="m 27.147872,20.078088 c -0.397054,0.01835 -0.547925,-0.12631 -0.567409,0.306594 -0.02296,0.510228 0.655578,0.919106 0.942242,0.484554 0.356482,-0.540387 -0.229911,-1.045419 -0.794372,-0.634466 -0.367584,0.267618 -0.107516,1.367842 0.715279,0.884964 0.420034,-0.246507 0.618908,-0.883296 0.01032,-1.068727 -0.09797,-0.02985 -0.210806,-0.01056 -0.306057,0.02708 -0.443707,0.175329 -0.86924,0.523857 -0.584603,1.021336 0.07258,0.12686 0.211653,0.212722 0.340445,0.103487 0.48129,-0.408203 -0.444124,-1.395339 -0.787494,-0.818229 -0.26346,0.442803 0.129551,1.006016 0.601797,1.090972 0.218335,0.03928 0.360015,-0.01255 0.560531,-0.07834"
       id="path69" />
    <path
       style="fill:#e6e6e6;fill-opacity:1"
       d="m 27.209771,23.683712 c -0.224671,0.05158 -0.458909,0.07187 -0.674013,0.154747 -0.149123,0.05745 -0.254958,0.562709 -0.07909,0.646072 0.262519,0.124439 0.649353,-0.02933 0.845955,-0.218581 6.59e-4,-6.34e-4 0.141957,-0.192304 0.134114,-0.213745 -0.05657,-0.154658 -0.451616,-0.807931 -0.735911,-0.528077"
       id="path70" />
    <path
       style="fill:#e6e6e6;fill-opacity:1"
       d="m 22.213137,21.195174 c -0.0087,0.807896 0.02534,1.92076 0.914731,2.240941"
       id="path71" />
    <path
       style="fill:#e6e6e6;fill-opacity:1"
       d="m 33.189913,17.665957 c 0.556817,0.393859 0.930767,1.048512 1.162328,1.686751"
       id="path72" />
    <path
       style="fill:#e6e6e6;fill-opacity:1"
       d="m 32.96295,23.234943 c -0.89738,0.312095 -0.373569,0.536286 0.140992,0.441998 0.398993,-0.07311 0.802816,-0.201817 1.1864,-0.33174 0.101325,-0.03432 0.49391,-0.134304 0.543336,-0.269842 0.110796,-0.303822 -0.534394,-0.535556 -0.732473,-0.524208 -0.57687,0.03305 -0.802761,0.256471 -1.138255,0.683792 z"
       id="path73" />
    <path
       style="fill:#e6e6e6;fill-opacity:1"
       d="m 25.854868,28.756537 c 0.173339,0.269294 0.139515,0.291494 0.330129,0.430393 0.524315,0.382064 0.552718,-0.805326 -0.04127,-0.827901 -0.04765,-0.0018 -0.112961,-0.0144 -0.140993,0.02418 -0.07868,0.108279 -0.09858,0.248886 -0.14787,0.373329 z"
       id="path74" />
    <path
       style="fill:#e6e6e6;fill-opacity:1"
       d="m 24.324585,27.653959 c -0.686196,-0.189702 -0.696124,1.237005 -0.05846,0.987485 0.488333,-0.191087 0.806766,-1.146473 0.261352,-1.469137 -0.286169,-0.169296 -0.878983,0.560574 -0.656818,0.918815"
       id="path75" />
    <path
       style="fill:#e6e6e6;fill-opacity:1"
       d="m 22.859639,29.619256 c -0.29207,0.120325 -0.323623,0.05038 -0.288863,0.464244 0.0072,0.08607 0.132989,0.168895 0.199453,0.199237 0.422366,0.192819 0.453892,-0.60924 0.08941,-0.663481 -0.167846,-0.02498 -0.350906,0.08261 -0.464243,0.20891 -0.152784,0.170254 0.121325,0.504944 0.237279,0.59191"
       id="path76" />
    <path
       style="fill:#e6e6e6;fill-opacity:1"
       d="m 25.906451,31.201552 c -0.07566,0.132503 -0.184152,0.251058 -0.226964,0.397509 -0.02164,0.07402 0.151828,0.152928 0.192575,0.154747 0.287336,0.01283 0.425576,-0.52602 0.35764,-0.729248 -0.141733,-0.423989 -0.708277,-0.260742 -0.59492,-0.059 0.05876,0.104574 0.181113,0.157327 0.271669,0.23599 z"
       id="path77" />
    <path
       style="fill:#e6e6e6;fill-opacity:1"
       d="m 23.540529,13.422967 c 0.166184,0.281522 0.08012,0.226355 0.340445,0.366558 0.808316,0.43533 0.587752,-1.263174 -0.0447,-0.710872 -0.113959,0.09952 -0.19716,0.229542 -0.29574,0.344314 z"
       id="path78" />
    <path
       style="fill:#e6e6e6;fill-opacity:1"
       d="m 33.3481,17.717218 c -0.174235,0.08189 -0.389602,0.106568 -0.522704,0.245662 -0.712689,0.744768 0.418135,1.297882 0.839077,0.328839 0.03462,-0.07971 0.06188,-0.357419 0.0069,-0.419754 -0.07904,-0.08957 -0.208792,-0.120544 -0.323251,-0.154747 -0.721527,-0.215613 -0.73699,0.400349 -0.471121,0.864653"
       id="path79" />
  </g>
</svg>
