<?xml version="1.0" encoding="UTF-8" standalone="no"?>
<!-- Created with Inkscape (http://www.inkscape.org/) -->

<svg
   width="48"
   height="48"
   viewBox="0 0 48 48"
   version="1.1"
   id="svg1"
   inkscape:version="1.3 (0e150ed6c4, 2023-07-21)"
   sodipodi:docname="ham.svg"
   xmlns:inkscape="http://www.inkscape.org/namespaces/inkscape"
   xmlns:sodipodi="http://sodipodi.sourceforge.net/DTD/sodipodi-0.dtd"
   xmlns="http://www.w3.org/2000/svg"
   xmlns:svg="http://www.w3.org/2000/svg">
  <sodipodi:namedview
     id="namedview1"
     pagecolor="#ffffff"
     bordercolor="#000000"
     borderopacity="0.25"
     inkscape:showpageshadow="2"
     inkscape:pageopacity="0.0"
     inkscape:pagecheckerboard="0"
     inkscape:deskcolor="#d1d1d1"
     inkscape:document-units="px"
     inkscape:zoom="27.244481"
     inkscape:rotation="96"
     inkscape:cx="21.099721"
     inkscape:cy="24.299909"
     inkscape:window-width="2400"
     inkscape:window-height="1271"
     inkscape:window-x="2391"
     inkscape:window-y="-9"
     inkscape:window-maximized="1"
     inkscape:current-layer="layer1" />
  <defs
     id="defs1" />
  <g
     inkscape:label="Calque 1"
     inkscape:groupmode="layer"
     id="layer1">
    <path
       style="fill:#ffaaaa"
       d="m 21.889886,2.1544266 c -0.63102,0.2792964 -1.040355,0.826999 -1.320514,1.4401215 -1.111914,2.4333968 0.337788,4.6042874 0.175381,7.0845469 -0.07583,1.158055 -0.560065,2.268351 -1.100429,3.276784 -0.281975,0.526224 -0.573419,1.06854 -0.753106,1.641294 -0.28277,0.90133 -0.02755,1.827487 -0.14787,2.748707 -0.05556,0.425413 -0.203126,0.841722 -0.374834,1.233147 -0.0135,0.03078 -0.261218,0.462206 -0.199452,0.49616 0.05762,0.03167 0.196236,0.02867 0.261351,0.02998 0.477333,0.0096 0.463686,-0.130983 0.749668,-0.503897 0.124423,-0.162245 0.687821,-0.507773 0.718717,-0.567731 0.164261,-0.318769 0.215603,-0.754748 0.268229,-1.102578 0.150998,-0.997997 -0.122574,-2.03081 0.29918,-2.984698 0.5504,-1.244851 1.758316,-1.953753 1.929189,-3.431532 0.02818,-0.243682 -0.01877,-0.477086 -0.05158,-0.717643 -0.173524,-1.2721453 -0.96262,-2.3986053 -0.735912,-3.7197496 0.167189,-0.9742942 0.545015,-2.0035023 1.110745,-2.8193112 0.183674,-0.2648656 0.428419,-0.4888578 0.65338,-0.7176428 0.409359,-0.4163185 0.739273,-0.8914839 1.15545,-1.3018157 0.145353,-0.1433111 0.314084,-0.2520218 0.488315,-0.3568871 0.06631,-0.039912 0.131118,-0.08889 0.199453,-0.1247654 0.0089,-0.00469 0.03751,-0.01128 0.02751,-0.012573 -0.711763,-0.092084 -1.744916,1.0051629 -2.211174,1.5184626 -0.05119,0.056355 -0.372225,0.5343911 -0.471121,0.4864884 -0.145291,-0.070375 -0.05424,-0.3290718 -0.02407,-0.4274908 0.218392,-0.7125053 0.770896,-1.1276579 1.272371,-1.6287204 0.255379,-0.2551696 0.345401,-0.5964061 -0.14787,-0.1479775 -0.613345,0.5575863 -1.110634,0.9981251 -1.544039,1.7177003 -0.02537,0.042126 -0.49491,0.8338031 -0.584603,0.7466581 -0.08281,-0.080461 0.09475,-0.3309661 0.130676,-0.395574 0.285619,-0.5136915 0.684576,-0.9515375 1.004141,-1.4420559 0.114635,-0.1759595 0.214937,-0.3627535 0.323251,-0.5425844 0.04675,-0.077617 0.210968,-0.2437278 0.120359,-0.2437278 -0.209428,0 -0.520889,0.4202184 -0.663696,0.5435516 -0.06552,0.056586 -0.119196,0.1338892 -0.199453,0.1663539 -0.112007,0.045308 -0.269676,-0.023833 -0.357639,0.058998 -0.118729,0.1118012 -0.109552,0.3084223 -0.185697,0.4526372 -0.05868,0.1111264 -0.165395,0.1893317 -0.244158,0.2872506 -0.258526,0.3214017 -0.571058,0.729725 -0.515826,1.1615755"
       id="path2" />
    <path
       style="fill:#ffaaaa"
       d="m 22.526071,5.1884502 c 0.05846,-0.1399177 0.09224,-0.2929395 0.175381,-0.4197533 0.153888,-0.234716 0.921392,-0.4026371 1.213911,-0.5213066 0.493882,-0.2003592 0.966493,-0.4633926 1.413363,-0.7534283 0.298273,-0.1935909 0.545204,-0.4275637 0.718717,-0.7398878 0.05388,-0.096991 0.10649,-0.2049441 0.192575,-0.2775788 0.01493,-0.012594 0.03924,-0.061012 0.04127,-0.041589 0.02488,0.2379139 -0.49632,1.0892904 -0.612113,1.2969799 -0.39612,0.7104926 -0.745451,1.4472151 -1.134817,2.161633 -0.165833,0.3042729 -0.378186,0.5767317 -0.50551,0.9014059 -0.253432,0.6462536 -0.280603,1.5533202 -0.08597,2.2206306 0.165934,0.5689137 0.348319,1.0818772 0.261352,1.6877182 -0.116906,0.814412 -0.610881,1.39818 -0.945681,2.122946 -0.461572,0.999199 -0.620121,2.025938 -0.495193,3.126873 0.101723,0.896433 0.297005,1.787349 0.35764,2.687775 0.04644,0.689699 -0.08301,1.352065 -0.185698,2.029131 -0.05649,0.372471 -0.07757,0.753097 -0.06878,1.129657 0.0045,0.193084 0.025,0.383763 0.0447,0.57547 0.0073,0.07104 0.01171,0.142784 0.01719,0.213745 0.0013,0.01719 0.01942,0.06309 0.0069,0.05126 -0.399707,-0.376931 -0.615693,-1.051432 -0.784055,-1.557149 -0.210651,-0.632744 -0.446811,-1.331243 -0.409222,-2.007853 0.01756,-0.316117 0.102749,-0.625971 0.165064,-0.935257 0.19341,-0.959939 0.295264,-1.674453 -0.01719,-2.66553 -0.185919,-0.589711 -0.122354,-1.2466 -0.0619,-1.850203 0.01685,-0.168196 0.055,-0.334893 0.07909,-0.502931 0.01039,-0.07246 0.03232,-0.1433 0.04127,-0.213745 0.002,-0.01604 0.01614,-0.06247 0.01032,-0.04739 -0.0087,0.02244 -0.01834,0.04449 -0.02751,0.06673"
       id="path3" />
    <path
       style="fill:#ffaaaa"
       d="m 24.720051,9.9179293 c -0.05617,-0.1015532 -0.135596,-0.1933718 -0.168503,-0.3046597 -0.03595,-0.1215647 0.081,-0.3984579 0.123798,-0.5087333 0.462764,-1.1922883 1.594329,-1.7577981 2.365922,-2.7119549 0.583418,-0.7214596 0.787985,-1.6941379 1.110745,-2.5426995 0.0367,-0.096491 0.134118,-0.384724 0.29574,-0.3491496 0.07334,0.016143 -0.03431,0.2656958 -0.03439,0.2659727 -0.11889,0.4244726 -0.224206,0.8545439 -0.357639,1.2747349 -0.339163,1.0680482 -0.538596,2.1584878 -0.986947,3.1936073 -0.203022,0.46872 -0.609227,0.8268192 -0.828761,1.2892424 -0.576412,1.2141454 -0.383117,2.6352884 -0.192575,3.9160864 0.0519,0.348866 0.0591,0.711358 0.130676,1.056153 0.104915,0.505433 0.270718,1.004539 0.29574,1.523299 0.0053,0.110537 0.05673,0.982174 -0.0619,1.070661 -0.126516,0.09437 -0.450011,-0.235096 -0.53302,-0.306594 -0.05502,-0.04739 -0.109254,-0.09692 -0.165064,-0.143142 -0.01079,-0.0089 -0.0336,-0.03817 -0.03439,-0.02418 -0.01304,0.232821 0.126109,0.679826 0.130676,0.977812 0.01423,0.928329 -0.08324,1.85567 -0.05158,2.783526 0.01773,0.519653 0.05757,1.046315 0.09629,1.564887 0.02476,0.331666 0.07734,0.638967 -0.02751,0.960404 -0.04067,0.124678 -0.177404,0.273393 -0.244157,0.384935 -0.221232,0.369668 -0.433766,0.754034 -0.698085,1.093873 -0.0051,0.0066 -0.225397,0.283144 -0.23728,0.274677 -0.04347,-0.03097 0.20977,-2.555529 0.20977,-2.822212 0,-0.738267 -0.05292,-1.449884 -0.175381,-2.179043 -0.11847,-0.70537 -0.309212,-1.403616 -0.357639,-2.120044 -0.06446,-0.953552 0.08391,-1.906554 0.244157,-2.844458 0.06155,-0.360217 0.179245,-0.723568 0.192575,-1.090972 0.01759,-0.484832 -0.0868,-0.947215 -0.113482,-1.427548 -0.02293,-0.412695 0.07211,-0.811733 0.08941,-1.220573 0.02254,-0.532439 -0.07111,-1.0941535 0.02407,-1.6161472 0.08357,-0.4583467 0.33008,-0.900532 0.560531,-1.297947 0.06897,-0.1189336 0.174902,-0.2408954 0.226963,-0.3684932 0.04466,-0.1094553 -0.05479,-0.411254 -0.0447,-0.5445187 0.02407,-0.3181818 0.200179,-0.6379649 0.32325,-0.9236509 0.145463,-0.3376625 0.258941,-0.6864445 0.429855,-1.0126308 0.06039,-0.1152432 0.10083,-0.2343166 0.154748,-0.351084 0.0227,-0.049152 0.09838,-0.1852333 0.05502,-0.1528134 -0.239013,0.1787127 -0.418942,0.47359 -0.59492,0.7099054 -0.570101,0.765572 -0.930759,1.5306875 -1.224227,2.4353432 -0.330601,1.019127 -0.76096,2.0310311 -0.856271,3.1094636 -0.199736,2.259998 0.192018,4.01727 -0.749667,6.192812 -0.42983,0.993024 -1.00975,2.082277 -1.224227,3.147183 -0.225211,1.118206 -0.09004,2.198137 0.09629,3.308701 0.0643,0.383263 0.139294,0.76748 0.130676,1.157707 -0.0042,0.191522 -0.01627,0.38951 -0.04127,0.579337 -0.0098,0.07419 -0.02072,0.144046 -0.02751,0.218582 -0.0011,0.0122 -0.01068,0.04276 0,0.03675 0.146309,-0.0823 0.241896,-0.773462 0.261352,-0.930421 0.119172,-0.961411 0.135646,-1.937809 0.271668,-2.896685 0.05008,-0.353012 0.133718,-0.702246 0.182259,-1.056154 0.07153,-0.521508 0.126319,-1.006985 0.288862,-1.50879 0.367073,-1.133231 0.582131,-2.17499 0.725595,-3.353191"
       id="path4" />
    <path
       style="fill:#d35f5f"
       d="m 23.296372,10.104594 c -0.08139,0.02192 -0.172482,0.02142 -0.244158,0.06577 -0.719467,0.44517 -0.5823,2.316614 -0.639624,3.088185 -0.01395,0.187689 -0.03627,0.383764 -0.09629,0.562895 -0.02634,0.0786 -0.04588,0.163693 -0.07909,0.239859 -0.0048,0.01108 -0.02125,0.0433 -0.01719,0.03192 0.110517,-0.309828 0.248022,-0.61685 0.323251,-0.938159 0.07167,-0.306102 0.120822,-0.629523 0.23728,-0.92365 0.17889,-0.451812 0.914731,-1.333858 0.914731,-1.721569 0,-0.07246 -0.113137,-0.493952 -0.120359,-0.494226 -0.0974,-0.0037 -0.244043,0.18014 -0.278546,0.08898 -0.04984,-0.1316808 0.134364,-0.2513945 0.165064,-0.388804 0.02217,-0.099211 -0.124007,-0.4366765 -0.140993,-0.534847 -0.06595,-0.3811683 -0.09671,-0.7768091 -0.08597,-1.1625427 0.01431,-0.5138937 0.0506,-1.0290695 0.113482,-1.5397404 0.02018,-0.1638771 0.06766,-0.3178869 0.09629,-0.4797181 0.0088,-0.049893 0.05068,-0.177308 0.0069,-0.1518463 -0.158163,0.091932 -0.207975,0.5179881 -0.233841,0.6634811 -0.169424,0.9530089 -0.232469,1.9449438 -0.185697,2.913127 0.0057,0.1185018 -0.05365,0.2501012 0,0.3559199 0.06318,0.1246294 0.262916,0.1852531 0.264791,0.3249705 0.0023,0.17055 -0.180977,0.290015 -0.254475,0.443933 -0.04781,0.100117 -0.0619,0.616404 -0.0619,0.754395"
       id="path5" />
    <path
       style="fill:#d35f5f"
       d="m 25.46284,12.625048 c -0.334285,0.631512 -0.5054,1.41709 -0.343884,2.129717 0.172567,0.76138 0.195775,1.128446 0.08941,1.908233 -0.09518,0.697792 -0.289283,1.38087 -0.261351,2.09103 0.0094,0.239251 0.0307,0.474491 0.05846,0.711839 0.0097,0.08292 0.02443,0.1676 0.04471,0.248564 0.0038,0.01538 0.0024,0.06014 0.01032,0.04642 0.192914,-0.333292 0.02787,-1.020701 0.01719,-1.397566 -0.0091,-0.32233 -0.01344,-0.668621 0.02407,-0.990385 0.02934,-0.251677 0.05129,-0.515129 0.113482,-0.761166 0.12317,-0.487291 0.326747,-0.975759 0.361078,-1.48171 0.03158,-0.465428 0.0352,-0.944806 0,-1.410139 -0.02751,-0.363682 -0.108089,-0.729866 -0.113482,-1.094841 -0.0041,-0.27781 0.03439,-0.559366 0.03439,-0.838539 0,-0.207575 -0.154773,-1.462349 -0.04471,-1.539741"
       id="path6" />
    <path
       style="fill:#d35f5f"
       d="m 21.601024,11.025343 c -0.08712,0.106389 -0.182772,0.206326 -0.261352,0.319167 -0.388099,0.557309 -0.569584,1.336883 -0.821883,1.960461 -0.184727,0.456571 -0.406385,0.892737 -0.601797,1.343405 -0.129344,0.2983 -0.183601,0.624078 -0.316373,0.918815 -0.04821,0.107027 -0.106282,0.209852 -0.14787,0.320134 -0.0053,0.01404 -0.01423,0.05629 -0.01719,0.04159 -0.04109,-0.204179 0.138109,-0.540496 0.199452,-0.717642 0.23976,-0.692369 0.472948,-1.370152 0.900976,-1.972067 0.337844,-0.475093 0.765266,-0.834504 1.004141,-1.378223 0.06125,-0.139406 0.189223,-0.39023 0.165065,-0.545486 -0.01578,-0.101428 -0.0918,-0.188134 -0.103165,-0.290152 -0.01778,-0.159665 0.02419,-0.321151 0.01719,-0.481652 -0.0075,-0.171727 -0.09276,-0.365055 -0.113482,-0.54065 -0.04089,-0.3464233 -0.04692,-0.7051678 -0.106604,-1.0464823"
       id="path7" />
    <path
       style="fill:#d35f5f"
       d="m 21.511614,3.0190798 c 0.047,-0.086723 0.09399,-0.1734465 0.140992,-0.2601697 0.0034,-0.0058 0.01353,-0.02334 0.01032,-0.017409 -0.267944,0.4944305 -0.555201,0.4398532 -0.7703,0.9313882 -0.346195,0.7911083 -0.187966,1.5373242 -0.216647,2.3628051 -0.01743,0.5015691 -0.215153,1.1332729 -0.01032,1.6287204"
       id="path8" />
    <path
       style="fill:#d35f5f"
       d="m 21.267456,5.805507 c 0.04453,-0.7833188 0.629233,-1.516469 1.231105,-1.9904433"
       id="path9" />
    <path
       style="fill:#d35f5f"
       d="m 24.420872,4.6951917 c -0.198224,0.1401028 -0.610868,1.1681632 -0.488315,1.3405026 0.03503,0.04926 0.08826,-0.083604 0.123798,-0.1325027"
       id="path10" />
    <path
       style="fill:#de8787"
       d="m 25.803286,9.5020447 c -0.01261,-0.089302 -0.05623,-0.1796168 -0.03783,-0.2679071 0.0751,-0.3602972 0.465397,-0.8366112 0.74279,-1.0706613"
       id="path11" />
    <path
       style="fill:#ffaaaa"
       d="m 29.530988,19.993944 c -0.09056,-0.0039 -0.181113,-0.0077 -0.271669,-0.01161 -0.0023,-0.01644 -0.02346,-0.05003 -0.0069,-0.04933 0.622222,0.02658 -0.04719,0.337525 0.453927,-0.567731 0.15054,-0.27195 0.96344,-0.472169 1.282687,-0.498094 0.594915,-0.04831 1.073206,0.294436 1.581866,0.539683 0.461327,0.222425 0.973014,0.41066 1.475262,0.516471 1.677419,0.353388 3.534067,-0.203165 5.031022,-0.968141 0.817164,-0.417588 1.547763,-0.988022 2.420943,-1.29698 0.748113,-0.264705 1.806987,0.130937 2.513792,0.427491 0.201407,0.0845 0.351227,0.185151 0.53302,0.296922 0.10415,0.06403 0.208349,0.119812 0.306057,0.194402 0.02911,0.02222 0.125698,0.06875 0.08941,0.06383 -0.6042,-0.08182 -1.582368,-0.3809 -2.097692,0.103488 -0.129129,0.121376 -0.194083,0.302036 -0.271669,0.456506 -0.219482,0.436978 -0.466429,0.680067 -0.907853,0.945896 -0.273157,0.164496 -0.676012,0.188029 -0.986947,0.24276 -0.45731,0.0805 -0.909291,0.213058 -1.372097,0.255334 -0.611962,0.0559 -1.252687,0.02891 -1.850096,0.189566 -0.520518,0.139975 -0.92656,0.751571 -1.265493,0.823065 -0.495646,0.10455 -0.976794,-0.07397 -1.461507,-0.16442 -0.582523,-0.108705 -1.171826,-0.168236 -1.74693,-0.314331 -0.726957,-0.18467 -1.482898,-0.463771 -2.242124,-0.420721 -0.434843,0.02466 -0.82464,0.194559 -1.231104,0.331741 -0.523377,0.17664 -1.06137,0.359505 -1.609377,0.4449 -0.01205,0.0019 -0.839573,0.04604 -0.82876,-0.01934 0.01906,-0.115258 0.439072,-0.179773 0.53302,-0.218581 0.255694,-0.105624 0.486374,-0.260281 0.742789,-0.366559 0.732434,-0.303574 1.616968,-0.496683 2.410627,-0.54065 0.08282,-0.0046 0.777048,2.4e-4 0.777177,0 0.04915,-0.09124 -0.421473,-0.256335 -0.498631,-0.282414 -0.231362,-0.0782 -0.559279,-0.204531 -0.811567,-0.183763 -0.09527,0.0078 -0.186275,0.0522 -0.278546,0.059 -0.137235,0.01012 -0.287832,-0.04631 -0.41266,0.01161 -0.161292,0.07483 -0.258787,0.24399 -0.392028,0.361723 -0.03044,0.02689 -0.12246,0.09639 -0.106604,0.059 0.08456,-0.199398 0.31135,-0.340125 0.498632,-0.420721 0.372996,-0.160517 0.556263,-0.190508 0.91817,-0.274677"
       id="path12" />
    <path
       style="fill:#fea8a8;fill-opacity:1"
       d="m 32.1617,21.057835 c -0.111189,0.04771 -0.231664,0.07791 -0.333567,0.143142 -0.562167,0.359868 -0.710723,1.173692 -0.969753,1.736077 -0.268499,0.58294 -0.808554,1.013373 -1.389291,1.255391 -0.06898,0.02875 -1.119121,0.373053 -1.124501,0.326905 -0.04101,-0.351757 1.822026,-1.012093 2.052987,-1.088071 0.61232,-0.20143 1.298597,-0.382353 1.843218,-0.736986 0.597856,-0.389297 0.589214,-0.717386 1.430558,-0.823065 1.009309,-0.126776 1.993643,0.146614 2.978035,0.324003 0.772337,0.139177 1.545001,0.222062 2.331533,0.213746 0.573923,-0.0061 1.150575,-0.08222 1.722859,-0.122831 0.402084,-0.02854 0.813111,0.0037 1.21391,-0.03385 0.287119,-0.02692 0.570946,-0.09379 0.856271,-0.13347 0.366913,-0.05102 0.737627,-0.05126 1.107306,-0.05126 0.114345,0 0.226331,-0.01934 0.340445,-0.01934 0.05278,0 0.191624,0.0476 0.158187,0.0068 -0.617377,-0.753951 -1.976488,-0.722401 -2.847359,-0.561928 -0.37174,0.0685 -0.891463,0.310847 -1.258615,0.140241 -0.09642,-0.04481 -0.181098,-0.173542 -0.251036,-0.243728 -0.04427,-0.04443 -0.188989,-0.112295 -0.130676,-0.135405 0.119511,-0.04736 1.068685,-0.012 1.272371,-0.02128 0.655406,-0.02984 1.311168,-0.106609 1.967016,-0.117996 0.05702,-9.89e-4 0.877693,0.06346 0.749667,-0.108323 -0.183062,-0.245632 -0.366026,-0.322552 -0.663696,-0.481652 -0.762669,-0.407637 -1.521372,-0.320118 -2.348727,-0.265006 -1.201498,0.08003 -2.405514,0.200245 -3.597026,0.380099 -0.446846,0.06745 -0.884716,0.195754 -1.337709,0.224385 -0.719115,0.04545 -1.445573,0.08801 -2.166469,0.08801 -0.677917,0 -0.949705,-0.164327 -1.605938,0.105422 z"
       id="path13" />
    <path
       style="fill:#ffaaaa"
       d="m 31.078465,22.290982 c -0.270582,-0.250159 -0.411039,-0.329685 -0.718717,-0.196337 -0.231158,0.100185 -0.385002,0.330273 -0.59148,0.46908 -0.507675,0.341287 -1.109397,0.531329 -1.705665,0.646072 -0.376102,0.07238 -0.769133,0.123778 -1.152011,0.147977 -0.01781,0.0011 -0.395511,0.0019 -0.367956,0.04642 0.179406,0.290133 1.809608,0.05408 2.211174,0.03192 0.119605,-0.0066 0.237889,-0.01257 0.357639,-0.01257 0.03395,0 0.149448,-4.88e-4 0.14787,0.0048 -0.01008,0.03402 -1.176495,0.623806 -1.299881,0.676054 -0.01169,0.0049 -0.407664,0.162085 -0.367956,0.201172 0.348997,0.343544 1.96413,0.531895 2.465648,0.562895 1.104812,0.06829 1.770426,-0.596924 2.775144,-0.8279 1.384157,-0.318206 2.855841,0.06895 4.209139,0.353018 0.387052,0.08125 0.766332,0.173617 1.162328,0.202139 1.081521,0.0779 2.170081,-0.147234 3.249704,-0.09865 0.493202,0.02219 0.985834,0.137556 1.468384,0.231154 0.616224,0.119526 1.234052,0.250597 1.843218,0.402344 0.212847,0.05302 0.425419,0.118283 0.629308,0.199238 0.08183,0.03249 0.166381,0.06708 0.244157,0.108324 0.01743,0.0092 0.06892,0.03842 0.05158,0.02901 -0.305317,-0.165607 -0.634819,-0.286147 -0.942242,-0.448769 -0.50291,-0.266031 -0.981905,-0.583455 -1.564672,-0.634466 -0.338632,-0.02964 -0.690939,-0.08129 -1.031652,-0.09575 -0.02818,-0.0012 -0.29574,-0.0018 -0.29574,-0.01741 0,-0.171563 0.299567,-0.297349 0.409222,-0.35592 0.700915,-0.374386 1.904459,-0.471139 2.709805,-0.596746 0.24229,-0.03779 0.484042,-0.08327 0.725595,-0.125733 0.0781,-0.01373 0.1551,-0.02499 0.233842,-0.03385 0.02316,-0.0026 0.08833,1.02e-4 0.06878,-0.01257 -0.329084,-0.213279 -1.623935,0.20929 -2.008282,0.282415 -0.49662,0.09449 -1.004391,0.119234 -1.502773,0.204073 -0.516914,0.08799 -1.01845,0.216267 -1.544039,0.248564 -0.560048,0.03441 -1.101606,-0.203494 -1.564672,-0.494226 -0.129297,-0.08118 -0.244208,-0.154784 -0.364517,-0.24276 -0.06063,-0.04434 -0.260378,-0.135746 -0.185697,-0.127667 0.257744,0.02788 0.508254,0.104798 0.7703,0.122831 0.665139,0.04577 1.328193,-0.07652 1.980771,-0.181829 0.130827,-0.02111 0.266338,-0.02269 0.395467,-0.05416 0.0191,-0.0047 0.06726,0.0098 0.05846,-0.0077 -0.06938,-0.138552 -0.406694,-0.183392 -0.522703,-0.210844 -0.777471,-0.183979 -1.293641,-0.138306 -2.052988,-0.138306 -0.241556,0 -0.867698,-0.08784 -1.06604,0.01257"
       id="path14" />
    <path
       style="fill:#ffaaaa"
       d="m 35.469864,17.026656 c -0.110043,-0.03998 -0.21316,-0.114853 -0.330129,-0.11993 -0.113792,-0.0049 -0.612926,0.254799 -0.753106,0.296922 -0.472574,0.142006 -0.917487,0.181152 -1.413363,0.218582 -0.202738,0.0153 -0.410685,0.0064 -0.612113,-0.01934 -0.07812,-0.01 -0.155974,-0.02343 -0.233841,-0.03482 -0.01483,-0.0022 -0.04979,-0.01894 -0.04471,-0.0048 0.05434,0.150651 0.502453,0.219587 0.612113,0.253399 0.681801,0.210229 1.416775,0.497658 2.145836,0.392673 0.680725,-0.09802 1.315041,-0.398219 2.001405,-0.478751 0.577351,-0.06774 1.183315,-0.01084 1.74693,0.129601 0.16651,0.04149 0.33376,0.08714 0.498632,0.135405 0.02048,0.006 0.276781,0.09967 0.278546,0.09381 0.03571,-0.118495 -0.264866,-0.333744 -0.29574,-0.353985 -0.549895,-0.360513 -1.28621,-0.469892 -1.922312,-0.569665 -0.178454,-0.02799 -0.359405,-0.03966 -0.539897,-0.03966 -0.06195,0 -0.232264,0.03313 -0.185698,-0.0077 0.105115,-0.09224 0.257115,-0.110105 0.38515,-0.166354 0.276939,-0.121666 0.543774,-0.261076 0.794372,-0.430392 0.121592,-0.08215 0.225933,-0.170018 0.340445,-0.258235 0.03089,-0.0238 0.127074,-0.06534 0.08941,-0.07544 -0.272649,-0.07312 -0.656693,-0.01312 -0.91817,0.0068 -0.576439,0.04385 -1.017368,0.135516 -1.495895,0.471981 -0.230377,0.161983 -0.457999,0.338336 -0.722157,0.4449 -0.693131,0.279615 -1.542722,0.179548 -2.273073,0.289185 -0.559553,0.084 -1.07225,0.284967 -1.605938,0.459407 -0.149016,0.04871 -0.297317,0.09497 -0.447049,0.14024 -0.05231,0.01582 -0.184417,0.0083 -0.154748,0.05416 0.08556,0.132356 1.319688,0.302737 1.578428,0.381067 0.361169,0.109338 0.729642,0.204522 1.083234,0.336576 0.01045,0.0039 0.226021,0.07088 0.202892,0.113159 -0.074,0.13529 -0.687861,0.434818 -0.839077,0.512602 -0.141085,0.07257 -0.246498,0.127637 -0.244158,0.130569 0.0143,0.01792 0.03904,0.02829 0.0619,0.02998 0.846396,0.06264 1.821541,-0.214233 2.506915,-0.709905 0.389858,-0.281951 0.642103,-0.664196 1.107306,-0.853047 0.618,-0.250881 1.888821,-0.09754 2.551619,0.05126 0.308123,0.06918 0.586491,0.218762 0.890659,0.293053"
       id="path15" />
    <path
       style="fill:#ffaaaa;fill-opacity:1"
       d="m 19.905676,26.433386 c -0.32576,0.148354 -0.400044,0.254804 -0.515826,0.587075 -0.418531,1.201095 0.06002,2.527912 0.202891,3.731356 0.08665,0.729848 0.15282,1.518714 0.07909,2.249645 -0.07799,0.77321 -0.374534,1.545552 -0.629308,2.274793 -0.194917,0.557912 -0.359604,1.139426 -0.605236,1.678046 -0.09966,0.218535 -0.205662,0.435824 -0.312934,0.650908 -0.02972,0.0596 -0.120973,0.236912 -0.09629,0.175058 0.36083,-0.904125 0.977691,-1.677764 1.406486,-2.547535 0.142703,-0.28946 0.210848,-0.619202 0.392027,-0.8898 0.07849,-0.117222 0.156526,-0.19375 0.254474,-0.289185 0.02209,-0.02152 0.07993,-0.09065 0.06878,-0.0619 -0.06877,0.177287 -0.154215,0.347657 -0.233841,0.52034 -0.520547,1.128898 -1.0623,3.220622 -0.787494,4.506062 0.157344,0.735995 0.562179,1.361977 0.732473,2.088128 0.163119,0.69556 -0.0037,1.442853 -0.278546,2.088127 -0.07943,0.186458 -0.18013,0.366063 -0.278546,0.542585 -0.07857,0.14092 -0.140993,0.212937 -0.140993,0.208909 0,-0.299141 0.253799,-0.69048 0.367956,-0.942994 0.308868,-0.683214 0.789959,-1.801922 0.856271,-2.540765 0.05865,-0.653502 -0.01326,-1.286263 -0.14787,-1.925643 -0.07175,-0.340798 -0.185018,-0.6819 -0.220086,-1.029073 -0.116889,-1.157202 0.311755,-2.442898 0.759984,-3.496332 0.100631,-0.236505 0.246625,-0.457054 0.367956,-0.682825 0.381356,-0.709626 0.784327,-1.399875 1.134817,-2.12488 0.144081,-0.29804 0.283251,-0.599675 0.419538,-0.901406 0.04489,-0.09939 0.09092,-0.199997 0.130676,-0.301758 0.01156,-0.02958 0.07293,-0.0987 0.04471,-0.08414 -0.264563,0.136415 -1.076045,1.010971 -1.293004,1.31729 -0.11967,0.168959 -0.223289,0.42209 -0.38515,0.555158 -0.07552,0.06209 -0.201774,-0.04883 -0.244157,-0.100586 -0.136144,-0.166262 -0.192975,-0.396267 -0.220086,-0.604484 -0.199306,-1.530727 1.12477,-2.51624 1.389291,-3.923823 0.140737,-0.748894 -0.08253,-1.420632 -0.522703,-2.029131 -0.136715,-0.188996 -0.292565,-0.361051 -0.44705,-0.534847 -0.08316,-0.09356 -0.154052,-0.17763 -0.154747,-0.172157 -0.01346,0.105956 0.113423,0.477359 0.120359,0.52034 0.06562,0.40662 0.08481,0.851599 0.0619,1.263129 -0.05371,0.964637 -0.416475,1.412022 -0.787494,2.233204 -0.0097,0.02142 -0.164391,0.605894 -0.306057,0.434261 -0.203075,-0.246034 0.05259,-1.375124 0.168503,-1.660638 0.06693,-0.164846 0.167168,-0.325498 0.244158,-0.486488 0.01519,-0.03176 0.138223,-0.295924 0.0619,-0.328839 -0.07889,-0.03402 -0.253027,0.205927 -0.271668,0.228253 -0.1967,0.235584 -0.207396,0.260052 -0.374834,0.553223 -0.159286,0.278897 -0.1777,0.338893 -0.316373,0.650908 -0.463547,1.04298 -0.584192,2.276448 -0.347323,3.389944 0.0212,0.09965 0.525573,1.339685 0.233841,1.301815 -0.196225,-0.02547 -0.490753,-0.629049 -0.53302,-0.697332 -1.091658,-1.763589 -1.206683,-3.033169 -0.612113,-5.013828 0.144963,-0.48291 0.389209,-0.983749 0.742789,-1.349207 0.0806,-0.08331 0.149049,-0.185751 0.23728,-0.262104 0.0115,-0.01 0.02821,-0.04388 0.03439,-0.02998 0.01854,0.04171 0.02629,0.119706 0.02751,0.159583 0.02651,0.865021 -0.169654,1.756836 -0.01032,2.614271 0.04502,0.242268 0.168531,0.440159 0.237279,0.668316"
       id="path16" />
    <path
       style="fill:#ffaaaa;fill-opacity:1"
       d="m 24.867921,26.990478 c -0.427559,0.01457 -0.540999,0.216944 -0.698084,0.580304 -0.351229,0.81244 -0.126924,1.679193 0.09629,2.495308 0.09527,0.348326 0.216647,0.711013 0.216647,1.076465 0,0.677565 -0.156347,1.401373 -0.426416,2.021393 -0.07166,0.164512 -0.155963,0.320945 -0.23728,0.478751 -0.02859,0.05549 -0.0417,0.106677 -0.09629,0.143141 -0.0089,0.0059 -0.03805,0.01817 -0.02751,0.01644 0.04028,-0.0066 0.554071,-0.154936 0.560531,-0.08318 0.02056,0.228377 -0.141774,0.544595 -0.175381,0.776641 -0.104947,0.724625 -0.121756,1.46262 -0.08597,2.19355 0.02647,0.540657 0.03058,1.100655 0.165064,1.62872 0.143548,0.563666 0.428508,1.118863 0.471121,1.705127 0.05871,0.80768 -0.138697,1.56102 -0.374833,2.327987 -0.01786,0.05799 -0.307074,0.872391 -0.216647,0.872391 0.150806,0 0.394377,-0.495149 0.495193,-0.606418 0.105906,-0.116889 0.22969,-0.202947 0.367956,-0.277579 0.232899,-0.125713 1.238943,-0.431536 1.248298,-0.457473 0.01592,-0.04414 0.02613,-0.249356 0.02751,-0.257268 0.09086,-0.518952 0.06878,-1.001543 0.06878,-1.523299 0,-0.382415 0.133769,-0.814526 0,-1.186722 -0.08271,-0.230129 -0.243888,-0.434766 -0.374834,-0.638335 -0.300088,-0.466517 -0.532176,-0.970576 -0.577725,-1.531035 -0.05707,-0.702299 0.24398,-1.564449 0.567409,-2.188714 0.101292,-0.195508 0.21854,-0.390606 0.340445,-0.574501 0.01119,-0.01688 0.04287,-0.04096 0.02751,-0.05416 -0.01887,-0.01622 -0.04408,-0.02597 -0.06878,-0.02902 -0.336337,-0.04153 -0.59281,0.448819 -0.698085,0.68766 -0.01293,0.02934 -0.09723,0.321875 -0.151308,0.301758 -0.02831,-0.01053 -0.04781,-0.03726 -0.06878,-0.059 -0.107547,-0.111485 -0.158668,-0.290646 -0.199453,-0.434261 -0.301172,-1.060501 0.413744,-2.26399 1.169205,-2.968256 0.233276,-0.217467 0.500189,-0.400128 0.787495,-0.537749 0.01491,-0.0071 0.427018,-0.180368 0.398905,-0.221483 -0.05324,-0.07787 -0.114336,-0.08718 -0.199453,-0.100586 -0.617033,-0.09718 -1.16314,1.074398 -1.623132,0.717643 -0.144473,-0.112049 -0.216861,-0.27633 -0.23728,-0.456506 -0.0134,-0.118237 -0.01258,-0.19406 0.01032,-0.307561 0.226894,-1.124724 1.428655,-1.424213 1.475262,-2.52529 0.0089,-0.211213 -0.02721,-0.428834 -0.113482,-0.621893 -0.03625,-0.08111 -0.130529,-0.169926 -0.140992,-0.26017 -0.02174,-0.187511 -0.01904,-0.379338 -0.0447,-0.567731 -0.01893,-0.138944 -0.0432,-0.281647 -0.06878,-0.419753 -0.01119,-0.06045 3.54e-4,-0.220748 -0.04471,-0.178927 -0.104878,0.09734 -0.12688,0.829508 -0.154748,0.982648 -0.122277,0.671936 -0.295244,1.340689 -0.708401,1.896628 -0.150939,0.203102 -0.312279,0.394407 -0.436732,0.616089 -0.04403,0.07844 -0.0983,0.167855 -0.123798,0.255334 -0.0055,0.01897 -0.0158,0.07211 -0.02407,0.05416 -0.137162,-0.297592 -0.09623,-0.593985 -0.05158,-0.906242 0.145583,-1.018169 1.183971,-1.85162 0.845955,-2.923766 -0.03669,-0.116388 -0.0916,-0.307117 -0.192575,-0.390738 -0.246924,-0.204483 -0.453024,0.725973 -0.498632,0.865621 -0.128898,0.394674 -0.230796,0.734201 -0.29574,1.151903 -0.05122,0.329467 -0.222313,1.5747 -0.577725,1.751552 -0.119307,0.05937 -0.292714,-0.395812 -0.312935,-0.4449 -0.153309,-0.372179 -0.430454,-1.341628 -0.323251,-1.766059 0.01944,-0.07694 0.252585,-0.743721 0.306057,-0.727315 0.116656,0.03579 0.156334,0.2608 0.175381,0.319168 0.109854,0.336644 0.123996,0.681916 0.199453,1.024237 0.04543,0.20611 0.117661,0.406444 0.165064,0.612221 0.07802,0.338702 0.09107,0.685386 0.192575,1.019401"
       id="path17" />
    <path
       style="fill:#ffaaaa;fill-opacity:1"
       d="m 21.425643,33.039182 c -0.05273,0.132503 -0.125989,0.258582 -0.158187,0.397509 -0.06545,0.282397 0.124167,0.920015 0.168503,1.231212 0.136858,0.96061 0.257293,1.947252 0.09629,2.915061 -0.136161,0.818467 -0.410157,1.618267 -0.47456,2.446949 -0.08821,1.134948 0.127059,2.282049 0.264791,3.405419 0.05267,0.42955 0.11356,0.843111 0.130675,1.274734 0.0068,0.170699 0.0076,0.414201 0.0172,0.410082 0.08785,-0.03789 0.101808,-0.392038 0.113481,-0.481652 0.09173,-0.704256 0.168754,-1.408147 0.323251,-2.102636 0.293626,-1.319892 0.707722,-2.587368 1.152012,-3.861924 0.179677,-0.515451 0.45724,-0.99915 0.612113,-1.523299 0.278199,-0.941529 0.09209,-1.933224 0.233841,-2.886046 0.06575,-0.441976 0.44111,-0.765608 0.515826,-1.196394 0.05262,-0.303401 -0.272839,-1.338849 -0.347323,-1.582296 -0.328482,-1.073631 -0.870594,-2.066073 -1.110745,-3.16846 -0.108866,-0.499741 -0.150177,-0.993889 -0.130676,-1.503955 0.0067,-0.173938 0.0286,-0.345423 0.04471,-0.518406 0.0034,-0.03704 0.0394,-0.140098 0.01719,-0.110257 -0.342038,0.459613 -0.419246,1.103046 -0.560531,1.641293 -0.126687,0.482638 -0.291081,0.947305 -0.357639,1.443991 -0.09478,0.707323 -0.02869,1.406947 -0.05158,2.115208 -0.01699,0.525595 -0.158187,1.052645 -0.158187,1.574559"
       id="path18" />
    <path
       style="fill:#ffaaaa;fill-opacity:1"
       d="M 15.871917,14.351453 C 15.916279,13.39609 15.175505,12.494103 14.307245,12.167575 13.511011,11.868134 12.903137,11.919481 12.271452,11.214909 12.042676,10.959736 11.924,10.690339 11.810647,10.371534 11.804144,10.353242 11.681,9.9415895 11.635266,9.9740254 11.526283,10.051321 11.412252,10.651262 11.380792,10.7526 c -0.130598,0.420685 -0.554562,1.329266 -0.481437,1.859875 0.05629,0.408441 0.305432,0.715082 0.515826,1.054219 0.248354,0.400325 0.460562,0.823352 0.725595,1.212836 0.390477,0.573833 1.330149,1.0045 1.911995,1.376288 0.508102,0.324668 1.068694,0.644715 1.440873,1.13256 0.140524,0.184196 0.245317,0.373198 0.333568,0.584173 0.02731,0.0653 0.0549,0.138645 0.07909,0.206008 0.0078,0.02162 0.03087,0.08519 0.01719,0.06674 -0.108645,-0.14667 -0.198742,-0.339742 -0.288862,-0.499061 -0.0089,-0.01566 -0.03354,-0.02948 -0.02751,-0.04642 0.02705,-0.07608 0.06413,-0.08311 0.03783,-0.201172 -0.07122,-0.319678 -0.201818,-0.609979 -0.350761,-0.899471 -0.235857,-0.458421 -0.475691,-0.881285 -0.839077,-1.250556 -0.651712,-0.662266 -1.604725,-1.188879 -1.929189,-2.115208 -0.387163,-1.105333 0.327125,-2.066264 0.653379,-3.075613 0.22546,-0.6975163 0.106912,-1.7180368 0.0172,-2.4343757 -0.02724,-0.2174665 -0.05931,-0.4343238 -0.09285,-0.6509078 -0.01326,-0.085638 -0.04489,-0.1688885 -0.05502,-0.2553339 -0.0013,-0.011207 -0.0027,-0.044815 0,-0.033851 0.248613,1.0226183 0.26424,2.0762953 0.612113,3.0775465 0.104887,0.3018869 0.243423,0.5312649 0.38515,0.8201629 0.214454,0.437148 0.406449,0.890133 0.68089,1.295046 0.297199,0.43849 0.657983,0.817571 0.993825,1.223474 0.156378,0.189002 0.337599,0.363795 0.481437,0.562896 0.270763,0.374787 0.608956,1.056377 0.804689,1.485578 0.09888,0.216816 0.19252,0.445513 0.254474,0.676055 0.03839,0.142867 0.09733,0.313637 0.09285,0.311429 -0.05587,-0.0275 -0.484144,-0.415363 -0.50551,-0.402344 -0.07569,0.04613 0,0.523486 0,0.623827 0,0.01696 -0.0109,0.245994 -0.02407,0.240826 -0.285883,-0.112143 -0.598387,-0.549796 -0.759983,-0.794049 -0.120955,-0.182823 -0.229217,-0.373981 -0.333568,-0.566764 -0.07921,-0.146337 -0.144353,-0.299861 -0.216646,-0.449736 -0.262734,-0.544687 -0.558774,-1.006695 -0.894099,-1.505889 -0.118623,-0.176592 -0.207503,-0.375322 -0.347323,-0.537748 -0.124245,-0.144335 -0.293753,-0.240246 -0.41266,-0.390739 -0.10462,-0.132408 -0.276198,-0.317032 -0.182259,-0.481652"
       id="path19" />
    <path
       style="fill:#ffaaaa;fill-opacity:1"
       d="m 3.7040084,24.854694 c 0.081747,0.01193 -0.1422719,0.12338 -0.1076284,0.186115 0.2420182,0.438265 0.9457785,0.650274 1.410442,0.63492 0.3383933,-0.01118 0.6948845,-0.214814 0.9899149,-0.342464 0.7188303,-0.311015 1.3832998,-0.60216 2.1733601,-0.649743 0.5198269,-0.03131 1.0487745,-0.04303 1.5660381,0.03222 0.5048339,0.07344 0.9910019,0.247006 1.4895559,0.350375 0.822436,0.170521 1.682529,0.258084 2.522772,0.275126 0.619903,0.01257 1.244882,0.01482 1.838821,-0.182322 0.421051,-0.139756 0.84671,-0.405799 1.298374,-0.432212 0.06587,-0.0039 0.775567,0.0536 0.774795,0.03678 -0.0064,-0.138452 -0.660575,-0.477936 -0.754208,-0.539706 -0.143954,-0.09497 -0.297336,-0.192675 -0.418985,-0.316305 -0.107594,-0.109347 -0.249699,-0.428771 -0.428468,-0.461875 -0.138637,-0.02567 -0.804802,0.455716 -1.058385,0.518208 -0.244952,0.06036 -0.504613,0.06111 -0.7543,0.09284 -0.533102,0.06774 -1.035907,0.120274 -1.573056,0.05966 -0.488769,-0.05515 -0.995401,-0.164576 -1.428102,-0.406432 -0.976292,-0.545694 -1.206319,-1.027034 -2.4359758,-0.866752 -0.4224689,0.05507 -0.8246157,0.190248 -1.2356125,0.295637 -0.7592325,0.194683 -1.5518457,0.429324 -2.3373496,0.479408 -0.3421305,0.02181 -0.6622646,-0.09837 -0.9916277,-0.170392 -0.00418,-9.14e-4 -0.3989106,-0.05614 -0.391364,-0.0329 0.1138614,0.350696 0.6048891,0.562014 0.8916871,0.760801 0.023928,0.01658 0.1551556,0.08619 0.153744,0.133332 -0.003,0.100087 -0.043428,0.122226 -0.1504132,0.185603 C 4.0538083,24.90587 3.2945834,24.273327 2.795082,23.854504 2.758338,23.823694 2.5578104,23.61264 2.4837004,23.646353 c -0.1684962,0.07665 0.213529,0.704002 0.2989591,0.798133 0.4370443,0.481554 1.4005484,0.878133 2.0078712,1.070067 0.3025538,0.09562 1.1441164,0.383192 1.4867439,0.325951"
       id="path20" />
    <path
       style="fill:#ffaaaa;fill-opacity:1"
       d="m 5.6045753,23.424573 c -0.092023,0.01109 -0.1833991,0.03136 -0.2760681,0.03327 C 4.6378655,23.472074 3.728061,22.577759 3.3540669,22.049837 3.09928,21.690185 2.8832485,21.301966 2.5509209,21.004017 c -0.1380335,-0.123754 -0.3093281,-0.25719 -0.4961285,-0.2948 -0.098767,-0.01989 -0.2162443,0.01303 -0.3103381,0.04326 -0.032039,0.01029 -0.1239398,0.01582 -0.095262,0.03343 0.069961,0.04296 0.159984,0.03695 0.2399192,0.05567 0.2525178,0.05913 0.7567851,0.17345 1.0229478,0.243686 0.3071011,0.08104 0.6077872,0.183367 0.9200003,0.243864 1.3163994,0.255079 2.6755991,0.312266 4.0137115,0.357173 0.7532878,0.02528 1.5144372,-0.207564 2.2244439,-0.433877 0.325504,-0.103754 1.073262,-0.438909 1.408463,-0.371528 0.475246,0.09553 0.710853,0.507454 1.069157,0.785854 0.36481,0.283455 0.838767,0.290715 1.278651,0.244481 0.934719,-0.09824 1.827159,-0.465739 2.73993,-0.666851 0.262111,-0.05775 0.530114,-0.077 0.79653,-0.105004 0.01032,-0.0011 0.123418,-0.01278 0.120633,0.0086 -0.03382,0.259587 -0.756769,0.795357 -0.94686,0.970076 -0.368208,0.338431 -0.874053,1.035645 -1.392598,1.114835 -0.245647,0.03751 -0.485311,-0.0141 -0.711935,-0.103966 -0.09249,-0.03668 -0.277329,-0.156031 -0.386352,-0.144573 -0.208904,0.02196 -9.03e-4,0.970581 0.0312,1.122698 0.01404,0.06654 0.02577,0.133606 0.0396,0.200174 0.0023,0.0111 0.01782,0.03287 0.0065,0.03337 -0.09614,0.0042 -0.345321,-0.181316 -0.410233,-0.212303 -0.20995,-0.100223 -0.44194,-0.174706 -0.666152,-0.232232 -0.404626,-0.103815 -0.817997,-0.183098 -1.216755,-0.310585 -0.325265,-0.10399 -0.643011,-0.230653 -0.967481,-0.336784 C 10.554083,23.1478 10.236862,23.083641 9.9261613,22.99164 9.6489718,22.90956 9.3795283,22.802019 9.0967523,22.738254 8.2510486,22.547553 7.4355429,22.729954 6.5856591,22.791464 6.252947,22.815544 5.9431533,22.844284 5.6134026,22.768074 4.5936607,22.53239 3.4925893,21.583943 2.8807225,20.758632 2.6595886,20.460358 2.4350664,20.165703 2.2085905,19.871451 c -0.060918,-0.07915 -0.1218,-0.157552 -0.1762041,-0.241157 -0.023244,-0.03572 -0.047773,-0.06869 -0.068569,-0.105604 -0.00305,-0.0054 -0.010586,-0.02214 -0.00947,-0.01603 0.1795935,0.979852 0.9757419,1.70035 1.6629635,2.351745 0.2338369,0.221647 0.4807869,0.426854 0.6963384,0.66753 0.2217683,0.247618 0.4106458,0.52876 0.6948427,0.710257 0.3369019,0.215157 0.9745994,0.26132 1.3629258,0.305865 0.5708102,0.06548 1.2839619,0.12938 1.8537128,0.02014 0.4749354,-0.09106 0.8572178,-0.864081 1.3778958,-0.981323 0.4565176,-0.102795 1.2531426,0.01802 1.6963676,0.226119 0.135414,0.06358 0.264193,0.137918 0.402542,0.196084 0.04955,0.02083 0.100098,0.03316 0.15111,0.04797 0.01317,0.0038 0.04319,0.02601 0.03907,0.01292 -0.0067,-0.02118 -0.02426,-0.03718 -0.03639,-0.05577"
       id="path21" />
    <path
       style="fill:#ffaaaa;fill-opacity:1"
       d="m 3.5935273,27.073471 c 0.4569542,1.046365 1.145394,1.913591 2.4149053,1.725688 0.5412365,-0.08011 1.0399873,-0.367762 1.5655629,-0.511493 0.8483773,-0.232008 1.7299199,-0.268374 2.6042515,-0.203477 0.388632,0.02885 0.77338,0.111859 1.160118,0.159028 1.285815,0.156827 2.60832,0.277682 3.904372,0.228184 0.506769,-0.01935 1.019689,-0.05641 1.509496,-0.190582 0.01419,-0.0039 0.317503,-0.08548 0.318125,-0.08878 0.03092,-0.16416 -0.270217,-0.748288 -0.330783,-0.931572 -0.09044,-0.273684 -0.126375,-0.558018 -0.149787,-0.844171 -0.0063,-0.07658 0.01123,-0.386711 -0.02308,-0.453074 -0.01763,-0.03411 -0.111145,0.06305 -0.263019,0.174511 -0.245043,0.179832 -0.473427,0.3381 -0.741749,0.478119 -0.782743,0.408462 -1.723296,0.651658 -2.598489,0.434878 -0.617982,-0.15307 -1.114095,-0.502067 -1.673223,-0.786219 -0.498492,-0.253337 -1.015543,-0.448872 -1.5247984,-0.678366 -0.478861,-0.215796 -0.9979591,-0.555704 -1.5439998,-0.382615 -0.3383461,0.107252 -0.5670083,0.419755 -0.8426766,0.622822 -0.093731,0.06905 -0.1794376,0.154936 -0.287451,0.198364 -0.4657438,0.187259 -1.1083264,0.213269 -1.5771613,0.04231 -0.074598,-0.0272 -0.5778124,-0.289019 -0.6270194,-0.178875 -0.039967,0.08946 0.055473,0.150502 0.1161992,0.194252 0.4066284,0.292953 0.8408569,0.50643 1.3283956,0.62664 0.064668,0.01594 0.1297033,0.03036 0.194555,0.04554 0.085473,0.02153 0.1708515,0.04343 0.2564202,0.06457 0.011845,0.0029 0.1136809,0.04162 0.1080367,0.04824 -0.3533264,0.414708 -1.845415,0.60133 -2.3591733,0.524664 -0.086665,-0.01293 -0.8340447,-0.209731 -0.8902764,-0.166105 -0.1477865,0.114657 0.4424704,0.810861 0.5588914,0.90334 0.059686,0.04741 0.1341287,0.07246 0.2011931,0.108693"
       id="path22" />
    <path
       style="fill:#ffaaaa;fill-opacity:1"
       d="m 9.5634293,35.528318 c -0.7825826,0.415781 0.023051,1.594447 0.5995707,1.797292 0.608842,0.214218 1.444678,0.02655 1.999838,-0.26979 0.572727,-0.305713 0.638118,-0.798923 0.800543,-1.382525 0.118822,-0.426932 0.251057,-0.865382 0.438446,-1.267842 0.28364,-0.609178 0.984187,-0.952055 1.530463,-1.27832 0.663724,-0.396412 1.360131,-0.746767 1.994841,-1.188777 0.05111,-0.03559 0.693674,-0.522424 0.69205,-0.575063 -0.0053,-0.171349 -0.445033,-0.492709 -0.495893,-0.537474 -0.129576,-0.114048 -0.266784,-0.213658 -0.410717,-0.308034 -0.299367,-0.196295 -0.226227,-0.28124 -0.650394,-0.0083 -0.583369,0.375428 -1.056338,0.872747 -1.546773,1.356661 -0.291513,0.287637 -0.592401,0.685312 -0.969914,0.87033 -0.267837,0.131266 -0.566021,0.105556 -0.854921,0.09624 -0.453683,-0.01463 -0.905036,0.02352 -1.299187,0.266388 -0.286671,0.176638 -0.469081,0.398549 -0.679054,0.658838 -0.234932,0.291228 -0.454149,0.741108 -0.8267107,0.882949 -0.4428342,0.168596 -1.4504852,-0.06193 -1.9789861,-0.08999 -0.042131,-0.0022 -0.4041545,-0.04309 -0.4368139,0.02463 -0.1052397,0.218213 0.5535135,0.830039 0.6433281,0.926393 0.4372049,0.469038 0.540385,0.110673 1.1136905,0.01917 0.9372731,-0.149594 -0.2359328,0.234144 0.5980699,-0.199084 0.065482,-0.03402 0.5577172,-0.119059 0.5913832,-0.126012 0.315405,-0.06514 0.620544,-0.131991 0.923874,-0.237584 0.392222,-0.136538 0.799066,-0.348135 1.14107,-0.586073 0.09303,-0.06472 0.175607,-0.147115 0.261112,-0.221137 0.01208,-0.01046 0.207541,-0.147033 0.207194,-0.113303 -0.0054,0.525489 -0.416002,1.166048 -0.725934,1.568378 -0.554324,0.719579 -1.171514,1.343407 -2.120321,1.487183 -0.4208452,0.06377 -0.8953323,0.02243 -1.2980449,0.174743 -0.024434,0.0092 -0.2985977,0.116843 -0.2950644,0.171494 0.00439,0.06792 0.1237283,0.06317 0.1912893,0.07142 0.6161484,0.07521 1.1837867,-0.0197 1.768913,-0.22849 0.72074,-0.257184 1.48924,-0.655015 2.038806,-1.197654 0.339726,-0.335444 0.556693,-0.764884 0.910121,-1.091796 0.400271,-0.370241 0.853603,-0.670688 1.247886,-1.05067 0.14709,-0.141755 0.305215,-0.266249 0.419126,-0.437825"
       id="path23" />
    <path
       style="fill:#ffaaaa;fill-opacity:1"
       d="m 28.964684,36.90898 c 0.458755,0.512507 0.731107,0.949059 1.447391,1.069632 0.326817,0.05501 0.629689,-0.01204 0.95023,-0.05517 0.706299,-0.09504 1.474996,-0.13369 2.154451,0.124761 0.851764,0.323994 1.956482,1.867395 2.50288,2.608283 0.03396,0.04605 0.522227,0.697679 0.542907,0.694299 0.06754,-0.01104 0.19261,-0.225162 0.212572,-0.250092 0.230076,-0.287337 0.453973,-0.580304 0.686012,-0.866033 0.184672,-0.227403 0.40072,-0.418048 0.609323,-0.621709 0.0062,-0.006 0.08472,-0.0856 0.08218,-0.08952 -0.05018,-0.07747 -0.609179,-0.351628 -0.616964,-0.356598 -0.231043,-0.147504 -0.432323,-0.357477 -0.595718,-0.575937 -0.369022,-0.493387 -0.50863,-1.385037 -1.042031,-1.712474 -0.351621,-0.215849 -1.269495,0.03566 -1.701776,-0.0042 -0.819443,-0.07553 -1.461279,-0.795423 -2.006439,-1.336535 -0.391516,-0.388609 -0.726289,-0.858514 -1.056759,-1.300126 -0.105082,-0.140422 -0.176692,-0.310876 -0.203123,-0.297925 -0.09544,0.04676 -0.07399,0.394252 -0.08773,0.49239 -0.02689,0.19205 -0.534796,0.535385 -0.478925,0.637803 0.158997,0.291459 0.561448,0.577546 0.806264,0.813485 0.132107,0.127317 0.397709,0.243079 0.168075,0.41442 -0.09854,0.07352 -0.206714,0.129884 -0.32681,0.159931 -0.182089,0.04556 -0.373588,0.0621 -0.560641,0.04828 -0.824487,-0.06092 -1.233748,-0.764311 -1.632076,-1.397166 -0.0857,-0.136157 -0.27423,-0.522822 -0.41505,-0.605569 -0.205021,-0.120473 -0.40127,0.39861 -0.456404,0.37363 -0.06481,-0.02936 -0.123967,-0.141083 -0.159344,-0.200359 -0.01345,-0.02253 -0.03048,-0.08851 -0.04342,-0.06568 -0.04112,0.07252 -0.332143,1.098301 -0.301192,1.155505 0.162491,0.300319 0.779971,0.590729 1.046968,0.745616 0.126999,0.07108 0.253999,0.142165 0.380999,0.213247 0.03138,0.06127 0.03756,0.144609 0.09415,0.183798 0.08771,0.06074 0.210259,0.04661 0.306144,0.0934 0.158539,0.07736 0.321662,0.422418 0.465618,0.551298 0.303403,0.271628 1.399135,0.607075 1.748196,0.371796"
       id="path24" />
    <path
       style="fill:#ffaaaa;fill-opacity:1"
       d="m 36.795453,40.73032 c 0.371754,0.194554 0.800478,0.14376 1.18715,0.313697 0.113386,0.04983 0.21362,0.114315 0.319732,0.177116 0.0036,0.0021 0.122723,0.07268 0.123868,0.06786 0.02782,-0.117046 -0.834779,-0.874671 -0.930101,-0.966492 -0.08742,-0.08421 -0.169782,-0.171112 -0.251317,-0.260934 -0.03059,-0.0337 -0.06234,-0.06782 -0.09536,-0.09853 -0.0076,-0.007 -0.02999,-0.02733 -0.02042,-0.0234 0.110871,0.0455 0.241353,0.14649 0.337189,0.200824 0.365982,0.207489 0.700565,0.299591 1.123437,0.288465 0.270092,-0.0071 0.544712,0.0013 0.813156,-0.03225 0.07899,-0.0099 0.156551,-0.02639 0.234699,-0.03957 0.0265,-0.0045 0.100327,-0.03141 0.07927,-0.01472 -0.113644,0.09011 -0.471564,-0.09443 -0.559688,-0.130611 -0.490029,-0.20122 -0.894587,-0.567428 -1.386444,-0.763148 -0.237572,-0.09454 -0.616284,-0.09526 -0.820384,-0.241563"
       id="path25" />
    <path
       style="fill:#ffaaaa;fill-opacity:1"
       d="m 30.28974,32.634035 c 0.367293,0.468166 0.823029,0.787011 1.387704,0.963095 0.635556,0.198189 1.299646,0.191647 1.949229,0.308097 0.484708,0.08689 0.992689,0.253893 1.445693,0.444031 0.616549,0.258782 1.251678,0.612915 1.755648,1.052133 0.322444,0.281015 0.571991,0.631136 0.921843,0.88222 0.660588,0.474096 1.38747,0.871906 2.155344,1.135704 0.240302,0.08255 0.456896,0.169998 0.657974,0.331003 0.05146,0.04121 0.09826,0.08649 0.151379,0.12457 0.01982,0.01421 0.05717,0.07384 0.05371,0.0497 -0.02327,-0.162518 -0.08951,-0.315777 -0.132972,-0.473451 -0.08593,-0.31174 -0.04675,-0.639944 0.06036,-0.940756 0.07517,-0.211125 0.223379,-0.393141 0.324523,-0.591776 0.0023,-0.0045 0.02907,-0.04247 0.02696,-0.0454 -0.04585,-0.06352 -0.932606,-0.545318 -1.06344,-0.628946 -0.381591,-0.24391 -0.822822,-0.446683 -1.147983,-0.766926 -0.104087,-0.102513 -0.131668,-0.132563 -0.21935,-0.247265 -0.04418,-0.05779 -0.08664,-0.11688 -0.129231,-0.175854 -0.01063,-0.01472 -0.04374,-0.05696 -0.02937,-0.04587 0.194803,0.15036 0.332677,0.317442 0.517371,0.496904 0.375304,0.364672 0.784082,0.752939 1.22804,1.033088 0.314619,0.198533 0.765155,0.318357 1.097108,0.442357 0.327994,0.122522 0.642719,0.280195 0.950345,0.447139 0.126533,0.06867 0.258891,0.127767 0.367302,0.225329 0.08784,0.07905 0.163862,0.216598 0.261819,0.281114 0.02715,0.01788 0.05597,0.0012 0.07927,-0.01472 0.134368,-0.09194 0.231606,-0.255537 0.334216,-0.379944 0.329803,-0.399858 0.637707,-0.796719 0.918017,-1.233107 0.0049,-0.0076 0.17643,-0.2865 0.152567,-0.296997 -0.126441,-0.05562 -0.337707,-0.03171 -0.470683,-0.0527 -0.188518,-0.02975 -0.377116,-0.05983 -0.564066,-0.09822 -0.413319,-0.08488 -0.84706,-0.267088 -1.190707,-0.507016 -0.350706,-0.244857 -0.542106,-0.598204 -0.818069,-0.914413 -0.331541,-0.379892 -0.744832,-0.717518 -1.220984,-0.897606 -0.308917,-0.116837 -0.631821,-0.197056 -0.95982,-0.235422 -0.785098,-0.09183 -1.629716,-0.0058 -2.336258,-0.424927 -0.472942,-0.28057 -0.896618,-0.620995 -1.342789,-0.940145 -0.495822,-0.354666 -0.988524,-0.694645 -1.450047,-1.094895 -0.415575,-0.360403 -0.833578,-0.717797 -1.261185,-1.063661 -0.06581,-0.05323 -0.326622,-0.299602 -0.426111,-0.306417 -0.06793,-0.0047 -0.08162,0.215781 -0.09068,0.247923 -0.132154,0.468932 -0.438388,0.997746 -0.04699,1.409749 0.226841,0.238779 0.530754,0.412233 0.800274,0.597007 0.350614,0.240371 0.705914,0.476229 1.048158,0.728464 0.09312,0.06863 0.384651,0.2189 0.279617,0.387797 -0.147427,0.237064 -0.56681,0.205222 -0.799294,0.175534 -0.999113,-0.127585 -1.946233,-0.608727 -2.671575,-1.30281 -0.31498,-0.301405 -0.590805,-0.638587 -0.88829,-0.955987 -0.05261,-0.05613 -0.531541,-0.545979 -0.555174,-0.537629 -0.156491,0.05529 -0.387726,1.130574 -0.471336,1.347924 -0.01927,0.0501 -0.124502,0.214255 -0.07618,0.271941 0.157923,0.188524 0.465401,0.31822 0.676514,0.43335 0.512158,0.279306 1.011243,0.533246 1.448703,0.922628 0.02486,0.02213 0.517123,0.456417 0.444776,0.472606 -0.227431,0.05089 -0.634485,-0.205237 -0.830868,-0.31283 -0.590763,-0.323664 -1.169164,-0.674533 -1.689835,-1.103748 -0.03434,-0.0283 -0.504306,-0.439475 -0.552618,-0.239908 -0.04087,0.168829 0.123575,0.432127 0.190292,0.580237 0.282729,0.627648 0.495532,0.766398 1.157371,1.004331 0.333287,0.119818 0.668644,0.232372 1.007002,0.336888 0.346326,0.106978 0.687908,0.225625 1.017349,0.378371 0.220918,0.102429 0.442532,0.254013 0.681814,0.307211 0.238205,0.05296 0.507321,0.01012 0.750303,0.01905 0.388159,0.01427 0.767315,0.05749 1.156609,0.0402"
       id="path26" />
    <path
       style="fill:#ffaaaa;fill-opacity:1"
       d="m 28.50342,14.425159 c -0.07279,0.03461 -0.158843,0.04949 -0.218366,0.103834 -0.199941,0.182539 -0.380096,1.109751 -0.418364,1.401955 -0.0116,0.0886 -0.04082,0.239401 -0.0039,0.253698 0.134323,0.05196 0.550468,-0.114324 0.697225,-0.149907 0.505459,-0.122554 1.026226,-0.197546 1.525759,-0.343415 0.676069,-0.197419 1.235174,-0.519254 1.703121,-1.053819 0.280685,-0.320644 0.422529,-0.75054 0.630446,-1.115613 0.123241,-0.216392 0.305407,-0.478135 0.4517,-0.668997 0.304469,-0.397227 0.670725,-0.78863 1.078193,-1.081791 0.205056,-0.147531 0.428636,-0.269138 0.639591,-0.407783 0.196438,-0.129105 0.383785,-0.280642 0.588149,-0.395992 0.13484,-0.07611 0.0515,-0.243032 -0.03311,-0.343466 -0.130285,-0.154647 -0.325368,-0.31045 -0.528227,-0.355281 -0.100481,-0.02221 -0.199076,-0.02833 -0.292532,-0.07781 -0.195963,-0.103747 -0.373617,-0.2449518 -0.55605,-0.3693857 -0.05665,-0.038643 -0.265231,-0.2437003 -0.357399,-0.1880569 -0.117205,0.070759 -0.374008,0.4043316 -0.474073,0.5244826 -0.270997,0.325396 -0.536739,0.641659 -0.784265,0.984914 -0.201539,0.279482 -0.424362,0.55377 -0.642256,0.820992 -0.09042,0.110894 -0.211307,0.201257 -0.284833,0.325799 -0.284993,0.482741 -0.409662,1.044942 -0.824102,1.448857 -0.127911,0.124663 -0.275336,0.242887 -0.433814,0.326557 -0.0825,0.04356 -0.750405,0.218766 -0.875519,0.162262 -0.07308,-0.03301 -0.23649,-0.279971 -0.331848,-0.235441 -0.259197,0.121039 -0.164802,0.262906 -0.255564,0.433404 -0.121963,0.229109 -0.289349,0.37552 -0.390324,0.609335"
       id="path27" />
    <path
       style="fill:#ffaaaa;fill-opacity:1"
       d="m 29.633652,12.084213 c -0.01984,-0.04829 -0.01124,-0.164709 -0.05953,-0.144867 -0.04829,0.01984 0.07565,0.09521 0.05953,0.144867 -0.09869,0.303838 -0.25534,0.248689 -0.214662,0.503603 0.04249,0.266265 0.398783,0.490413 0.592805,0.650741 0.01603,0.01325 0.170969,0.114756 0.192539,0.0947 0.07766,-0.0722 0.04848,-0.528022 0.08661,-0.679581 0.101291,-0.402533 0.34857,-0.799422 0.590932,-1.132745 0.274064,-0.376922 0.692616,-0.592957 1.005758,-0.933695 0.619238,-0.6738122 1.004944,-1.4635395 1.135124,-2.3627459 0.06941,-0.479445 0.09357,-0.9721061 0.19339,-1.4464212 0.03384,-0.1607727 0.0798,-0.3197984 0.162766,-0.4619639 0.0243,-0.041646 0.04711,-0.081897 0.07531,-0.120726 0.0054,-0.00737 0.02857,-0.017867 0.01955,-0.019082 C 33.172017,6.135642 32.867491,6.139992 32.566523,6.082216 32.504273,6.070266 32.243071,5.9533334 32.1652,5.994558 32.012835,6.075221 31.849026,6.6219722 31.800652,6.7523066 31.691994,7.045064 31.596208,7.3432601 31.525383,7.6475381 c -0.04163,0.1788502 -0.06702,0.370257 -0.120315,0.5468991 -0.07938,0.2631202 -0.197675,0.5266622 -0.316744,0.7740092 -0.215785,0.4482565 -0.586471,0.7235972 -0.992457,0.9918959 -0.223008,0.1473767 -0.501959,0.3185357 -0.634096,0.5625867 -0.165588,0.305834 0.05291,0.747149 0.116113,1.047789 0.07317,0.348076 0.06268,0.698918 0.09954,1.049532"
       id="path28" />
    <path
       style="fill:#ffaaaa;fill-opacity:1"
       d="m 22.735806,11.138333 c -0.0023,0.01779 -0.01284,0.431666 0,0 z"
       id="path29" />
    <path
       style="fill:#d35f5f;fill-opacity:1"
       d="m 7.7257657,26.92369 c -0.022082,0.07469 -0.1170871,0.165067 -0.066245,0.22407 0.3209271,0.372441 1.7026149,-0.04106 2.1316473,-0.05802 0.703135,-0.02779 1.456734,0.189308 2.122378,0.400579 0.24695,0.07838 0.495161,0.152881 0.742975,0.228414 0.07382,0.0225 0.147467,0.04339 0.220302,0.06837 0.02698,0.0093 0.09717,0.04943 0.0817,0.02547 -0.100728,-0.155994 -0.389559,-0.256389 -0.537264,-0.333046 -0.394694,-0.204843 -0.789255,-0.3858 -1.230169,-0.466685 -0.387787,-0.07114 -0.783746,-0.08232 -1.168922,-0.168745 -0.44232,-0.09924 -0.8820187,-0.44077 -1.35314,-0.349463 -0.3403566,0.06596 -0.4975888,0.317432 -0.7360189,0.390248 -0.067216,0.02053 -0.1464033,0.0036 -0.207241,0.03881 -0.090338,0.05225 -0.1479283,0.147775 -0.2289889,0.213504 -0.083668,0.06784 -0.2397118,0.107828 -0.3451531,0.127803"
       id="path30" />
    <path
       style="fill:#d35f5f;fill-opacity:1"
       d="m 6.9562356,24.192822 c 0.091026,0.01739 0.1804884,0.05613 0.2730768,0.05218 0.362935,-0.01548 0.6755978,-0.312131 1.0260637,-0.393063 0.4879367,-0.112677 1.0207707,0.02577 1.4933147,0.145293 0.2125612,0.05376 0.4194572,0.119277 0.6256082,0.193923 0.06532,0.02365 0.126784,0.04328 0.193735,0.06052 0.02757,0.0071 0.105788,0.03133 0.08451,0.0124 -0.186285,-0.165732 -0.7569021,-0.262057 -0.9857708,-0.311449 -0.6567939,-0.14174 -1.2344885,-0.220777 -1.881099,-0.01301 -0.2012246,0.06466 -0.4025571,0.179529 -0.6072567,0.225591 -0.072811,0.01638 -0.1498925,0.0091 -0.2221869,0.02761 -0.3710346,0.09511 -0.1524478,0.124437 -0.36904,0.0771"
       id="path31" />
    <path
       style="fill:#d35f5f;fill-opacity:1"
       d="m 10.310033,21.796964 c 0.08212,0.09212 0.155536,0.1928 0.246353,0.276354 0.06447,0.05932 0.315322,0.156179 0.370132,0.178205 0.568188,0.228333 1.216765,0.305052 1.821379,0.202338 0.316717,-0.05381 0.630285,-0.192605 0.952875,-0.206577 0.272642,-0.01181 0.557224,0.02267 0.829339,0.03629 0.298543,0.01493 0.597369,0.02623 0.895798,0.04207 0.07842,0.0042 0.15735,0.01463 0.235936,0.01777 0.03027,0.0012 0.118495,-0.0043 0.09059,0.0075 -0.104794,0.04428 -0.248421,0.04265 -0.357191,0.05883 -0.361509,0.05376 -0.386454,0.05764 -0.796172,0.136893 -0.647907,0.125328 -1.282125,0.288085 -1.936526,0.382331 -0.17351,0.02499 -0.262339,0.04833 -0.434602,0.04568 -0.69632,-0.0107 -1.326012,-0.294713 -1.973061,-0.512056 -0.2960046,-0.09943 -0.5993797,-0.17246 -0.8913458,-0.278803"
       id="path32" />
    <path
       style="fill:#d35f5f;fill-opacity:1"
       d="m 11.267099,24.335712 c 0.06222,0.05661 0.113486,0.128339 0.186665,0.169817 0.713812,0.404593 2.06,0.334767 2.86031,0.250651 0.208935,-0.02196 0.415745,-0.06637 0.625263,-0.08274 0.230053,-0.01798 0.980326,0.06503 1.15582,-0.02996"
       id="path33" />
    <path
       style="fill:#d35f5f;fill-opacity:1"
       d="m 13.481025,28.027973 c 0.779746,-0.0055 1.55034,-0.05403 2.299884,-0.297068 0.296468,-0.09613 0.604283,-0.212518 0.835575,-0.428383"
       id="path34" />
    <path
       style="fill:#d35f5f;fill-opacity:1"
       d="m 5.525277,22.089141 c 0.398102,0.04884 1.4216386,0.178643 1.7724579,-0.0011"
       id="path35" />
    <path
       style="fill:#d35f5f;fill-opacity:1"
       d="m 5.5526396,24.610666 c 0.1193665,0.03073 0.2349717,0.0865 0.3580995,0.0922 0.3339044,0.01545 0.9762028,-0.07465 1.3118903,-0.191097 0.1325746,-0.04599 0.2489759,-0.159882 0.382773,-0.191355"
       id="path36" />
    <path
       style="fill:#d35f5f;fill-opacity:1"
       d="m 22.356235,33.65306 c 0.161056,-0.597416 0.329966,-1.211819 0.275164,-1.836018 -0.03593,-0.409228 -0.156513,-0.803287 -0.150615,-1.216571 0.0066,-0.460881 0.119087,-0.916624 0.145555,-1.377538"
       id="path37" />
    <path
       style="fill:#d35f5f;fill-opacity:1"
       d="m 21.540771,41.318357 c 0.146721,-0.263475 0.15372,-0.233023 0.222886,-0.52788 0.142864,-0.609041 0.150048,-1.245775 0.266587,-1.860658 0.152176,-0.802908 0.467567,-1.76396 0.798658,-2.516818"
       id="path38" />
    <path
       style="fill:#d35f5f;fill-opacity:1"
       d="m 20.213673,32.986411 c -0.04119,-0.07868 -0.09194,-0.153062 -0.123585,-0.236046 -0.167677,-0.439663 -0.179314,-0.942473 -0.222484,-1.404839 -0.06407,-0.686191 -0.138683,-1.390602 -0.04173,-2.077287"
       id="path39" />
    <path
       style="fill:#d35f5f;fill-opacity:1"
       d="m 18.485751,29.549573 c -0.08915,-0.644123 0.196723,-1.248048 0.196953,-1.885267"
       id="path40" />
    <path
       style="fill:#d35f5f;fill-opacity:1"
       d="m 10.479962,36.365715 c 0.02783,0.06164 0.03159,0.141559 0.08349,0.184918 0.1491,0.124555 0.59602,-0.123124 0.708858,-0.187315 0.239403,-0.13619 0.455601,-0.286238 0.650644,-0.479186 0.156478,-0.154797 0.316128,-0.307569 0.470795,-0.46454 0.04983,-0.05058 0.101615,-0.100206 0.14985,-0.151973 0.02015,-0.02163 0.08287,-0.07934 0.05494,-0.06963 -0.500994,0.174129 -0.85679,0.599918 -1.303326,0.864932 -0.122443,0.07267 -0.258517,0.119652 -0.398299,0.14616 -0.07177,0.01361 -0.15195,-0.0052 -0.21745,0.02711 -0.0711,0.03509 -0.122667,0.149082 -0.199503,0.129523 -0.115933,-0.02951 -0.151132,-0.185686 -0.232292,-0.273576"
       id="path41" />
    <path
       style="fill:#d35f5f;fill-opacity:1"
       d="m 11.030571,33.966493 c 0.07634,0.03526 0.146238,0.09101 0.229021,0.105768 0.237058,0.04225 0.770749,-0.357539 0.986873,-0.486855 0.142234,-0.0851 0.293674,-0.148038 0.452491,-0.194425 0.249025,-0.07273 0.496037,-0.144019 0.743433,-0.222876 0.203074,-0.06473 0.445349,-0.08802 0.616581,-0.222314"
       id="path42" />
    <path
       style="fill:#d35f5f;fill-opacity:1"
       d="m 15.108812,32.084087 c 0.0814,-0.03055 0.170806,-0.04503 0.244191,-0.09165 0.163074,-0.103596 0.301945,-0.241332 0.458396,-0.354683 0.431363,-0.312532 0.892771,-0.543524 1.249033,-0.948623"
       id="path43" />
    <path
       style="fill:#d35f5f;fill-opacity:1"
       d="m 12.008644,33.663615 c 0.08439,0.0018 0.168819,0.0082 0.253185,0.0053 0.262374,-0.0089 0.555567,-0.134127 0.782745,-0.258935 0.08989,-0.04939 0.192451,-0.106453 0.191058,-0.10735 -0.03993,-0.02569 -0.560237,0.22293 -0.625767,0.248822 -0.03909,0.01544 -0.07805,0.03122 -0.117249,0.04638 -0.01266,0.0049 -0.05126,0.01574 -0.03982,0.0084 0.242529,-0.154725 0.53191,-0.220781 0.789068,-0.346869 0.04358,-0.02137 0.18311,-0.07462 0.13875,-0.155064"
       id="path44" />
    <path
       style="fill:#d35f5f;fill-opacity:1"
       d="m 12.568899,14.797303 c 0.167254,0.224823 0.4024,0.323683 0.64728,0.434294 0.23502,0.106157 0.473278,0.206112 0.691719,0.344483 0.0643,0.04073 0.128803,0.0809 0.185642,0.131612 0.01467,0.01309 0.06248,0.04734 0.04528,0.03781 -0.448239,-0.248166 -0.775762,-0.650345 -1.159824,-0.976404 -0.194791,-0.165372 -0.410889,-0.281258 -0.575324,-0.484427 -0.221323,-0.273456 -0.153442,-0.188806 -0.285981,-0.391385 -0.08907,-0.136147 -0.02833,-0.03314 -0.106289,-0.174008 -0.01769,-0.03196 -0.02477,-0.121684 -0.05148,-0.09676 -0.05185,0.04839 0.07499,0.400387 0.07586,0.402827 0.223939,0.626186 0.642362,1.308073 1.372623,1.326525"
       id="path45" />
    <path
       style="fill:#d35f5f;fill-opacity:1"
       d="m 13.418538,10.874574 c 0.01399,0.375169 0.519989,0.47406 0.263327,0.204329 -0.07659,-0.08049 -0.175551,-0.13622 -0.263327,-0.204329 z"
       id="path46" />
    <path
       style="fill:#d35f5f;fill-opacity:1"
       d="m 25.19312,41.6305 c 0.128667,0.07616 -0.230262,0.0621 -0.212367,0.09256 0.03911,0.06658 0.142343,-0.06001 0.212367,-0.09256 0.220082,-0.102318 0.253328,-0.09971 0.426666,-0.206611 0.129058,-0.07959 -0.03085,-1.121644 -0.04266,-1.351371 -0.01948,-0.378962 -0.02327,-0.757343 -0.103799,-1.129966 -0.129548,-0.59942 -0.396722,-1.165344 -0.62609,-1.730649 -0.10849,-0.267388 -0.235059,-0.52405 -0.307812,-0.804149 -0.02131,-0.08206 -0.02996,-0.167213 -0.04491,-0.2507 -0.0062,-0.03476 0.0059,-0.13312 -0.01521,-0.104826 -0.08696,0.116494 -0.08369,0.304767 -0.09363,0.441927 -0.05031,0.693832 0.288091,1.093898 0.629302,1.6473 0.132491,0.214884 0.246873,0.442434 0.35197,0.671797 0.254668,0.555789 0.362351,1.269791 0.337473,1.878052 -0.0066,0.161994 -0.113027,1.260039 -0.384565,1.262178 -0.07595,5.98e-4 -0.306588,-0.04564 -0.353721,-0.124588 -0.05515,-0.09237 0.0585,-0.530096 0.06677,-0.651954 0.03586,-0.528223 0.05284,-1.055426 0.09819,-1.583281 0.03217,-0.374379 -0.02596,-0.771037 -0.06523,-1.144663 -0.01765,-0.167892 -0.07946,-0.329965 -0.089,-0.499357 -0.01581,-0.280623 -0.01292,-0.563073 -0.02826,-0.844172"
       id="path47" />
    <path
       style="fill:#d35f5f;fill-opacity:1"
       d="m 23.094108,34.099117 c -0.0944,0.164595 -0.08309,0.245902 -0.0951,0.399511 -0.01312,0.167816 0.615934,0.01165 0.621471,-0.03339 0.01414,-0.115015 -0.08713,-0.32991 -0.108936,-0.427021 -0.06674,-0.29724 -0.04005,-0.522112 0.02361,-0.834725 0.0593,-0.291203 0.229753,-0.573003 0.3426,-0.846968 0.02819,-0.06844 0.112161,-0.207416 0.11408,-0.292952 0.0012,-0.05533 -0.167412,-0.153332 -0.197017,-0.194271 -0.07717,-0.106711 -0.133873,-0.228937 -0.187489,-0.348525 -0.120722,-0.269265 -0.149509,-0.484916 -0.187608,-0.429395 -0.06347,0.09249 -0.08141,0.267348 -0.09797,0.372143 -0.02972,0.18796 -0.05811,0.375291 -0.02448,0.564496 0.03562,0.200399 0.116116,0.35796 0.09926,0.568519 -0.02561,0.320005 -0.147637,0.656457 -0.234367,0.96543 -0.02166,0.07716 -0.08192,0.202478 -0.08373,0.285506 -0.01009,0.463209 0.0664,0.04236 -0.04362,0.496269"
       id="path48" />
    <path
       style="fill:#d35f5f;fill-opacity:1"
       d="m 22.575497,20.416286 c -0.12882,-0.06615 -0.146416,-0.05117 -0.21517,-0.139151 -0.02893,-0.03702 -0.05099,-0.08872 -0.07278,-0.128574 -0.261331,-0.47788 0.11355,0.576059 0.287949,0.267725 0.150908,-0.266802 0.0507,-0.850595 0.02654,-1.154308 -0.0688,-0.960369 -0.01467,-0.243489 -0.05296,-0.703224 -0.01869,-0.22442 -0.02642,-0.294559 -0.03572,-0.48793 -0.003,-0.0632 -7.09e-4,-0.12609 -0.0019,-0.189233 -2.04e-4,-0.01058 0.0034,-0.03977 -0.0033,-0.03158 -0.130724,0.15993 -0.148844,0.472583 -0.209687,0.664846 -0.0187,0.05909 -0.13873,0.387372 -0.150559,0.475581 -0.047,0.350494 -0.102599,0.935039 0.221745,1.198452"
       id="path49" />
    <path
       style="fill:#d35f5f;fill-opacity:1"
       d="m 29.725509,24.07717 c 0.702161,0.128006 1.203519,-0.497971 1.815712,-0.705936 0.584662,-0.198612 1.227364,-0.159337 1.833995,-0.09911 0.187127,0.01858 0.366797,0.05801 0.549114,0.104051 0.06003,0.01516 0.123698,0.0252 0.181308,0.0448 0.02065,0.007 0.08336,0.02421 0.06379,0.01458 -0.571342,-0.281082 -1.324348,-0.454656 -1.965927,-0.387224 -0.287019,0.03017 -0.567276,0.102118 -0.850723,0.15327 -0.263188,0.0475 -0.52792,0.07947 -0.78781,0.1424 -0.317188,0.0768 -0.598086,0.193788 -0.8571,0.39446 -0.009,0.007 -0.186777,0.113551 -0.170053,0.147712 0.0096,0.01971 0.04793,0.003 0.06305,0.01891 0.246065,0.258769 -0.02993,0.187364 0.39911,0.06661 0.172506,-0.04855 0.400684,-0.04965 0.575013,-0.08811 0.442016,-0.09751 0.813563,-0.272454 1.193587,-0.502196"
       id="path50" />
    <path
       style="fill:#d35f5f;fill-opacity:1"
       d="m 34.419044,20.821067 c 0.0016,0.06297 -0.02793,0.135155 0.0049,0.188922 0.09273,0.151891 0.502955,0.252436 0.603819,0.277096 0.685586,0.167621 1.555017,-0.143329 2.249387,-0.23642 0.308834,-0.0414 0.679303,0.08294 0.974276,0.167919 0.03437,0.0099 0.227359,0.08269 0.23187,0.0076 0.0055,-0.09204 -0.04654,-0.598749 -0.09931,-0.643011 -0.101274,-0.08495 -0.65534,-0.03115 -0.808167,-0.05128 -0.598301,-0.07882 -1.1912,-0.07869 -1.794329,-0.09876 -0.408111,-0.01357 -0.790145,0.01306 -1.192415,-0.07901 -0.305074,-0.06982 -0.582374,-0.200549 -0.87698,-0.301598 -0.24556,-0.08423 -0.497016,-0.149013 -0.741492,-0.237084 -0.139265,-0.05017 -0.285399,-0.115519 -0.431124,-0.154766 -0.05944,-0.01601 -0.121383,-0.02686 -0.179531,-0.04499 -0.0071,-0.0022 -0.02657,-0.0099 -0.02198,-0.0041 0.316798,0.404553 0.678807,0.663886 1.158611,0.85095 0.220552,0.08599 0.454026,0.136893 0.672814,0.227274 0.0869,0.0359 0.158563,0.108003 0.249661,0.131269 0.133496,0.03409 0.274607,0.02317 0.411628,0.03762 0.254267,0.02682 0.520786,0.05107 0.769884,0.108518 0.64239,0.148162 1.434511,0.573819 2.086908,0.251056"
       id="path51" />
    <path
       style="fill:#d35f5f;fill-opacity:1"
       d="m 39.765361,19.982441 c 0.117457,-0.01022 0.235998,-0.01173 0.352371,-0.03065 0.304745,-0.04954 0.579643,-0.162887 0.820377,-0.356545 0.254694,-0.204887 0.268796,-0.44266 0.345446,-0.734455 0.0055,-0.02103 0.08944,-0.294903 0.08144,-0.295908 -0.110366,-0.01387 -0.364336,0.225465 -0.404927,0.259666 -0.303965,0.256117 -0.55089,0.653624 -0.935919,0.800775 -0.157148,0.06006 -0.339565,0.07022 -0.506251,0.07024 -0.06389,5e-6 -0.127757,-0.01424 -0.191164,-0.0076 -0.0085,8.92e-4 -0.03341,-4.17e-4 -0.02546,0.0027 0.385524,0.149931 1.189598,0.18689 1.53803,-0.09567"
       id="path52" />
    <path
       style="fill:#d35f5f;fill-opacity:1"
       d="m 33.040802,17.834902 c 0.274515,0.154264 0.497381,0.147802 0.797043,0.116307 0.457785,-0.04811 0.815907,-0.319387 1.23236,-0.480729 0.226299,-0.08767 0.454727,-0.15726 0.688739,-0.219256 0.097,-0.0257 0.189825,-0.06252 0.29044,-0.0731 0.07314,-0.0077 0.338845,0.02418 0.396629,-0.03105 0.0016,-0.0016 -0.08298,-0.0068 -0.166583,-0.0357"
       id="path53" />
    <path
       style="fill:#d35f5f;fill-opacity:1"
       d="m 30.399307,19.52373 c 0.220539,-0.13338 0.483375,-0.07057 0.719282,-0.156482"
       id="path54" />
    <path
       style="fill:#d35f5f;fill-opacity:1"
       d="m 31.987967,32.542813 c -0.01507,0.05409 -0.0621,0.108717 -0.0452,0.16226 0.03356,0.106343 0.567472,0.265534 0.580213,0.268935 1.085648,0.289817 2.566374,-0.137557 3.544067,0.502317 0.371952,0.243432 0.715163,0.521372 1.02451,0.839502 0.06191,0.06367 0.277157,0.375144 0.294552,0.222333 0.0047,-0.04109 0.01063,-0.874342 -0.0034,-0.897872 -0.06507,-0.109329 -0.701315,-0.35514 -0.821955,-0.398907 -0.544434,-0.197513 -1.116137,-0.347581 -1.691265,-0.422478 -0.536007,-0.0698 -1.074168,-0.09877 -1.600747,-0.227656 -0.428639,-0.104913 -0.83284,-0.258272 -1.268626,-0.33706 -0.301552,-0.05897 0.05554,0.0086 -0.13284,-0.02222 -0.0015,-2.43e-4 -0.03458,-0.0113 -0.03449,-0.0091 0.0109,0.257432 0.267154,0.407242 0.436833,0.539424"
       id="path55" />
    <path
       style="fill:#d35f5f;fill-opacity:1"
       d="m 33.032348,29.789447 c 0.08997,0.412367 0.398582,0.610107 0.733358,0.831791 0.245018,0.162247 0.490564,0.320306 0.734001,0.484777 0.06108,0.04127 0.119661,0.07711 0.182097,0.114956 0.02361,0.01432 0.08247,0.07136 0.06733,0.04827 -0.300236,-0.457836 -0.563759,-0.999825 -1.008123,-1.332908 -0.04606,-0.03452 -0.841403,-0.513717 -0.930501,-0.474767 -0.120711,0.05277 0.194651,0.733317 0.314236,0.848171"
       id="path56" />
    <path
       style="fill:#d35f5f;fill-opacity:1"
       d="m 28.894954,36.44591 c -0.0082,0.06969 -0.02894,0.139017 -0.02472,0.209063 0.0076,0.126241 0.165683,0.292679 0.25409,0.367067 0.569365,0.479072 1.391436,0.315596 2.082051,0.381404 0.217686,0.02074 0.462487,0.02107 0.674795,0.06956 0.496129,0.113307 0.970556,0.341118 1.451888,0.502978 0.412728,0.13879 0.861165,0.193385 1.2624,0.363257 0.321938,0.136299 0.604105,0.368486 0.865476,0.59654 0.241803,0.210981 0.446702,0.45499 0.631488,0.716916 0.009,0.01281 0.185584,0.262369 0.199811,0.249319 0.04906,-0.045 -0.01502,-0.204977 -0.02929,-0.250213 -0.176794,-0.560324 -0.789973,-0.987219 -1.276428,-1.277038 -0.520458,-0.310076 -1.05039,-0.570191 -1.600311,-0.821553 -0.236154,-0.107942 -0.46931,-0.229925 -0.726378,-0.281242 -0.182967,-0.03652 -0.355742,-0.06295 -0.543361,-0.04932 -0.164049,0.01192 -0.322214,0.05369 -0.487962,0.0449 -0.531578,-0.02817 -1.043328,-0.169107 -1.563654,-0.267739 -0.539751,-0.102315 -1.169533,-0.304835 -1.344726,-0.901629"
       id="path57" />
    <path
       style="fill:#d35f5f;fill-opacity:1"
       d="m 39.834354,34.308509 c 0.497812,0.244712 1.09832,0.587534 1.65053,0.296921"
       id="path58" />
  </g>
</svg>
