<?xml version="1.0" encoding="UTF-8" standalone="no"?>
<!-- Created with Inkscape (http://www.inkscape.org/) -->

<svg
   width="48"
   height="48"
   viewBox="0 0 48 48"
   version="1.1"
   id="svg1"
   inkscape:version="1.3 (0e150ed6c4, 2023-07-21)"
   sodipodi:docname="mainMozzarella.svg"
   xmlns:inkscape="http://www.inkscape.org/namespaces/inkscape"
   xmlns:sodipodi="http://sodipodi.sourceforge.net/DTD/sodipodi-0.dtd"
   xmlns:xlink="http://www.w3.org/1999/xlink"
   xmlns="http://www.w3.org/2000/svg"
   xmlns:svg="http://www.w3.org/2000/svg">
  <sodipodi:namedview
     id="namedview1"
     pagecolor="#ffffff"
     bordercolor="#000000"
     borderopacity="0.25"
     inkscape:showpageshadow="2"
     inkscape:pageopacity="0.0"
     inkscape:pagecheckerboard="0"
     inkscape:deskcolor="#d1d1d1"
     inkscape:document-units="px"
     inkscape:zoom="16.395833"
     inkscape:cx="24"
     inkscape:cy="24"
     inkscape:window-width="2400"
     inkscape:window-height="1271"
     inkscape:window-x="2391"
     inkscape:window-y="-9"
     inkscape:window-maximized="1"
     inkscape:current-layer="layer1" />
  <defs
     id="defs1" />
  <g
     inkscape:label="Calque 1"
     inkscape:groupmode="layer"
     id="layer1">
    <path
       style="fill:#ffffff"
       d="m 17.785957,11.61302 c -0.09028,0.02012 -0.191668,0.01253 -0.270847,0.06035 -0.147404,0.08901 -0.153505,0.308911 -0.214567,0.469915 -0.05976,0.157568 -0.556291,2.25403 -0.418582,2.455429 0.06438,0.09415 0.437958,0.140994 0.517071,0.03759 0.08108,-0.105965 0.08808,-0.311258 0.116078,-0.437268 0.08068,-0.363079 0.14337,-0.730994 0.214567,-1.096138 0.02895,-0.148457 0.313782,-1.098503 0.249742,-1.201004 -0.06141,-0.09828 -0.128975,-0.192582 -0.193462,-0.288874 z"
       id="path2" />
    <use
       id="use2"
       inkscape:spray-origin="#path2"
       xlink:href="#path2"
       transform="translate(0.96543074,-1.0596566)" />
    <use
       id="use3"
       inkscape:spray-origin="#path2"
       xlink:href="#path2"
       transform="translate(-0.14577654,0.0862824)" />
    <use
       id="use4"
       inkscape:spray-origin="#path2"
       xlink:href="#path2"
       transform="translate(0.37028621,-1.3937323)" />
    <use
       id="use5"
       inkscape:spray-origin="#path2"
       xlink:href="#path2"
       transform="translate(4.8494335,-1.7322474)" />
    <use
       id="use6"
       inkscape:spray-origin="#path2"
       xlink:href="#path2"
       transform="translate(5.2948301,-3.9337447)" />
    <use
       id="use7"
       inkscape:spray-origin="#path2"
       xlink:href="#path2"
       transform="translate(4.0874818,-2.0784242)" />
    <use
       id="use8"
       inkscape:spray-origin="#path2"
       xlink:href="#path2"
       transform="translate(2.8269577,-3.0577697)" />
    <use
       id="use9"
       inkscape:spray-origin="#path2"
       xlink:href="#path2"
       transform="translate(4.1551639,-2.6616084)" />
    <use
       id="use10"
       inkscape:spray-origin="#path2"
       xlink:href="#path2"
       transform="translate(3.5481168,-0.35844833)" />
    <use
       id="use11"
       inkscape:spray-origin="#path2"
       xlink:href="#path2"
       transform="translate(2.5949118,2.1274871)" />
    <use
       id="use12"
       inkscape:spray-origin="#path2"
       xlink:href="#path2"
       transform="translate(4.3149221,0.13115022)" />
    <use
       id="use13"
       inkscape:spray-origin="#path2"
       xlink:href="#path2"
       transform="translate(6.3225809,1.4241768)" />
    <use
       id="use14"
       inkscape:spray-origin="#path2"
       xlink:href="#path2"
       transform="translate(8.1041064,2.5350538)" />
    <use
       id="use15"
       inkscape:spray-origin="#path2"
       xlink:href="#path2"
       transform="translate(10.062345,1.3816211)" />
    <use
       id="use16"
       inkscape:spray-origin="#path2"
       xlink:href="#path2"
       transform="translate(9.0262923,3.9309855)" />
    <use
       id="use17"
       inkscape:spray-origin="#path2"
       xlink:href="#path2"
       transform="translate(8.0025945,5.9685743)" />
    <use
       id="use18"
       inkscape:spray-origin="#path2"
       xlink:href="#path2"
       transform="translate(9.6623845,5.4491802)" />
    <use
       id="use19"
       inkscape:spray-origin="#path2"
       xlink:href="#path2"
       transform="translate(7.9630934,9.5701608)" />
    <use
       id="use20"
       inkscape:spray-origin="#path2"
       xlink:href="#path2"
       transform="translate(4.8605107,10.312914)" />
    <use
       id="use21"
       inkscape:spray-origin="#path2"
       xlink:href="#path2"
       transform="translate(3.9589853,10.355495)" />
    <use
       id="use22"
       inkscape:spray-origin="#path2"
       xlink:href="#path2"
       transform="translate(-0.35928834,14.662019)" />
    <use
       id="use23"
       inkscape:spray-origin="#path2"
       xlink:href="#path2"
       transform="translate(0.89466767,17.405857)" />
    <use
       id="use24"
       inkscape:spray-origin="#path2"
       xlink:href="#path2"
       transform="translate(1.018899,18.316335)" />
    <use
       id="use25"
       inkscape:spray-origin="#path2"
       xlink:href="#path2"
       transform="translate(0.41237136,20.825502)" />
    <use
       id="use26"
       inkscape:spray-origin="#path2"
       xlink:href="#path2"
       transform="translate(6.6526994,22.538908)" />
    <use
       id="use27"
       inkscape:spray-origin="#path2"
       xlink:href="#path2"
       transform="translate(9.2927503,20.486931)" />
    <use
       id="use28"
       inkscape:spray-origin="#path2"
       xlink:href="#path2"
       transform="translate(12.586602,21.152916)" />
    <use
       id="use29"
       inkscape:spray-origin="#path2"
       xlink:href="#path2"
       transform="translate(14.408323,18.770447)" />
    <use
       id="use30"
       inkscape:spray-origin="#path2"
       xlink:href="#path2"
       transform="translate(17.44544,15.317297)" />
    <use
       id="use31"
       inkscape:spray-origin="#path2"
       xlink:href="#path2"
       transform="translate(17.55776,12.063901)" />
    <use
       id="use32"
       inkscape:spray-origin="#path2"
       xlink:href="#path2"
       transform="translate(17.94567,11.905662)" />
    <use
       id="use33"
       inkscape:spray-origin="#path2"
       xlink:href="#path2"
       transform="translate(17.529274,6.7408415)" />
    <use
       id="use34"
       inkscape:spray-origin="#path2"
       xlink:href="#path2"
       transform="translate(17.268209,5.4496504)" />
    <use
       id="use35"
       inkscape:spray-origin="#path2"
       xlink:href="#path2"
       transform="translate(13.783636,0.31252406)" />
    <use
       id="use36"
       inkscape:spray-origin="#path2"
       xlink:href="#path2"
       transform="translate(9.2017854,0.04424875)" />
    <use
       id="use37"
       inkscape:spray-origin="#path2"
       xlink:href="#path2"
       transform="translate(6.6098827,1.5857056)" />
    <use
       id="use38"
       inkscape:spray-origin="#path2"
       xlink:href="#path2"
       transform="translate(2.0600102,4.3576509)" />
    <use
       id="use39"
       inkscape:spray-origin="#path2"
       xlink:href="#path2"
       transform="translate(-1.4823182,9.7081839)" />
    <use
       id="use40"
       inkscape:spray-origin="#path2"
       xlink:href="#path2"
       transform="translate(-1.5033014,12.624279)" />
    <use
       id="use41"
       inkscape:spray-origin="#path2"
       xlink:href="#path2"
       transform="translate(1.7952956,17.113689)" />
    <use
       id="use42"
       inkscape:spray-origin="#path2"
       xlink:href="#path2"
       transform="translate(4.9231869,16.878399)" />
    <use
       id="use43"
       inkscape:spray-origin="#path2"
       xlink:href="#path2"
       transform="translate(9.0487279,18.336738)" />
    <use
       id="use44"
       inkscape:spray-origin="#path2"
       xlink:href="#path2"
       transform="translate(11.790006,19.11346)" />
    <use
       id="use45"
       inkscape:spray-origin="#path2"
       xlink:href="#path2"
       transform="translate(18.479491,21.68772)" />
    <use
       id="use46"
       inkscape:spray-origin="#path2"
       xlink:href="#path2"
       transform="translate(17.987837,23.524248)" />
    <use
       id="use47"
       inkscape:spray-origin="#path2"
       xlink:href="#path2"
       transform="translate(16.917543,24.831576)" />
    <use
       id="use48"
       inkscape:spray-origin="#path2"
       xlink:href="#path2"
       transform="translate(14.434281,26.210497)" />
    <use
       id="use49"
       inkscape:spray-origin="#path2"
       xlink:href="#path2"
       transform="translate(11.036717,27.73374)" />
    <use
       id="use50"
       inkscape:spray-origin="#path2"
       xlink:href="#path2"
       transform="translate(9.351729,28.051926)" />
    <use
       id="use51"
       inkscape:spray-origin="#path2"
       xlink:href="#path2"
       transform="translate(6.3660274,26.357241)" />
    <use
       id="use52"
       inkscape:spray-origin="#path2"
       xlink:href="#path2"
       transform="translate(2.2197902,26.465387)" />
    <use
       id="use53"
       inkscape:spray-origin="#path2"
       xlink:href="#path2"
       transform="translate(-0.13107135,25.325475)" />
    <use
       id="use54"
       inkscape:spray-origin="#path2"
       xlink:href="#path2"
       transform="translate(-3.7203273,21.148497)" />
    <use
       id="use55"
       inkscape:spray-origin="#path2"
       xlink:href="#path2"
       transform="translate(-6.5735939,18.921964)" />
    <use
       id="use56"
       inkscape:spray-origin="#path2"
       xlink:href="#path2"
       transform="translate(-6.0076366,17.378245)" />
    <use
       id="use57"
       inkscape:spray-origin="#path2"
       xlink:href="#path2"
       transform="translate(-8.8717691,12.894548)" />
    <use
       id="use58"
       inkscape:spray-origin="#path2"
       xlink:href="#path2"
       transform="translate(-9.3346653,11.06228)" />
    <use
       id="use59"
       inkscape:spray-origin="#path2"
       xlink:href="#path2"
       transform="translate(-8.6618497,6.9822802)" />
    <use
       id="use60"
       inkscape:spray-origin="#path2"
       xlink:href="#path2"
       transform="translate(-6.7254262,4.7564948)" />
    <use
       id="use61"
       inkscape:spray-origin="#path2"
       xlink:href="#path2"
       transform="translate(-5.8070122,4.9359946)" />
    <use
       id="use62"
       inkscape:spray-origin="#path2"
       xlink:href="#path2"
       transform="translate(-2.3102642,4.4682654)" />
    <use
       id="use63"
       inkscape:spray-origin="#path2"
       xlink:href="#path2"
       transform="translate(-4.274691,5.4813536)" />
    <use
       id="use64"
       inkscape:spray-origin="#path2"
       xlink:href="#path2"
       transform="translate(-8.0117732,5.5476356)" />
    <use
       id="use65"
       inkscape:spray-origin="#path2"
       xlink:href="#path2"
       transform="translate(-10.816949,9.2264223)" />
    <use
       id="use66"
       inkscape:spray-origin="#path2"
       xlink:href="#path2"
       transform="translate(-9.9636045,10.56638)" />
    <use
       id="use67"
       inkscape:spray-origin="#path2"
       xlink:href="#path2"
       transform="translate(-10.225044,14.184646)" />
    <use
       id="use68"
       inkscape:spray-origin="#path2"
       xlink:href="#path2"
       transform="translate(-9.3449375,20.566424)" />
    <use
       id="use69"
       inkscape:spray-origin="#path2"
       xlink:href="#path2"
       transform="translate(-3.5649247,24.650362)" />
    <use
       id="use70"
       inkscape:spray-origin="#path2"
       xlink:href="#path2"
       transform="translate(-1.5720168,25.942568)" />
    <use
       id="use71"
       inkscape:spray-origin="#path2"
       xlink:href="#path2"
       transform="translate(2.1821141,28.846656)" />
    <use
       id="use72"
       inkscape:spray-origin="#path2"
       xlink:href="#path2"
       transform="translate(5.8431927,29.157683)" />
    <use
       id="use73"
       inkscape:spray-origin="#path2"
       xlink:href="#path2"
       transform="translate(5.6499357,28.622214)" />
    <use
       id="use74"
       inkscape:spray-origin="#path2"
       xlink:href="#path2"
       transform="translate(11.919486,27.021539)" />
    <use
       id="use75"
       inkscape:spray-origin="#path2"
       xlink:href="#path2"
       transform="translate(12.917334,23.272906)" />
    <use
       id="use76"
       inkscape:spray-origin="#path2"
       xlink:href="#path2"
       transform="translate(17.411116,18.117803)" />
    <use
       id="use77"
       inkscape:spray-origin="#path2"
       xlink:href="#path2"
       transform="translate(20.428625,11.042658)" />
    <use
       id="use78"
       inkscape:spray-origin="#path2"
       xlink:href="#path2"
       transform="translate(19.987335,7.5592502)" />
    <use
       id="use79"
       inkscape:spray-origin="#path2"
       xlink:href="#path2"
       transform="translate(17.872252,1.7108353)" />
    <use
       id="use80"
       inkscape:spray-origin="#path2"
       xlink:href="#path2"
       transform="translate(17.147587,1.892103)" />
    <use
       id="use81"
       inkscape:spray-origin="#path2"
       xlink:href="#path2"
       transform="translate(15.375352,-5.0178604)" />
    <use
       id="use82"
       inkscape:spray-origin="#path2"
       xlink:href="#path2"
       transform="translate(13.624705,-7.2381449)" />
    <use
       id="use83"
       inkscape:spray-origin="#path2"
       xlink:href="#path2"
       transform="translate(11.415522,-5.7477031)" />
    <use
       id="use84"
       inkscape:spray-origin="#path2"
       xlink:href="#path2"
       transform="translate(7.5199267,-7.0806847)" />
    <use
       id="use85"
       inkscape:spray-origin="#path2"
       xlink:href="#path2"
       transform="translate(6.5052018,-6.686348)" />
    <use
       id="use86"
       inkscape:spray-origin="#path2"
       xlink:href="#path2"
       transform="translate(-0.30304461,-5.8351804)" />
    <use
       id="use87"
       inkscape:spray-origin="#path2"
       xlink:href="#path2"
       transform="translate(-2.7926907,-3.2331641)" />
    <use
       id="use88"
       inkscape:spray-origin="#path2"
       xlink:href="#path2"
       transform="translate(-7.8850984,1.7052652)" />
    <use
       id="use89"
       inkscape:spray-origin="#path2"
       xlink:href="#path2"
       transform="translate(-7.7714525,1.4186815)" />
    <use
       id="use90"
       inkscape:spray-origin="#path2"
       xlink:href="#path2"
       transform="translate(-10.103513,4.2202003)" />
    <use
       id="use91"
       inkscape:spray-origin="#path2"
       xlink:href="#path2"
       transform="translate(-9.0305305,3.6456073)" />
    <use
       id="use92"
       inkscape:spray-origin="#path2"
       xlink:href="#path2"
       transform="translate(-8.7952048,1.4643322)" />
    <use
       id="use93"
       inkscape:spray-origin="#path2"
       xlink:href="#path2"
       transform="translate(-7.5035959,1.8053147)" />
    <use
       id="use94"
       inkscape:spray-origin="#path2"
       xlink:href="#path2"
       transform="translate(-4.7753918,-4.0175261)" />
    <use
       id="use95"
       inkscape:spray-origin="#path2"
       xlink:href="#path2"
       transform="translate(-3.5426432,-7.5844)" />
    <use
       id="use96"
       inkscape:spray-origin="#path2"
       xlink:href="#path2"
       transform="translate(-0.70647834,-7.7484473)" />
    <use
       id="use97"
       inkscape:spray-origin="#path2"
       xlink:href="#path2"
       transform="translate(0.54950311,-6.064218)" />
    <use
       id="use98"
       inkscape:spray-origin="#path2"
       xlink:href="#path2"
       transform="translate(4.8193894,-6.8038899)" />
    <use
       id="use99"
       inkscape:spray-origin="#path2"
       xlink:href="#path2"
       transform="translate(7.6998479,-6.0426388)" />
    <use
       id="use100"
       inkscape:spray-origin="#path2"
       xlink:href="#path2"
       transform="translate(10.253936,-3.7278899)" />
    <use
       id="use101"
       inkscape:spray-origin="#path2"
       xlink:href="#path2"
       transform="translate(12.134262,-1.4996751)" />
    <use
       id="use102"
       inkscape:spray-origin="#path2"
       xlink:href="#path2"
       transform="translate(14.106628,1.1181125)" />
    <use
       id="use103"
       inkscape:spray-origin="#path2"
       xlink:href="#path2"
       transform="translate(16.054793,1.5715325)" />
    <use
       id="use104"
       inkscape:spray-origin="#path2"
       xlink:href="#path2"
       transform="translate(19.052799,6.9695381)" />
    <use
       id="use105"
       inkscape:spray-origin="#path2"
       xlink:href="#path2"
       transform="translate(18.20497,5.8380328)" />
    <use
       id="use106"
       inkscape:spray-origin="#path2"
       xlink:href="#path2"
       transform="translate(20.182081,8.0052055)" />
    <use
       id="use107"
       inkscape:spray-origin="#path2"
       xlink:href="#path2"
       transform="translate(21.296534,10.720494)" />
    <use
       id="use108"
       inkscape:spray-origin="#path2"
       xlink:href="#path2"
       transform="translate(20.950251,13.461335)" />
    <use
       id="use109"
       inkscape:spray-origin="#path2"
       xlink:href="#path2"
       transform="translate(20.21759,13.045671)" />
    <use
       id="use110"
       inkscape:spray-origin="#path2"
       xlink:href="#path2"
       transform="translate(22.587789,8.7837803)" />
    <use
       id="use111"
       inkscape:spray-origin="#path2"
       xlink:href="#path2"
       transform="translate(27.212772,7.1850318)" />
    <use
       id="use112"
       inkscape:spray-origin="#path2"
       xlink:href="#path2"
       transform="translate(26.498053,2.4762008)" />
    <use
       id="use113"
       inkscape:spray-origin="#path2"
       xlink:href="#path2"
       transform="translate(23.559431,-0.91946798)" />
    <use
       id="use114"
       inkscape:spray-origin="#path2"
       xlink:href="#path2"
       transform="translate(19.436659,-2.3148679)" />
    <use
       id="use115"
       inkscape:spray-origin="#path2"
       xlink:href="#path2"
       transform="translate(20.328315,-3.1869196)" />
    <use
       id="use116"
       inkscape:spray-origin="#path2"
       xlink:href="#path2"
       transform="translate(17.738234,-4.8120224)" />
    <use
       id="use117"
       inkscape:spray-origin="#path2"
       xlink:href="#path2"
       transform="translate(15.93685,-4.742407)" />
    <use
       id="use118"
       inkscape:spray-origin="#path2"
       xlink:href="#path2"
       transform="translate(15.149414,-6.5379519)" />
    <use
       id="use119"
       inkscape:spray-origin="#path2"
       xlink:href="#path2"
       transform="translate(13.525643,-7.3071069)" />
    <use
       id="use120"
       inkscape:spray-origin="#path2"
       xlink:href="#path2"
       transform="translate(9.781146,-7.0037654)" />
    <use
       id="use121"
       inkscape:spray-origin="#path2"
       xlink:href="#path2"
       transform="translate(5.3436866,-5.6400637)" />
    <use
       id="use122"
       inkscape:spray-origin="#path2"
       xlink:href="#path2"
       transform="translate(3.5318192,-3.310635)" />
    <use
       id="use123"
       inkscape:spray-origin="#path2"
       xlink:href="#path2"
       transform="translate(6.1885152,-2.9981556)" />
    <use
       id="use124"
       inkscape:spray-origin="#path2"
       xlink:href="#path2"
       transform="translate(2.9801333,-0.52273814)" />
    <use
       id="use125"
       inkscape:spray-origin="#path2"
       xlink:href="#path2"
       transform="translate(3.9032116,1.1359875)" />
    <use
       id="use126"
       inkscape:spray-origin="#path2"
       xlink:href="#path2"
       transform="translate(6.3241773,5.0401588)" />
    <use
       id="use127"
       inkscape:spray-origin="#path2"
       xlink:href="#path2"
       transform="translate(8.7033801,6.5702114)" />
    <use
       id="use128"
       inkscape:spray-origin="#path2"
       xlink:href="#path2"
       transform="translate(11.844303,5.9552596)" />
    <use
       id="use129"
       inkscape:spray-origin="#path2"
       xlink:href="#path2"
       transform="translate(12.343823,9.0313986)" />
    <use
       id="use130"
       inkscape:spray-origin="#path2"
       xlink:href="#path2"
       transform="translate(14.960338,11.395133)" />
    <use
       id="use131"
       inkscape:spray-origin="#path2"
       xlink:href="#path2"
       transform="translate(15.313584,15.001054)" />
    <use
       id="use132"
       inkscape:spray-origin="#path2"
       xlink:href="#path2"
       transform="translate(16.454296,17.358295)" />
    <use
       id="use133"
       inkscape:spray-origin="#path2"
       xlink:href="#path2"
       transform="translate(19.177404,20.378031)" />
    <use
       id="use134"
       inkscape:spray-origin="#path2"
       xlink:href="#path2"
       transform="translate(17.045936,20.857197)" />
    <use
       id="use135"
       inkscape:spray-origin="#path2"
       xlink:href="#path2"
       transform="translate(14.303877,20.538187)" />
    <use
       id="use136"
       inkscape:spray-origin="#path2"
       xlink:href="#path2"
       transform="translate(14.100426,22.952169)" />
    <use
       id="use137"
       inkscape:spray-origin="#path2"
       xlink:href="#path2"
       transform="translate(10.77179,23.461939)" />
    <use
       id="use138"
       inkscape:spray-origin="#path2"
       xlink:href="#path2"
       transform="translate(10.197515,22.355584)" />
    <use
       id="use139"
       inkscape:spray-origin="#path2"
       xlink:href="#path2"
       transform="translate(5.0156149,19.144748)" />
    <use
       id="use140"
       inkscape:spray-origin="#path2"
       xlink:href="#path2"
       transform="translate(5.4533266,15.416484)" />
    <use
       id="use141"
       inkscape:spray-origin="#path2"
       xlink:href="#path2"
       transform="translate(2.3167639,12.284985)" />
    <use
       id="use142"
       inkscape:spray-origin="#path2"
       xlink:href="#path2"
       transform="translate(0.95623931,10.567867)" />
    <use
       id="use143"
       inkscape:spray-origin="#path2"
       xlink:href="#path2"
       transform="translate(2.4017411,8.1875258)" />
    <use
       id="use144"
       inkscape:spray-origin="#path2"
       xlink:href="#path2"
       transform="translate(6.3184958,3.5376833)" />
    <use
       id="use145"
       inkscape:spray-origin="#path2"
       xlink:href="#path2"
       transform="translate(6.4583343,0.42020227)" />
    <use
       id="use146"
       inkscape:spray-origin="#path2"
       xlink:href="#path2"
       transform="translate(7.3800088,0.49613417)" />
    <use
       id="use147"
       inkscape:spray-origin="#path2"
       xlink:href="#path2"
       transform="translate(8.9934263,0.90992926)" />
    <use
       id="use148"
       inkscape:spray-origin="#path2"
       xlink:href="#path2"
       transform="translate(7.1808025,0.18295196)" />
    <use
       id="use149"
       inkscape:spray-origin="#path2"
       xlink:href="#path2"
       transform="translate(5.5464704,0.87665883)" />
    <use
       id="use150"
       inkscape:spray-origin="#path2"
       xlink:href="#path2"
       transform="translate(3.7112656,-1.7472142)" />
    <use
       id="use151"
       inkscape:spray-origin="#path2"
       xlink:href="#path2"
       transform="translate(-0.97291024,1.0247062)" />
    <use
       id="use152"
       inkscape:spray-origin="#path2"
       xlink:href="#path2"
       transform="translate(-0.27285975,2.3128946)" />
    <use
       id="use153"
       inkscape:spray-origin="#path2"
       xlink:href="#path2"
       transform="translate(-3.7232991,5.0873319)" />
    <use
       id="use154"
       inkscape:spray-origin="#path2"
       xlink:href="#path2"
       transform="translate(-5.1876876,9.7806569)" />
    <use
       id="use155"
       inkscape:spray-origin="#path2"
       xlink:href="#path2"
       transform="translate(-5.1335802,11.201125)" />
    <use
       id="use156"
       inkscape:spray-origin="#path2"
       xlink:href="#path2"
       transform="translate(-6.7709349,14.68953)" />
    <use
       id="use157"
       inkscape:spray-origin="#path2"
       xlink:href="#path2"
       transform="translate(-8.8619991,16.55258)" />
    <use
       id="use158"
       inkscape:spray-origin="#path2"
       xlink:href="#path2"
       transform="translate(-8.7648559,18.056519)" />
    <use
       id="use159"
       inkscape:spray-origin="#path2"
       xlink:href="#path2"
       transform="translate(-12.034565,17.717498)" />
    <use
       id="use160"
       inkscape:spray-origin="#path2"
       xlink:href="#path2"
       transform="translate(-12.693629,18.740366)" />
    <use
       id="use161"
       inkscape:spray-origin="#path2"
       xlink:href="#path2"
       transform="translate(-10.267627,22.018778)" />
    <use
       id="use162"
       inkscape:spray-origin="#path2"
       xlink:href="#path2"
       transform="translate(-9.820759,23.252478)" />
    <use
       id="use163"
       inkscape:spray-origin="#path2"
       xlink:href="#path2"
       transform="translate(-6.481439,25.155504)" />
    <use
       id="use164"
       inkscape:spray-origin="#path2"
       xlink:href="#path2"
       transform="translate(-3.0290156,23.393232)" />
    <use
       id="use165"
       inkscape:spray-origin="#path2"
       xlink:href="#path2"
       transform="translate(2.2369146,25.79923)" />
    <use
       id="use166"
       inkscape:spray-origin="#path2"
       xlink:href="#path2"
       transform="translate(4.6854423,25.39161)" />
    <use
       id="use167"
       inkscape:spray-origin="#path2"
       xlink:href="#path2"
       transform="translate(5.4356749,27.98429)" />
    <use
       id="use168"
       inkscape:spray-origin="#path2"
       xlink:href="#path2"
       transform="translate(9.8401065,29.427638)" />
    <use
       id="use169"
       inkscape:spray-origin="#path2"
       xlink:href="#path2"
       transform="translate(13.222097,27.902715)" />
    <use
       id="use170"
       inkscape:spray-origin="#path2"
       xlink:href="#path2"
       transform="translate(12.907031,26.712635)" />
    <use
       id="use171"
       inkscape:spray-origin="#path2"
       xlink:href="#path2"
       transform="translate(14.047991,23.178857)" />
    <use
       id="use172"
       inkscape:spray-origin="#path2"
       xlink:href="#path2"
       transform="translate(15.809325,17.8294)" />
    <use
       id="use173"
       inkscape:spray-origin="#path2"
       xlink:href="#path2"
       transform="translate(15.554893,10.894037)" />
    <use
       id="use174"
       inkscape:spray-origin="#path2"
       xlink:href="#path2"
       transform="translate(18.272013,5.3658649)" />
    <use
       id="use175"
       inkscape:spray-origin="#path2"
       xlink:href="#path2"
       transform="translate(17.55621,3.8943241)" />
    <use
       id="use176"
       inkscape:spray-origin="#path2"
       xlink:href="#path2"
       transform="translate(18.815777,1.4173967)" />
    <use
       id="use177"
       inkscape:spray-origin="#path2"
       xlink:href="#path2"
       transform="translate(17.532439,-0.49617659)" />
    <use
       id="use178"
       inkscape:spray-origin="#path2"
       xlink:href="#path2"
       transform="translate(16.578033,-2.3028584)" />
    <use
       id="use179"
       inkscape:spray-origin="#path2"
       xlink:href="#path2"
       transform="translate(15.072771,-3.6997383)" />
    <use
       id="use180"
       inkscape:spray-origin="#path2"
       xlink:href="#path2"
       transform="translate(14.395778,-4.0870047)" />
    <use
       id="use181"
       inkscape:spray-origin="#path2"
       xlink:href="#path2"
       transform="translate(10.933633,-3.8041799)" />
    <use
       id="use182"
       inkscape:spray-origin="#path2"
       xlink:href="#path2"
       transform="translate(10.954048,-2.4864816)" />
    <use
       id="use183"
       inkscape:spray-origin="#path2"
       xlink:href="#path2"
       transform="translate(8.8097429,-3.8601209)" />
    <use
       id="use184"
       inkscape:spray-origin="#path2"
       xlink:href="#path2"
       transform="translate(9.9453076,-1.8870107)" />
    <use
       id="use185"
       inkscape:spray-origin="#path2"
       xlink:href="#path2"
       transform="translate(10.48947,1.7186431)" />
    <use
       id="use186"
       inkscape:spray-origin="#path2"
       xlink:href="#path2"
       transform="translate(13.72208,3.2466916)" />
    <use
       id="use187"
       inkscape:spray-origin="#path2"
       xlink:href="#path2"
       transform="translate(16.389893,6.4319438)" />
    <use
       id="use188"
       inkscape:spray-origin="#path2"
       xlink:href="#path2"
       transform="translate(17.09387,7.9645194)" />
    <use
       id="use189"
       inkscape:spray-origin="#path2"
       xlink:href="#path2"
       transform="translate(15.599375,8.2273877)" />
    <use
       id="use190"
       inkscape:spray-origin="#path2"
       xlink:href="#path2"
       transform="translate(17.570913,14.555734)" />
    <use
       id="use191"
       inkscape:spray-origin="#path2"
       xlink:href="#path2"
       transform="translate(18.854658,14.608117)" />
    <use
       id="use192"
       inkscape:spray-origin="#path2"
       xlink:href="#path2"
       transform="translate(19.332883,13.713934)" />
    <use
       id="use193"
       inkscape:spray-origin="#path2"
       xlink:href="#path2"
       transform="translate(18.15188,18.109342)" />
    <use
       id="use194"
       inkscape:spray-origin="#path2"
       xlink:href="#path2"
       transform="translate(16.174684,18.01373)" />
    <use
       id="use195"
       inkscape:spray-origin="#path2"
       xlink:href="#path2"
       transform="translate(12.773121,19.864464)" />
    <use
       id="use196"
       inkscape:spray-origin="#path2"
       xlink:href="#path2"
       transform="translate(11.436362,16.709167)" />
    <use
       id="use197"
       inkscape:spray-origin="#path2"
       xlink:href="#path2"
       transform="translate(7.7083192,19.485628)" />
    <use
       id="use198"
       inkscape:spray-origin="#path2"
       xlink:href="#path2"
       transform="translate(7.2244807,15.099382)" />
    <use
       id="use199"
       inkscape:spray-origin="#path2"
       xlink:href="#path2"
       transform="translate(3.7822096,13.853421)" />
    <use
       id="use200"
       inkscape:spray-origin="#path2"
       xlink:href="#path2"
       transform="translate(2.326579,9.7581838)" />
    <use
       id="use201"
       inkscape:spray-origin="#path2"
       xlink:href="#path2"
       transform="translate(3.0029321,8.2283535)" />
    <use
       id="use202"
       inkscape:spray-origin="#path2"
       xlink:href="#path2"
       transform="translate(5.3855585,4.6220135)" />
    <use
       id="use203"
       inkscape:spray-origin="#path2"
       xlink:href="#path2"
       transform="translate(9.8455533,9.4605406)" />
    <use
       id="use204"
       inkscape:spray-origin="#path2"
       xlink:href="#path2"
       transform="translate(13.587892,11.377568)" />
    <use
       id="use205"
       inkscape:spray-origin="#path2"
       xlink:href="#path2"
       transform="translate(15.77214,10.194152)" />
    <use
       id="use206"
       inkscape:spray-origin="#path2"
       xlink:href="#path2"
       transform="translate(16.784986,13.98219)" />
    <use
       id="use207"
       inkscape:spray-origin="#path2"
       xlink:href="#path2"
       transform="translate(17.816372,17.821113)" />
    <use
       id="use208"
       inkscape:spray-origin="#path2"
       xlink:href="#path2"
       transform="translate(17.031774,17.403484)" />
    <use
       id="use209"
       inkscape:spray-origin="#path2"
       xlink:href="#path2"
       transform="translate(16.091298,18.832045)" />
    <use
       id="use210"
       inkscape:spray-origin="#path2"
       xlink:href="#path2"
       transform="translate(19.434862,19.691762)" />
    <use
       id="use211"
       inkscape:spray-origin="#path2"
       xlink:href="#path2"
       transform="translate(16.330515,17.547)" />
    <use
       id="use212"
       inkscape:spray-origin="#path2"
       xlink:href="#path2"
       transform="translate(11.645035,17.465429)" />
    <use
       id="use213"
       inkscape:spray-origin="#path2"
       xlink:href="#path2"
       transform="translate(7.0414171,8.8483186)" />
    <use
       id="use214"
       inkscape:spray-origin="#path2"
       xlink:href="#path2"
       transform="translate(5.0085499,8.1550787)" />
    <use
       id="use215"
       inkscape:spray-origin="#path2"
       xlink:href="#path2"
       transform="translate(4.8289542,7.6728369)" />
    <path
       style="fill:#ffffff"
       d="m 20.054739,3.4365013 c 0.110214,-0.086069 0.198843,-0.2114764 0.330644,-0.2582058 1.20898,-0.4286386 3.06049,-0.1104956 4.224507,0.4897007"
       id="path215" />
    <use
       id="use216"
       inkscape:spray-origin="#path215"
       xlink:href="#path215"
       transform="translate(-11.618585,8.9923456)" />
    <use
       id="use217"
       inkscape:spray-origin="#path215"
       xlink:href="#path215"
       transform="translate(-12.417068,10.289504)" />
    <use
       id="use218"
       inkscape:spray-origin="#path215"
       xlink:href="#path215"
       transform="translate(-12.33897,13.136322)" />
    <use
       id="use219"
       inkscape:spray-origin="#path215"
       xlink:href="#path215"
       transform="translate(-9.7321026,14.775945)" />
    <use
       id="use220"
       inkscape:spray-origin="#path215"
       xlink:href="#path215"
       transform="translate(-6.4979042,16.901165)" />
    <use
       id="use221"
       inkscape:spray-origin="#path215"
       xlink:href="#path215"
       transform="translate(-0.14504149,19.291832)" />
    <use
       id="use222"
       inkscape:spray-origin="#path215"
       xlink:href="#path215"
       transform="translate(4.4143966,20.090896)" />
    <use
       id="use223"
       inkscape:spray-origin="#path215"
       xlink:href="#path215"
       transform="translate(5.4850861,22.102936)" />
    <use
       id="use224"
       inkscape:spray-origin="#path215"
       xlink:href="#path215"
       transform="translate(7.6529112,24.190867)" />
    <use
       id="use225"
       inkscape:spray-origin="#path215"
       xlink:href="#path215"
       transform="translate(9.6031913,26.377606)" />
    <use
       id="use226"
       inkscape:spray-origin="#path215"
       xlink:href="#path215"
       transform="translate(11.695229,29.143537)" />
    <use
       id="use227"
       inkscape:spray-origin="#path215"
       xlink:href="#path215"
       transform="translate(10.013358,31.30751)" />
    <use
       id="use228"
       inkscape:spray-origin="#path215"
       xlink:href="#path215"
       transform="translate(7.2344492,31.963929)" />
    <use
       id="use229"
       inkscape:spray-origin="#path215"
       xlink:href="#path215"
       transform="translate(2.7572642,35.587612)" />
    <use
       id="use230"
       inkscape:spray-origin="#path215"
       xlink:href="#path215"
       transform="translate(0.7464127,34.176818)" />
    <use
       id="use231"
       inkscape:spray-origin="#path215"
       xlink:href="#path215"
       transform="translate(-2.8099275,34.928521)" />
    <use
       id="use232"
       inkscape:spray-origin="#path215"
       xlink:href="#path215"
       transform="translate(-5.0021494,31.034621)" />
    <use
       id="use233"
       inkscape:spray-origin="#path215"
       xlink:href="#path215"
       transform="translate(-7.8737156,27.532113)" />
    <use
       id="use234"
       inkscape:spray-origin="#path215"
       xlink:href="#path215"
       transform="translate(-10.300569,28.768911)" />
    <use
       id="use235"
       inkscape:spray-origin="#path215"
       xlink:href="#path215"
       transform="translate(-12.492353,25.712274)" />
    <use
       id="use236"
       inkscape:spray-origin="#path215"
       xlink:href="#path215"
       transform="translate(-10.36742,22.798482)" />
    <use
       id="use237"
       inkscape:spray-origin="#path215"
       xlink:href="#path215"
       transform="translate(-10.688371,17.358332)" />
    <use
       id="use238"
       inkscape:spray-origin="#path215"
       xlink:href="#path215"
       transform="translate(-7.0170068,13.497267)" />
    <use
       id="use239"
       inkscape:spray-origin="#path215"
       xlink:href="#path215"
       transform="translate(-4.1685671,12.574051)" />
    <use
       id="use240"
       inkscape:spray-origin="#path215"
       xlink:href="#path215"
       transform="translate(-0.39257583,9.3369827)" />
    <use
       id="use241"
       inkscape:spray-origin="#path215"
       xlink:href="#path215"
       transform="translate(1.905407,9.5565856)" />
    <use
       id="use242"
       inkscape:spray-origin="#path215"
       xlink:href="#path215"
       transform="translate(4.3539275,6.2479215)" />
    <use
       id="use243"
       inkscape:spray-origin="#path215"
       xlink:href="#path215"
       transform="translate(6.9389314,7.8401926)" />
    <use
       id="use244"
       inkscape:spray-origin="#path215"
       xlink:href="#path215"
       transform="translate(8.0640084,9.546928)" />
    <use
       id="use245"
       inkscape:spray-origin="#path215"
       xlink:href="#path215"
       transform="translate(10.647751,9.8646895)" />
    <use
       id="use246"
       inkscape:spray-origin="#path215"
       xlink:href="#path215"
       transform="translate(9.8645262,11.651027)" />
    <use
       id="use247"
       inkscape:spray-origin="#path215"
       xlink:href="#path215"
       transform="translate(10.763364,14.184253)" />
    <use
       id="use248"
       inkscape:spray-origin="#path215"
       xlink:href="#path215"
       transform="translate(12.050225,16.452682)" />
    <use
       id="use249"
       inkscape:spray-origin="#path215"
       xlink:href="#path215"
       transform="translate(11.877395,19.744161)" />
    <use
       id="use250"
       inkscape:spray-origin="#path215"
       xlink:href="#path215"
       transform="translate(12.561581,22.40714)" />
    <use
       id="use251"
       inkscape:spray-origin="#path215"
       xlink:href="#path215"
       transform="translate(12.234575,26.550475)" />
    <use
       id="use252"
       inkscape:spray-origin="#path215"
       xlink:href="#path215"
       transform="translate(16.034968,24.783774)" />
    <use
       id="use253"
       inkscape:spray-origin="#path215"
       xlink:href="#path215"
       transform="translate(15.566012,27.876879)" />
    <use
       id="use254"
       inkscape:spray-origin="#path215"
       xlink:href="#path215"
       transform="translate(13.442783,30.073948)" />
    <use
       id="use255"
       inkscape:spray-origin="#path215"
       xlink:href="#path215"
       transform="translate(11.716734,32.063346)" />
    <use
       id="use256"
       inkscape:spray-origin="#path215"
       xlink:href="#path215"
       transform="translate(7.3959562,32.897743)" />
    <use
       id="use257"
       inkscape:spray-origin="#path215"
       xlink:href="#path215"
       transform="translate(4.8205208,32.115646)" />
    <use
       id="use258"
       inkscape:spray-origin="#path215"
       xlink:href="#path215"
       transform="translate(2.1783466,34.765943)" />
    <use
       id="use259"
       inkscape:spray-origin="#path215"
       xlink:href="#path215"
       transform="translate(-1.0139453,32.379634)" />
    <use
       id="use260"
       inkscape:spray-origin="#path215"
       xlink:href="#path215"
       transform="translate(-4.7339147,33.692738)" />
    <use
       id="use261"
       inkscape:spray-origin="#path215"
       xlink:href="#path215"
       transform="translate(-3.073919,29.180641)" />
    <use
       id="use262"
       inkscape:spray-origin="#path215"
       xlink:href="#path215"
       transform="translate(-4.4292656,25.522952)" />
    <use
       id="use263"
       inkscape:spray-origin="#path215"
       xlink:href="#path215"
       transform="translate(-0.63680759,21.318466)" />
    <use
       id="use264"
       inkscape:spray-origin="#path215"
       xlink:href="#path215"
       transform="translate(3.4068025,11.800941)" />
    <use
       id="use265"
       inkscape:spray-origin="#path215"
       xlink:href="#path215"
       transform="translate(4.5073458,9.8484081)" />
    <use
       id="use266"
       inkscape:spray-origin="#path215"
       xlink:href="#path215"
       transform="translate(8.2070523,6.4180227)" />
    <use
       id="use267"
       inkscape:spray-origin="#path215"
       xlink:href="#path215"
       transform="translate(4.3373757,4.1694519)" />
    <use
       id="use268"
       inkscape:spray-origin="#path215"
       xlink:href="#path215"
       transform="translate(4.7875041,4.1539541)" />
    <use
       id="use269"
       inkscape:spray-origin="#path215"
       xlink:href="#path215"
       transform="translate(3.1566868,1.5001699)" />
    <use
       id="use270"
       inkscape:spray-origin="#path215"
       xlink:href="#path215"
       transform="translate(0.34215392,1.0961579)" />
    <use
       id="use271"
       inkscape:spray-origin="#path215"
       xlink:href="#path215"
       transform="translate(-4.8038526,7.1938459)" />
    <use
       id="use272"
       inkscape:spray-origin="#path215"
       xlink:href="#path215"
       transform="translate(-6.3661153,9.5183186)" />
    <use
       id="use273"
       inkscape:spray-origin="#path215"
       xlink:href="#path215"
       transform="translate(-4.1535621,11.794531)" />
    <use
       id="use274"
       inkscape:spray-origin="#path215"
       xlink:href="#path215"
       transform="translate(-3.8003437,15.304394)" />
    <use
       id="use275"
       inkscape:spray-origin="#path215"
       xlink:href="#path215"
       transform="translate(-0.45737739,16.143634)" />
    <use
       id="use276"
       inkscape:spray-origin="#path215"
       xlink:href="#path215"
       transform="translate(2.0589362,18.096536)" />
    <use
       id="use277"
       inkscape:spray-origin="#path215"
       xlink:href="#path215"
       transform="translate(3.8998647,20.038889)" />
    <use
       id="use278"
       inkscape:spray-origin="#path215"
       xlink:href="#path215"
       transform="translate(10.062219,22.483356)" />
    <use
       id="use279"
       inkscape:spray-origin="#path215"
       xlink:href="#path215"
       transform="translate(11.697324,23.543843)" />
    <use
       id="use280"
       inkscape:spray-origin="#path215"
       xlink:href="#path215"
       transform="translate(12.660967,28.403848)" />
    <use
       id="use281"
       inkscape:spray-origin="#path215"
       xlink:href="#path215"
       transform="translate(14.451033,30.366798)" />
    <use
       id="use282"
       inkscape:spray-origin="#path215"
       xlink:href="#path215"
       transform="translate(13.050789,31.828637)" />
    <use
       id="use283"
       inkscape:spray-origin="#path215"
       xlink:href="#path215"
       transform="translate(13.202812,33.871672)" />
    <use
       id="use284"
       inkscape:spray-origin="#path215"
       xlink:href="#path215"
       transform="translate(14.371114,29.371496)" />
    <use
       id="use285"
       inkscape:spray-origin="#path215"
       xlink:href="#path215"
       transform="translate(14.824074,26.705592)" />
    <use
       id="use286"
       inkscape:spray-origin="#path215"
       xlink:href="#path215"
       transform="translate(15.075524,23.126956)" />
    <use
       id="use287"
       inkscape:spray-origin="#path215"
       xlink:href="#path215"
       transform="translate(17.004125,18.958605)" />
    <use
       id="use288"
       inkscape:spray-origin="#path215"
       xlink:href="#path215"
       transform="translate(13.977223,17.310148)" />
    <use
       id="use289"
       inkscape:spray-origin="#path215"
       xlink:href="#path215"
       transform="translate(16.366648,12.971172)" />
    <use
       id="use290"
       inkscape:spray-origin="#path215"
       xlink:href="#path215"
       transform="translate(14.365933,8.9076138)" />
    <use
       id="use291"
       inkscape:spray-origin="#path215"
       xlink:href="#path215"
       transform="translate(15.009115,7.6302573)" />
    <use
       id="use292"
       inkscape:spray-origin="#path215"
       xlink:href="#path215"
       transform="translate(11.725039,5.5497264)" />
    <use
       id="use293"
       inkscape:spray-origin="#path215"
       xlink:href="#path215"
       transform="translate(12.253805,1.8618928)" />
    <use
       id="use294"
       inkscape:spray-origin="#path215"
       xlink:href="#path215"
       transform="translate(12.694041,4.081526)" />
    <use
       id="use295"
       inkscape:spray-origin="#path215"
       xlink:href="#path215"
       transform="translate(12.793793,5.8461952)" />
    <use
       id="use296"
       inkscape:spray-origin="#path215"
       xlink:href="#path215"
       transform="translate(14.804955,8.255163)" />
    <use
       id="use297"
       inkscape:spray-origin="#path215"
       xlink:href="#path215"
       transform="translate(17.792593,9.2876357)" />
    <use
       id="use298"
       inkscape:spray-origin="#path215"
       xlink:href="#path215"
       transform="translate(19.52512,14.210017)" />
    <use
       id="use299"
       inkscape:spray-origin="#path215"
       xlink:href="#path215"
       transform="translate(18.933577,18.70934)" />
    <use
       id="use300"
       inkscape:spray-origin="#path215"
       xlink:href="#path215"
       transform="translate(17.57839,19.635146)" />
    <use
       id="use301"
       inkscape:spray-origin="#path215"
       xlink:href="#path215"
       transform="translate(17.636348,23.323195)" />
    <use
       id="use302"
       inkscape:spray-origin="#path215"
       xlink:href="#path215"
       transform="translate(19.211857,25.849085)" />
    <use
       id="use303"
       inkscape:spray-origin="#path215"
       xlink:href="#path215"
       transform="translate(15.416797,27.954869)" />
    <use
       id="use304"
       inkscape:spray-origin="#path215"
       xlink:href="#path215"
       transform="translate(15.095006,32.81537)" />
    <use
       id="use305"
       inkscape:spray-origin="#path215"
       xlink:href="#path215"
       transform="translate(15.172124,33.841608)" />
    <use
       id="use306"
       inkscape:spray-origin="#path215"
       xlink:href="#path215"
       transform="translate(12.985832,35.084874)" />
    <use
       id="use307"
       inkscape:spray-origin="#path215"
       xlink:href="#path215"
       transform="translate(13.788477,35.257328)" />
    <use
       id="use308"
       inkscape:spray-origin="#path215"
       xlink:href="#path215"
       transform="translate(9.6953288,35.657882)" />
    <use
       id="use309"
       inkscape:spray-origin="#path215"
       xlink:href="#path215"
       transform="translate(9.3185326,37.279688)" />
    <use
       id="use310"
       inkscape:spray-origin="#path215"
       xlink:href="#path215"
       transform="translate(13.923141,34.21556)" />
    <use
       id="use311"
       inkscape:spray-origin="#path215"
       xlink:href="#path215"
       transform="translate(14.024738,33.618924)" />
    <use
       id="use312"
       inkscape:spray-origin="#path215"
       xlink:href="#path215"
       transform="translate(18.926718,30.461044)" />
    <use
       id="use313"
       inkscape:spray-origin="#path215"
       xlink:href="#path215"
       transform="translate(20.329922,27.921156)" />
    <use
       id="use314"
       inkscape:spray-origin="#path215"
       xlink:href="#path215"
       transform="translate(19.536231,25.082674)" />
    <use
       id="use315"
       inkscape:spray-origin="#path215"
       xlink:href="#path215"
       transform="translate(21.61107,21.734389)" />
    <use
       id="use316"
       inkscape:spray-origin="#path215"
       xlink:href="#path215"
       transform="translate(21.495822,17.619656)" />
    <use
       id="use317"
       inkscape:spray-origin="#path215"
       xlink:href="#path215"
       transform="translate(19.702758,15.643618)" />
    <use
       id="use318"
       inkscape:spray-origin="#path215"
       xlink:href="#path215"
       transform="translate(20.402085,14.878303)" />
    <use
       id="use319"
       inkscape:spray-origin="#path215"
       xlink:href="#path215"
       transform="translate(19.406541,13.07082)" />
    <use
       id="use320"
       inkscape:spray-origin="#path215"
       xlink:href="#path215"
       transform="translate(21.215365,13.402864)" />
    <use
       id="use321"
       inkscape:spray-origin="#path215"
       xlink:href="#path215"
       transform="translate(21.633153,20.599632)" />
    <use
       id="use322"
       inkscape:spray-origin="#path215"
       xlink:href="#path215"
       transform="translate(20.369248,25.303573)" />
    <use
       id="use323"
       inkscape:spray-origin="#path215"
       xlink:href="#path215"
       transform="translate(19.426668,29.931638)" />
    <use
       id="use324"
       inkscape:spray-origin="#path215"
       xlink:href="#path215"
       transform="translate(17.359256,32.662273)" />
    <use
       id="use325"
       inkscape:spray-origin="#path215"
       xlink:href="#path215"
       transform="translate(14.819795,34.010095)" />
    <use
       id="use326"
       inkscape:spray-origin="#path215"
       xlink:href="#path215"
       transform="translate(13.903526,36.174363)" />
    <use
       id="use327"
       inkscape:spray-origin="#path215"
       xlink:href="#path215"
       transform="translate(9.0913735,41.139738)" />
    <use
       id="use328"
       inkscape:spray-origin="#path215"
       xlink:href="#path215"
       transform="translate(4.1509421,39.665109)" />
    <use
       id="use329"
       inkscape:spray-origin="#path215"
       xlink:href="#path215"
       transform="translate(3.6191873,41.07944)" />
    <use
       id="use330"
       inkscape:spray-origin="#path215"
       xlink:href="#path215"
       transform="translate(1.9841079,40.832767)" />
    <use
       id="use331"
       inkscape:spray-origin="#path215"
       xlink:href="#path215"
       transform="translate(-0.13922442,41.599321)" />
    <use
       id="use332"
       inkscape:spray-origin="#path215"
       xlink:href="#path215"
       transform="translate(-1.9148157,38.519425)" />
    <use
       id="use333"
       inkscape:spray-origin="#path215"
       xlink:href="#path215"
       transform="translate(-3.7406395,38.676229)" />
    <use
       id="use334"
       inkscape:spray-origin="#path215"
       xlink:href="#path215"
       transform="translate(-2.8147119,34.223024)" />
    <use
       id="use335"
       inkscape:spray-origin="#path215"
       xlink:href="#path215"
       transform="translate(-3.1741362,32.031522)" />
    <use
       id="use336"
       inkscape:spray-origin="#path215"
       xlink:href="#path215"
       transform="translate(-5.1479606,31.688526)" />
    <use
       id="use337"
       inkscape:spray-origin="#path215"
       xlink:href="#path215"
       transform="translate(-5.303523,29.899851)" />
    <use
       id="use338"
       inkscape:spray-origin="#path215"
       xlink:href="#path215"
       transform="translate(-6.7516415,29.237465)" />
    <use
       id="use339"
       inkscape:spray-origin="#path215"
       xlink:href="#path215"
       transform="translate(-9.4604361,33.530344)" />
    <use
       id="use340"
       inkscape:spray-origin="#path215"
       xlink:href="#path215"
       transform="translate(-7.9449515,35.769022)" />
    <use
       id="use341"
       inkscape:spray-origin="#path215"
       xlink:href="#path215"
       transform="translate(-9.4555736,37.075085)" />
    <use
       id="use342"
       inkscape:spray-origin="#path215"
       xlink:href="#path215"
       transform="translate(-4.5820702,40.810727)" />
    <use
       id="use343"
       inkscape:spray-origin="#path215"
       xlink:href="#path215"
       transform="translate(-2.8748218,41.77895)" />
    <use
       id="use344"
       inkscape:spray-origin="#path215"
       xlink:href="#path215"
       transform="translate(-0.57015272,42.344249)" />
    <use
       id="use345"
       inkscape:spray-origin="#path215"
       xlink:href="#path215"
       transform="translate(0.7458367,41.341202)" />
    <use
       id="use346"
       inkscape:spray-origin="#path215"
       xlink:href="#path215"
       transform="translate(3.4012745,42.153322)" />
    <path
       style="fill:#ffffff"
       d="m 4.2576839,19.294892 c -0.00235,0.201816 -0.047234,0.407663 -0.00704,0.605448 0.2335846,1.149269 1.0949539,2.09202 1.8044732,2.969863 0.2392735,0.296037 0.5713749,0.818057 0.7492257,0.647987"
       id="path346" />
    <path
       style="fill:#ffffff"
       d="m 6.5546059,13.866633 c -0.036347,-0.08541 -0.1239531,-0.164611 -0.1090422,-0.256227 0.00948,-0.05822 0.2156979,-0.07536 0.608526,0.213688 0.3672169,0.270202 1.4684945,1.529111 2.08939,1.26135"
       id="path347" />
    <path
       style="fill:#ffffff"
       d="m 11.781598,10.067742 c 0.07152,0.314266 0.179953,0.62236 0.214567,0.942798 0.09294,0.860428 -0.09101,3.823507 1.312025,3.976964"
       id="path348" />
    <path
       style="fill:#ffffff"
       d="m 7.3952864,18.259101 c -0.05159,-0.218634 -0.1558339,-0.431267 -0.1547696,-0.655902 0.00133,-0.281554 0.054565,-0.568695 0.1618046,-0.829029 1.1040202,-2.680105 2.0257608,-3.110651 3.9853176,-4.859415"
       id="path349" />
    <path
       style="fill:#ffffff"
       d="M 6.4842561,11.834622 C 6.5370185,11.54377 6.5074244,11.224975 6.6425432,10.962065 7.5762759,9.1452313 9.6164769,7.2467738 11.591654,6.6002652"
       id="path350" />
    <path
       style="fill:#ffffff"
       d="m 11.201212,6.2005902 c 0.33436,1.0173488 0.623514,2.040227 1.05173,3.023284 0.125207,0.2874368 0.281364,0.6263447 0.520589,0.8359538"
       id="path351" />
    <path
       style="fill:#ffffff"
       d="m 6.0621571,11.580374 c -0.094972,0.07123 -0.2375278,0.104841 -0.2849168,0.213687 -0.1019134,0.234083 0.1075612,1.162784 0.1336647,1.24849 0.3592015,1.179374 1.3458618,3.503092 2.8667556,3.503092"
       id="path352" />
    <path
       style="fill:#ffffff"
       d="M 3.7757876,19.296871 C 3.6679178,19.205526 3.5423803,19.131663 3.4521784,19.022836 3.0278271,18.510863 4.1929306,16.47186 4.4194885,16.118268 4.6091686,15.822231 5.0545958,15.113258 5.5099109,15.090391"
       id="path353" />
    <path
       style="fill:#ffffff"
       d="m 10.976093,23.222391 c 0.226292,0.08871 0.437856,0.234717 0.678876,0.266121 0.918939,0.119734 1.852845,-0.121952 2.778818,-0.08508 1.595973,0.06355 1.322248,0.06373 2.529076,0.680635"
       id="path354" />
    <path
       style="fill:#ffffff"
       d="m 19.358275,19.14353 c -0.128974,-0.08442 -0.269111,-0.153855 -0.386924,-0.253259 -0.02522,-0.02128 0.07088,-0.0082 0.09849,0.0099 0.105254,0.06889 0.18397,0.173281 0.288434,0.243366 0.459108,0.308015 0.963801,0.549645 1.399962,0.889376 1.803786,1.404994 2.799868,4.210653 4.924488,5.20171"
       id="path355" />
    <path
       style="fill:#ffffff"
       d="m 30.213254,21.950159 c -0.662116,-1.046646 -0.222862,-0.510397 0.587421,0.188955 0.894425,0.771974 1.783824,1.740724 2.923036,2.155673"
       id="path356" />
    <path
       style="fill:#ffffff"
       d="m 25.432983,32.692908 c 1.304091,0.332219 2.743722,0.713597 4.073255,0.298767"
       id="path357" />
    <path
       style="fill:#ffffff"
       d="m 23.885287,30.870627 c -0.106697,-0.0643 -0.383811,-0.08586 -0.320092,-0.192912 0.342362,-0.575168 1.464503,-0.993631 2.008488,-1.179239 1.292432,-0.440979 2.637637,-0.697292 3.96773,-0.987316"
       id="path358" />
    <path
       style="fill:#ffffff"
       d="m 26.565615,27.701917 c -0.02931,0.231165 -0.118292,0.462465 -0.08794,0.693495 0.075,0.570832 0.545945,1.968945 0.998968,2.455429"
       id="path359" />
    <path
       style="fill:#ffffff"
       d="m 27.459058,25.320685 c -0.106697,-0.117396 -0.213394,-0.234792 -0.320091,-0.352189 0.04408,0.236655 -0.06323,-0.08258 -0.04573,-0.06331 0.406708,0.447648 0.865663,0.850387 1.23464,1.329612 0.875151,1.136642 1.440778,2.557751 2.821028,3.186518"
       id="path360" />
    <path
       style="fill:#ffffff"
       d="m 21.813484,28.956342 c -0.08325,-0.03528 -0.238759,-0.01611 -0.249742,-0.105854 -0.02769,-0.226309 0.704592,-1.107245 0.777366,-1.193089 1.047819,-1.235998 2.316625,-2.459409 3.858688,-3.036145"
       id="path361" />
    <path
       style="fill:#ffffff"
       d="m 25.538508,23.860486 c -0.01173,0.313937 -0.07436,0.630107 -0.03517,0.941809 0.102826,0.817964 0.506963,1.967752 1.002485,2.638448 0.181371,0.245489 0.491338,0.637448 0.819576,0.703389"
       id="path362" />
    <path
       style="fill:#ffffff"
       d="m 29.998687,22.697076 c -0.07955,-0.565561 -0.03052,-0.292076 -0.126629,-0.748896 -0.0025,-0.01184 -0.0091,-0.04755 -0.007,-0.03561 0.309339,1.829455 -0.01201,-0.520442 -0.02111,2.284281 -0.0019,0.586642 0.07492,1.17148 0.144217,1.754019 0.06885,0.578792 0.200556,1.620235 0.847715,1.871745"
       id="path363" />
    <path
       style="fill:#ffffff"
       d="m 31.222774,21.076612 c -0.03869,-0.137512 -0.07738,-0.275024 -0.116077,-0.412536 -0.01876,-0.01913 -0.06354,-0.08317 -0.05628,-0.05738 0.04519,0.160605 0.114905,0.313276 0.172357,0.469915 -0.02111,0.582035 -0.143957,1.169297 -0.06332,1.746104 0.105287,0.753076 0.439808,1.800573 0.991933,2.434654"
       id="path364" />
    <path
       style="fill:#ffffff"
       d="m 29.917785,17.721914 c -0.202909,0.137677 -0.872543,0.464454 -0.823093,0.86959 0.01549,0.126894 0.213721,0.184691 0.341197,0.175105 0.827795,-0.06225 2.021375,-0.540837 2.768265,-0.816168 0.646975,-0.238499 1.337136,-0.463763 1.938138,-0.806275"
       id="path365" />
    <path
       style="fill:#ffffff"
       d="m 30.417269,14.907371 c -0.158287,-0.05276 -0.31177,-0.123077 -0.474862,-0.158287 -0.01829,-0.0039 -0.03158,0.03308 -0.02462,0.05045 0.120897,0.30189 0.276132,0.589104 0.400994,0.889376 0.339521,0.81649 0.669911,1.636826 0.991933,2.460375 0.164063,0.419582 0.602863,2.105585 1.020072,2.333746"
       id="path366" />
    <path
       style="fill:#ffffff"
       d="m 29.337399,13.460033 c -0.08676,-0.01847 -0.237844,-0.141221 -0.260295,-0.0554 -0.206924,0.791001 -0.283011,3.026775 -0.05276,3.902767 0.04568,0.173806 0.156794,0.329208 0.277882,0.462 0.08763,0.0961 0.309763,-0.0033 0.383407,-0.02473"
       id="path367" />
    <path
       style="fill:#ffffff"
       d="m 30.406716,7.419401 c -0.832423,1.2857407 -1.310941,2.841072 -1.364786,4.37466 -0.01389,0.395482 -0.0447,0.831036 0.221602,1.145603"
       id="path368" />
    <path
       style="fill:#ffffff"
       d="m 27.66659,3.5344415 c -0.08676,-0.045178 -0.215116,-0.2222982 -0.260294,-0.1355334 -0.04518,0.086765 0.163397,0.1221168 0.260294,0.1355334 0.291613,0.040377 0.589499,-0.00153 0.882891,0.022754 1.048868,0.086814 1.937427,0.2136876 2.975798,0.2136876"
       id="path369" />
    <path
       style="fill:#ffffff"
       d="m 28.693698,1.3589829 c -0.04807,0.1055247 -0.136013,0.2009061 -0.144217,0.3165742 -0.01949,0.2748133 0.05094,0.5488568 0.06331,0.8240823 0.05639,1.2539978 0.0528,1.3467903 -0.03517,2.5424869 -0.04773,0.6486649 -0.257597,1.2531986 0.256777,1.7292868"
       id="path370" />
    <path
       style="fill:#ffffff"
       d="m 25.573683,3.4137476 c 0.134837,0.046167 0.262368,0.128124 0.404511,0.1385012 0.415174,0.03031 0.832437,-0.020036 1.24871,-0.017807 0.944621,0.00506 1.881936,0.080228 2.824546,0.1256404 0.55784,0.026875 1.337241,-0.132903 1.758745,0.3294351"
       id="path371" />
    <path
       style="fill:#ffffff"
       d="m 26.646518,2.0969966 c 0.521712,0.5298399 1.135887,0.9454431 1.723571,1.3949052 0.0055,0.00418 0.288434,0.2510967 0.288434,0.1582871 0,-0.4853201 -0.681858,-1.1157683 -1.048213,-1.3820444 -0.287183,-0.2087324 -0.276164,-0.1993106 -0.517071,-0.3264672 -0.0526,-0.027762 -0.180279,-0.1317176 -0.161804,-0.075186 0.108627,0.3324004 0.345919,0.6089457 0.545211,0.8963008 0.505138,0.7283507 1.095089,1.1408611 1.804473,1.6184858"
       id="path372" />
    <path
       style="fill:#ffffff"
       d="m 32.436309,3.7886902 c -0.386272,0.4290551 -0.279932,0.2108568 -0.411547,0.8844293 -0.02793,0.1429412 -0.05286,0.2870531 -0.06331,0.4323217 -0.01055,0.1465493 -0.01217,0.452865 0.0211,0.635127 0.02338,0.1280728 0.06073,0.4247241 0.168839,0.3521889 0.545675,-0.366112 0.899327,-1.2538952 1.125597,-1.8549272 0.04349,-0.1155198 0.252436,-0.7177701 0.284917,-0.8112215 0.08326,-0.2395304 0.04256,-0.1107632 0.09849,-0.3116278 0.0033,-0.011928 0.01862,-0.045009 0.01055,-0.035615 -0.239537,0.2790063 -0.491483,0.5488958 -0.707015,0.8468361 -0.436059,0.6027846 -0.926776,1.3900663 -1.143185,2.116101 -0.03397,0.1139678 0.122224,0.2076533 0.179392,0.2661202"
       id="path373" />
    <path
       style="fill:#ffffff"
       d="m 16.660359,19.422511 c -0.46313,0.08108 -0.799476,0.286574 -1.146702,0.595556 -0.295495,0.262948 -0.584394,0.566481 -0.837163,0.872557 -0.06684,0.08094 -0.568511,0.788118 -0.538176,0.833976 0.186883,0.282514 2.433124,-1.307588 2.754196,-1.530439 0.299424,-0.207826 0.604677,-0.407336 0.900477,-0.620288 0.03815,-0.02746 0.126094,-0.06287 0.09849,-0.100908 -0.337011,-0.464443 -0.825534,-0.10501 -1.231122,-0.05045 -0.183862,0.02473 -0.376382,-0.077 -0.555763,-0.02968 -0.376447,0.09931 -0.877653,0.373306 -1.090423,0.739003"
       id="path374" />
    <path
       style="fill:#ffffff"
       d="m 15.844301,25.123815 c -0.684825,-0.09915 -1.378037,-0.03655 -2.06125,0.03858 -1.255815,0.138099 -0.03011,0.0388 -1.234639,0.145426 -0.09479,0.0084 -0.189879,0.01304 -0.284917,0.01781 -0.02342,0.0012 -0.09205,0.0089 -0.07035,0 0.605748,-0.248249 1.597584,0.356259 2.251195,0.437268 0.726305,0.09002 1.46141,0.01058 2.187879,-0.01781 0.0985,-0.0038 0.682432,0.05735 0.794953,-0.03759 0.111825,-0.09435 -0.244626,-0.167351 -0.383406,-0.213687 -0.265016,-0.08848 -0.536318,-0.163777 -0.812541,-0.205774 -0.404843,-0.06155 -0.814867,-0.08885 -1.224087,-0.103876 -0.570825,-0.02096 -1.184689,0.02058 -1.751711,0.118716"
       id="path375" />
    <path
       style="fill:#ffffff"
       d="m 17.166878,26.955989 c 0.02975,-0.270933 4.14e-4,-0.247696 0.133665,-0.489701 0.112846,-0.204946 0.24642,-0.419202 0.404511,-0.595555 0.07027,-0.07839 0.250826,-0.272156 0.26733,-0.16818 0.05484,0.345481 -0.721353,1.076549 -0.805506,1.253436 -0.105919,0.222638 -0.08312,0.486412 -0.1407,0.726142 -0.336721,1.401836 0.01462,-0.370465 -0.225119,0.849804 -0.09109,0.463658 -0.285901,1.091517 0.277882,0.338339"
       id="path376" />
    <path
       style="fill:#ffffff"
       d="m 15.309642,29.192784 c -0.657838,0.408759 -0.427423,0.196082 -0.974345,1.434477 -0.156499,0.354361 -0.26089,0.730164 -0.365819,1.103063 -0.08526,0.303007 -0.145016,0.612827 -0.204014,0.922023 -0.04697,0.246169 -0.08255,0.557309 -0.04573,0.81221 0.01293,0.08954 0.03395,0.283294 0.116077,0.245345 0.330275,-0.152604 0.456915,-0.569243 0.643701,-0.881461 0.519895,-0.869013 0.933403,-1.815624 1.329612,-2.746281 0.146633,-0.344427 0.593848,-1.268492 0.260295,-1.636294 -0.168354,-0.185639 -0.420567,-0.09542 -0.597974,0.06529 -0.611925,0.554332 -2.774103,2.398924 -2.617014,3.746458"
       id="path377" />
    <path
       style="fill:#ffffff"
       d="m 42.468195,29.372835 c -0.375455,1.109158 -0.83627,2.183439 -1.347199,3.236972 -0.184942,0.381349 -0.393959,0.750545 -0.590939,1.125817 -0.220429,0.437928 -0.4482,0.872237 -0.661288,1.313783 -0.104115,0.215739 -0.822827,1.586938 -0.766814,1.942975 0.02935,0.186525 0.338137,-0.184013 0.464309,-0.324489 0.565274,-0.629354 0.781021,-1.060907 1.294437,-1.751051 1.017631,-1.367918 2.043373,-2.648482 2.831581,-4.168887 0.243697,-0.470078 0.596148,-1.26205 0.485414,-1.847013 -0.103672,-0.547659 -0.925193,0.01297 -1.709501,0.471893 -0.401606,0.234992 -0.822462,0.452883 -1.167807,0.764725 -0.635835,0.574151 -1.423781,1.740141 -1.160773,2.648341"
       id="path378" />
    <path
       style="fill:#ffffff"
       d="m 35.830688,37.758096 c 0.123184,-0.800759 0.121121,-0.179075 0,0 -0.145678,0.215383 -0.400731,0.336816 -0.562798,0.540154 -0.171362,0.215 -0.293725,0.465101 -0.429134,0.704378 -0.05191,0.09173 -0.19027,0.328941 -0.08794,0.303714 0.278036,-0.06854 0.766784,-0.540777 0.865303,-0.63117 0.632655,-0.580474 1.253833,-1.236638 1.663774,-1.999365"
       id="path379" />
    <path
       style="fill:#ffffff"
       d="m 37.628126,39.655562 c -0.173529,0.133225 -0.376,0.235494 -0.520588,0.399675 -0.112546,0.127798 -0.156495,0.302516 -0.232155,0.455076 -0.133562,0.269312 -0.584295,1.043774 0.179392,0.462 0.699302,-0.532725 1.417718,-1.239154 1.797439,-2.050807"
       id="path380" />
    <path
       style="fill:#ffffff"
       d="m 33.231262,41.525329 c -0.501624,0.658135 -0.965509,1.356843 -1.294437,2.120058 -0.141717,0.328828 -0.207712,0.680104 -0.07035,0.665795 0.261188,-0.02721 0.871224,-0.606395 0.963793,-0.695474 0.845205,-0.813335 1.404053,-1.775217 1.973313,-2.783874"
       id="path381" />
    <path
       style="fill:#ffffff"
       d="m 42.594825,20.786748 c 0.605479,0.834609 0.653527,1.86816 0.847715,2.84719 0.05844,0.294652 0.187206,0.533692 0.22512,0.49069 0.241556,-0.273979 0.280647,-0.778525 0.337679,-1.073385 0.04351,-0.22495 0.0751,-0.452064 0.109042,-0.678656 0.07529,-0.502605 0.06072,-0.358737 0.07035,-0.778574"
       id="path382" />
    <path
       style="fill:#ffffff"
       d="m 40.593372,13.628213 c 0.106697,0.220283 0.223599,0.435909 0.320092,0.660849 0.326455,0.76102 0.546956,1.672225 1.090422,2.326821 0.326931,0.393783 0.499972,0.111439 0.555764,-0.344275 0.140608,-1.14851 0.124652,-1.21159 0.105524,-2.022118"
       id="path383" />
    <path
       style="fill:#ffffff"
       d="m 38.679856,12.678491 c 0.411044,0.894513 0.798473,1.797158 1.13615,2.721549 0.02458,0.06729 0.196317,0.752451 0.418582,0.721195"
       id="path384" />
    <path
       style="fill:#ffffff"
       d="m 14.595592,7.9694488 c -1.449895,-0.2081466 -1.602016,2.6337472 -0.573351,3.0905562 0.408444,0.181381 0.974894,-0.05399 1.340164,-0.223581 0.64306,-0.298564 1.875073,-1.1673933 1.94869,-1.9617708 0.02468,-0.2663212 0.01914,-0.5365083 -0.01055,-0.8023178 C 17.276385,7.8560449 17.121058,7.6028709 16.969898,7.4550156 16.629733,7.1222861 15.941365,6.60688 15.39758,6.8188992 15.127603,6.9241618 14.865889,7.0626 14.637802,7.241328 14.072659,7.68417 12.65825,9.6472082 13.765464,10.218115"
       id="path385" />
    <path
       style="fill:#ffffff"
       d="M 8.5560586,20.960864 C 8.2664518,20.878753 7.984664,20.760923 7.6872382,20.71453 7.3913272,20.66837 6.7980312,21.009122 6.6601307,21.10629 5.606415,21.848769 5.103132,23.240882 5.3199664,24.501549 c 0.057258,0.332899 0.25099,0.884087 0.6437009,0.999188 0.5917072,0.173424 1.4887685,0.07502 2.082355,-0.127619 0.7298451,-0.249157 1.3905688,-0.543055 1.9733127,-1.047663 1.125236,-0.974362 1.698722,-2.517985 0.805506,-3.860227 -0.142252,-0.213764 -0.360127,-0.371376 -0.573351,-0.514433 -1.5581497,-1.0454 -3.4772604,0.182784 -4.0451157,1.700597 -0.2658761,0.710656 0.2297145,1.430196 0.5803861,1.99046"
       id="path386" />
    <path
       style="fill:#ffffff"
       d="m 14.057415,32.574192 c -0.303676,0.06463 -0.621912,0.08073 -0.91103,0.193902 -0.483749,0.189357 -1.085883,0.69093 -1.312024,1.160443 -0.376205,0.781073 -0.776071,3.426537 0.597973,3.651486 0.261971,0.04289 0.532573,-0.04318 0.787918,-0.115748 1.819804,-0.517207 2.797143,-2.131286 2.036628,-3.932446 -0.709268,-1.679787 -2.664726,-0.780599 -3.316994,0.386815 -0.148122,0.265104 0.0062,0.609686 0.06331,0.85475"
       id="path387" />
    <path
       style="fill:#ffffff"
       d="m 21.975289,22.689162 c -0.127802,0.01253 -0.262093,-0.0045 -0.383407,0.03759 -0.652979,0.226677 -0.94115,1.580363 -0.636666,2.143801 0.293365,0.542862 1.107673,0.546106 1.628599,0.4066 1.139965,-0.305287 1.289271,-2.914926 0.232154,-3.40713 -0.395884,-0.184328 -0.710484,-0.149316 -1.090422,0.110801 -1.096379,0.750615 -1.395775,1.83275 -0.527624,2.90259"
       id="path388" />
    <path
       style="fill:#ffffff"
       d="m 33.132772,13.691528 c -0.172357,-0.02539 -0.346246,-0.110389 -0.517071,-0.07618 -0.159484,0.03194 -0.284853,0.160162 -0.411547,0.262164 -0.78156,0.629238 -1.556938,1.718587 -1.312024,2.783874 0.157691,0.685898 0.60649,1.275677 1.132632,1.723351 0.246899,0.210077 0.752384,0.187529 1.00952,0.04551 0.365466,-0.201854 0.709281,-0.453653 1.002486,-0.750875 0.601895,-0.610141 1.21362,-2.415294 0.837163,-3.236971 -0.764532,-1.668711 -2.912127,-0.146624 -3.46473,0.902236 -0.247728,0.470197 0.04186,1.046382 0.260295,1.467124"
       id="path389" />
    <path
       style="fill:#ffffff"
       d="m 41.915949,17.108551 c -0.637321,0.480381 -0.609464,0.377664 -1.07987,1.349398 -0.155996,0.322246 -0.03385,0.967838 0.07035,1.225736 0.495482,1.226319 1.951965,0.911447 2.708468,0.115747 0.791883,-0.832912 0.499666,-2.803588 -0.306022,-3.534749 -0.185852,-0.16866 -0.738273,-0.53861 -1.07987,-0.399675 -0.572694,0.232928 -1.145737,0.497394 -1.635633,0.874537 -0.198616,0.152902 -0.267294,0.427488 -0.358784,0.660848 -0.257501,0.656794 -0.252215,1.644425 0.358784,2.125005 0.521837,0.410449 1.120271,0.295899 1.705983,0.181041"
       id="path390" />
    <path
       style="fill:#ffffff"
       d="m 25.978194,31.712517 c -0.196979,-0.207752 -0.340782,-0.484031 -0.590938,-0.623256 -0.167151,-0.09303 -0.393789,-0.09069 -0.573351,-0.02473 -1.295037,0.475728 -2.199296,1.62327 -1.829096,3.048016 0.108633,0.418083 0.456472,1.306728 0.991933,1.519557 0.241863,0.09613 0.525586,0.139137 0.777365,0.07321 0.418533,-0.109595 0.852448,-0.27721 1.160773,-0.580716 0.391465,-0.385349 0.6576,-0.895435 0.858267,-1.406777 0.28302,-0.721192 0.2134,-2.087142 -0.341196,-2.703742 -0.921936,-1.025009 -2.368895,0.02784 -2.901931,0.917076 -0.258071,0.430529 0.06272,0.976911 0.256777,1.352366"
       id="path391" />
    <path
       style="fill:#ffffff"
       d="m 27.986682,39.723824 c -0.08911,0.07684 -0.200417,0.133722 -0.267329,0.230505 -0.513455,0.742676 0.07569,2.386756 0.678876,2.927323 0.874923,0.784095 1.957338,0.298143 2.518524,-0.590609 0.334301,-0.529435 0.434441,-1.308611 0.422099,-1.901424 -0.0089,-0.425594 -0.0949,-1.226204 -0.457274,-1.5987 -1.17642,-1.209279 -5.316477,1.49789 -3.144638,3.193443 0.228769,0.178599 0.548729,0.189285 0.823093,0.283927"
       id="path392" />
    <path
       style="fill:#ffffff"
       d="m 32.517211,4.3515987 c -0.01677,0.9375779 0.06188,1.6197126 1.10801,1.8618523 0.136634,0.031626 0.285326,0.00118 0.418582,-0.04254 1.067345,-0.3502227 1.119074,-2.1013662 0.474861,-2.8501574 -0.546866,-0.6356413 -1.953631,-0.3124158 -2.064768,0.4194608 -0.09717,0.6399184 0.324117,1.5911453 0.707016,2.048829"
       id="path393" />
    <path
       style="fill:#ffffff"
       d="m 27.068617,2.6430871 c -0.46151,0.1611551 -0.881935,0.5109229 -0.794953,1.0644809 0.176257,1.1217217 1.348716,1.6143455 2.194914,0.8547505 0.442584,-0.3972879 0.830556,-1.2278241 0.36582,-1.7609442 -0.242012,-0.277622 -0.612026,-0.4184015 -0.953241,-0.5233368 -0.64289,-0.1977113 -1.080709,-0.1070847 -1.607493,0.3699961 -0.306547,0.277623 -0.947848,1.2440234 -0.520589,1.6630041 0.381694,0.3742987 1.033247,0.3453021 1.519556,0.3244886"
       id="path394" />
    <path
       style="fill:#ffffff"
       d="m 1.8904121,23.354957 c -0.2392217,0.435647 -0.1130861,0.800599 -0.010552,1.249479 0.083848,0.367075 0.1762809,0.815014 0.2954693,1.188143 0.1192572,0.373344 0.1644829,0.503524 0.3236092,0.822103 0.1314595,0.26319 0.1817437,0.309527 0.1864271,0.303714 0.3336528,-0.41412 -0.051141,-2.513868 -0.221602,-3.035156 -0.076075,-0.232644 -0.2496548,-0.678899 -0.3130567,-0.670742 -0.098101,0.01262 -0.2528291,0.04383 -0.2602944,0.142459 -0.019971,0.263838 0.1150284,2.949451 0.4818963,3.322051 0.1200089,0.121884 0.332349,-0.305361 0.3587842,-0.346253"
       id="path395" />
    <path
       style="fill:#ffffff"
       d="m 2.4250708,24.591575 c 0.5485361,-0.42274 0.4089984,-0.371489 1.1431848,-0.652934 0.2641366,-0.101255 0.5351823,-0.183767 0.8055055,-0.26711 0.2733026,-0.08426 0.5691138,-0.14104 0.8477155,-0.200827 0.029527,-0.0063 0.2224097,-0.04641 0.2708469,-0.06035 0.014675,-0.0042 0.053811,-0.0079 0.04221,-0.01781 -0.558607,-0.478155 -2.4116215,0.03953 -2.7155035,0.714271 -0.060929,0.135286 -0.143322,0.343775 -0.07035,0.502561 0.3165499,0.688809 1.436881,-0.04293 1.7059834,-0.379889 0.027742,-0.03474 0.1322135,-0.162878 0.02814,-0.213687 -0.182041,-0.08887 -1.795301,0.679957 -1.1009749,0.425396"
       id="path396" />
    <path
       style="fill:#ffffff"
       d="m 3.8109625,27.778093 c 0.077269,-1.164367 -0.1976626,-0.0996 -0.3587841,0.564887 -0.098962,0.408133 -0.4681004,3.298151 0.1371821,1.186164 0.05747,-0.200526 0.1093201,-0.402678 0.1582871,-0.605448 C 3.8051,28.669117 3.8625524,28.414539 3.9200047,28.15996 3.8836573,28.032671 3.7846303,27.907824 3.8109625,27.778093 c 0.046246,-0.227841 0.2256617,-0.407821 0.3130567,-0.623256 0.031945,-0.07875 0.042269,-0.230496 0.052762,-0.334381 0.00449,-0.04443 0.014757,-0.178014 0.010553,-0.133555 -0.02958,0.312809 -0.041227,0.619096 0.00704,0.929937"
       id="path397" />
    <path
       style="fill:#ffffff"
       d="m 9.9771252,38.994714 c -0.083247,0.05342 -0.190035,0.0814 -0.2497419,0.160265 -0.2530021,0.334167 0.3807477,2.201015 0.6050087,2.593931 0.166072,0.290966 0.393119,0.551458 0.439686,0.499593 0.617993,-0.688289 -0.05066,-2.726434 -0.404511,-3.495177 -0.27041,-0.533576 -0.1538,-0.285577 -0.348232,-0.721196 -0.044836,-0.100453 -0.08576,-0.202708 -0.1336646,-0.301735 -0.00441,-0.0091 -0.017587,-0.03485 -0.017587,-0.02473 0,0.833085 0.1592056,1.509518 0.3763716,2.302088 0.151945,0.55454 0.299258,1.49565 0.893442,1.763912"
       id="path398" />
    <path
       style="fill:#ffffff"
       d="m 15.221705,42.115938 c -0.229809,0.236771 -0.474744,0.459747 -0.689428,0.710313 -0.277594,0.323991 -0.591588,0.817116 -0.626114,1.259372 -0.01533,0.196436 0.243962,0.152956 0.341197,0.09299 0.851759,-0.525256 1.455641,-1.167965 1.945173,-2.025086 0.161526,-0.282816 0.307622,-0.574842 0.439686,-0.872558 0.01857,-0.04186 0.04351,-0.228345 -0.03517,-0.26612 -0.187767,-0.09014 -0.424909,0.0929 -0.580386,0.231495 -0.760482,0.677919 -1.202167,1.467292 -1.473829,2.434654 -0.0902,0.321213 -0.04909,0.55899 -0.0211,0.550048 0.04922,-0.01573 0.09145,-0.04815 0.137183,-0.07222"
       id="path399" />
    <path
       style="fill:#ffffff"
       d="m 25.78825,17.714 c 0.395729,-0.23359 0.736428,-0.539629 1.072835,-0.848815 0.03989,-0.03666 0.154322,-0.152143 0.116077,-0.113769 -0.125008,0.12543 -0.250914,0.249962 -0.376372,0.374943 -0.270846,0.19588 -0.576405,0.351066 -0.81254,0.587641 -0.438007,0.438821 -0.813457,0.936613 -1.195947,1.424584 -0.0771,0.09836 -0.638472,0.803691 -0.696464,1.125817 -0.04453,0.247333 0.45529,-0.218136 0.661289,-0.362082 1.428524,-0.99821 2.838237,-2.087385 4.154157,-3.231036 0.220612,-0.191731 0.379363,-0.347915 0.527624,-0.597534 0.09775,-0.16458 0.03463,-0.305544 -0.189944,-0.184008 -0.267196,0.1446 -0.52361,0.310584 -0.766814,0.492668 -0.344107,0.257629 -0.667232,0.542388 -0.991932,0.824083 -0.812145,0.704578 -0.784716,0.684665 -1.27685,1.173303"
       id="path400" />
    <path
       style="fill:#ffffff"
       d="m 22.242618,16.418024 c -0.291744,-0.118613 -0.732315,-0.657803 -0.436169,0 0.100589,0.223429 0.197937,0.451661 0.33768,0.652934 0.201093,0.289637 0.438451,0.553299 0.678875,0.811222 0.126719,0.135941 0.444448,0.385777 0.626114,0.51839 0.05897,0.04304 0.199725,0.195756 0.179392,0.12564 -0.143741,-0.495673 -0.521916,-1.003621 -0.823093,-1.412712 -0.176806,-0.240158 -0.406541,-0.441466 -0.562799,-0.695474 -0.102625,-0.166825 -0.125649,-0.371534 -0.204014,-0.551037 -0.03043,-0.06971 -0.492914,-0.718661 -0.02814,-0.371975"
       id="path401" />
    <path
       style="fill:#ffffff"
       d="m 24.725967,12.618144 c -0.647024,0.244991 -0.898658,0.624436 -1.143184,1.231671 -0.0468,0.116211 -0.198403,0.410488 -0.0809,0.367029 0.234842,-0.08686 0.733309,-0.565561 0.794953,-0.616331 0.546396,-0.450009 1.11381,-0.874973 1.646186,-1.341483 0.472007,-0.413609 0.914376,-0.859939 1.364787,-1.296965 0.170184,-0.165126 0.403982,-0.479083 0.26733,-0.471894 -1.18774,0.06249 -3.264427,2.042184 -3.922004,3.054942 -0.281643,0.433768 -0.497927,0.784003 -0.168839,1.156485"
       id="path402" />
    <path
       style="fill:#ffffff"
       d="m 15.436272,22.616943 c -0.09263,-0.02869 -0.195731,-0.137586 -0.277882,-0.08607 -0.07058,0.04426 0.0019,0.16749 0.01759,0.249302 0.04658,0.242465 0.100211,0.484027 0.168839,0.721195 0.277638,0.959476 0.640143,1.833245 1.090423,2.72056 0.0074,0.01449 0.275811,0.465187 0.313057,0.520369 0.01805,0.02674 0.05866,0.105134 0.06331,0.07321 0.04001,-0.274569 -0.08824,-1.004014 -0.116077,-1.181218 -0.136211,-0.866926 -0.236483,-1.869682 -0.619078,-2.679009 -0.504174,-1.066509 0.233779,0.45525 -0.640184,-0.338339 -0.105411,-0.09572 0.01,-0.291598 -0.03869,-0.425396 -0.01251,-0.03439 -0.101805,0.01203 -0.09849,0.04847 0.01211,0.133153 0.09145,0.251281 0.137182,0.376921 z"
       id="path403" />
    <path
       style="fill:#ffffff"
       d="m 23.895839,26.877835 c -0.08882,-0.265889 -0.272419,-0.336018 -0.474861,-0.486733 -0.04174,-0.03107 -0.132219,-0.14719 -0.123112,-0.09596 0.123043,0.69212 0.354946,1.410597 0.721086,2.018161 0.187113,0.310491 0.420652,0.621993 0.678875,0.879483 0.104815,0.104516 0.111835,0.107522 0.235672,0.21072 0.01736,0.01446 0.04929,0.06486 0.05276,0.04254 0.04491,-0.28869 -0.150058,-0.566376 -0.260295,-0.836943 C 24.55009,28.199535 24.374215,27.789967 24.198341,27.380399 24.097506,27.212879 23.977719,27.055393 23.895836,26.877838 23.786913,26.641647 23.728999,26.38467 23.628507,26.14477 23.530677,25.911216 23.2832,25.550994 23.164198,25.36026"
       id="path404" />
    <path
       style="fill:#ffffff"
       d="m 20.965769,26.82837 c -0.451553,0.644404 -0.719161,1.002546 -1.13615,1.728297 -0.02398,0.04174 -0.321342,0.579778 -0.221602,0.731089 0.139798,0.212079 0.510087,-0.114727 0.714051,-0.26612 0.836555,-0.620938 1.51012,-1.435832 2.18788,-2.21602 0.177688,-0.204541 0.35528,-0.409244 0.527623,-0.618309 0.190711,-0.231345 0.265297,-0.377761 0.204015,-0.352189 -1.343584,0.560664 -2.544509,1.423566 -3.436589,2.586016 -0.526541,0.686124 -0.489278,0.567259 -0.439687,1.077342"
       id="path405" />
    <path
       style="fill:#ffffff"
       d="m 22.573263,30.640122 c 0.660859,0.333761 -0.846513,0.451076 -0.749226,0.79836 0.05504,0.196487 0.398203,0.108751 0.488931,0.09299 1.003115,-0.174209 1.898246,-0.636856 2.754196,-1.165389 0.299206,-0.184754 0.676886,-0.306557 0.865303,-0.60347 0.27843,-0.438757 -0.754349,-0.217541 -1.438654,-0.01286 -0.983637,0.294213 -1.124204,0.427699 -1.92055,0.890365 z"
       id="path406" />
    <path
       style="fill:#ffffff"
       d="m 33.00966,22.88801 c 0.56137,-0.575965 1.212147,-0.947243 1.973313,-1.210897 0.06101,-0.02113 0.456644,-0.181394 0.527624,-0.141469 0.153646,0.08643 0.03259,0.352178 0.02462,0.528284 -0.04008,0.886145 -0.128341,1.774557 0.225119,2.617673 0.16543,0.394603 0.584295,0.634546 0.946206,0.309649 0.962704,-0.864246 0.871262,-2.567603 -0.179392,-3.326997 -0.26731,-0.193207 -0.715455,-0.372357 -0.580386,0.187966"
       id="path407" />
  </g>
</svg>
