<?xml version="1.0" encoding="UTF-8" standalone="no"?>
<!-- Created with Inkscape (http://www.inkscape.org/) -->

<svg
   width="48"
   height="48"
   viewBox="0 0 48 48"
   version="1.1"
   id="svg1"
   inkscape:version="1.3 (0e150ed6c4, 2023-07-21)"
   sodipodi:docname="mozzarella.svg"
   xmlns:inkscape="http://www.inkscape.org/namespaces/inkscape"
   xmlns:sodipodi="http://sodipodi.sourceforge.net/DTD/sodipodi-0.dtd"
   xmlns="http://www.w3.org/2000/svg"
   xmlns:svg="http://www.w3.org/2000/svg">
  <sodipodi:namedview
     id="namedview1"
     pagecolor="#ffffff"
     bordercolor="#000000"
     borderopacity="0.25"
     inkscape:showpageshadow="2"
     inkscape:pageopacity="0.0"
     inkscape:pagecheckerboard="0"
     inkscape:deskcolor="#d1d1d1"
     inkscape:document-units="px"
     inkscape:zoom="16.770833"
     inkscape:cx="24"
     inkscape:cy="24"
     inkscape:window-width="2400"
     inkscape:window-height="1271"
     inkscape:window-x="2391"
     inkscape:window-y="-9"
     inkscape:window-maximized="1"
     inkscape:current-layer="layer1" />
  <defs
     id="defs1" />
  <g
     inkscape:label="Calque 1"
     inkscape:groupmode="layer"
     id="layer1">
    <path
       style="fill:#f9f9f9"
       id="path4"
       sodipodi:type="arc"
       sodipodi:cx="26.068077"
       sodipodi:cy="12.113897"
       sodipodi:rx="5.3921003"
       sodipodi:ry="5.1245694"
       sodipodi:start="0"
       sodipodi:end="6.2620298"
       sodipodi:open="true"
       sodipodi:arc-type="arc"
       d="m 31.460177,12.113897 a 5.3921003,5.1245694 0 0 1 -5.363582,5.124498 5.3921003,5.1245694 0 0 1 -5.420317,-5.070292 5.3921003,5.1245694 0 0 1 5.306248,-5.1781301 5.3921003,5.1245694 0 0 1 5.476445,5.0155201" />
    <path
       style="fill:#f9f9f9"
       id="path5"
       sodipodi:type="arc"
       sodipodi:cx="10.184075"
       sodipodi:cy="23.630518"
       sodipodi:rx="5.3542733"
       sodipodi:ry="5.2130661"
       sodipodi:start="0"
       sodipodi:end="6.2620298"
       sodipodi:open="true"
       sodipodi:arc-type="arc"
       d="m 15.538349,23.630518 a 5.3542733,5.2130661 0 0 1 -5.325956,5.212993 5.3542733,5.2130661 0 0 1 -5.3822914,-5.157852 5.3542733,5.2130661 0 0 1 5.2690234,-5.267551 5.3542733,5.2130661 0 0 1 5.438026,5.102133" />
    <path
       style="fill:#f9f9f9"
       id="path6"
       sodipodi:type="arc"
       sodipodi:cx="38.411789"
       sodipodi:cy="23.950169"
       sodipodi:rx="4.9467707"
       sodipodi:ry="4.9079227"
       sodipodi:start="0"
       sodipodi:end="6.2620298"
       sodipodi:open="true"
       sodipodi:arc-type="arc"
       d="m 43.35856,23.950169 a 4.9467707,4.9079227 0 0 1 -4.920608,4.907854 4.9467707,4.9079227 0 0 1 -4.972657,-4.855941 4.9467707,4.9079227 0 0 1 4.868009,-4.959218 4.9467707,4.9079227 0 0 1 5.024149,4.803483" />
    <path
       style="fill:#ffffff"
       id="path7"
       sodipodi:type="arc"
       sodipodi:cx="23.691837"
       sodipodi:cy="35.04752"
       sodipodi:rx="4.9656844"
       sodipodi:ry="4.7464046"
       sodipodi:start="0"
       sodipodi:end="6.2620298"
       sodipodi:open="true"
       sodipodi:arc-type="arc"
       d="m 28.657522,35.04752 a 4.9656844,4.7464046 0 0 1 -4.939422,4.746338 4.9656844,4.7464046 0 0 1 -4.991669,-4.696133 4.9656844,4.7464046 0 0 1 4.886621,-4.796013 4.9656844,4.7464046 0 0 1 5.043359,4.645403" />
    <path
       style="fill:#f9f9f9"
       id="path8"
       sodipodi:type="arc"
       sodipodi:cx="27.832201"
       sodipodi:cy="10.593984"
       sodipodi:rx="0.11004287"
       sodipodi:ry="0.11412649"
       sodipodi:start="0"
       sodipodi:end="6.2620298"
       sodipodi:open="true"
       sodipodi:arc-type="arc"
       d="m 27.942244,10.593984 a 0.11004287,0.11412649 0 0 1 -0.109461,0.114125 0.11004287,0.11412649 0 0 1 -0.110619,-0.112918 0.11004287,0.11412649 0 0 1 0.108291,-0.115319 0.11004287,0.11412649 0 0 1 0.111764,0.111697" />
    <path
       style="fill:#ffffff"
       d="m 22.622359,32.484025 c -0.119213,-0.03385 -0.234597,-0.116329 -0.357639,-0.101554 -0.452064,0.05429 -1.186015,1.455291 -1.337709,1.823123 -0.07232,0.175374 -0.142969,0.392083 -0.165064,0.582238 -0.0059,0.0506 -0.06655,0.164465 -0.01719,0.151846 0.142403,-0.03641 1.40034,-1.205326 1.650643,-1.39273 0.499518,-0.373993 1.058364,-0.701756 1.633448,-0.945895 0.184174,-0.07819 0.368747,-0.150632 0.560531,-0.207943 0.132804,-0.03968 0.302818,-0.06929 0.302618,-0.07157 -0.01383,-0.157528 -0.444753,-0.276629 -0.557092,-0.314331 -1.008569,-0.338485 -1.714116,-0.01638 -2.534425,0.606418 -0.273644,0.207758 -0.664358,0.452854 -0.618991,0.835638"
       id="path9" />
    <path
       style="fill:#ffffff"
       d="m 37.158334,20.829582 c -0.102019,-0.0026 -0.205554,-0.02545 -0.306057,-0.0077 -0.215693,0.03801 -0.462329,0.239771 -0.612113,0.363657 -0.683896,0.565649 -0.950124,1.510651 -1.03853,2.356035 -0.02554,0.244235 -0.04986,0.496111 -0.0619,0.741822 -0.0043,0.08705 -0.01032,0.196476 -0.01032,0.285317 0,0.01996 0.0039,0.07789 0.01032,0.059 0.532646,-1.55799 0.798349,-2.492261 2.365922,-3.338683 0.520299,-0.280939 1.038112,-0.440914 1.616254,-0.532913 0.03671,-0.0058 0.526837,-0.06163 0.50551,-0.105422 -0.06385,-0.131088 -0.410678,-0.15862 -0.50551,-0.170222 -0.505665,-0.06187 -1.052152,-0.01232 -1.537161,0.145076 -0.149883,0.04864 -0.279317,0.14757 -0.426416,0.204073 -0.443844,0.170489 -0.607512,0.144995 -0.866588,0.542585"
       id="path10" />
    <path
       style="fill:#ffffff"
       d="m 24.097621,8.8443666 c -0.113482,0 -0.234008,-0.03936 -0.340445,0 -0.09347,0.034563 -0.146223,0.1355021 -0.216647,0.206008 -0.486714,0.4872815 -0.931681,1.1174964 -0.962875,1.8298924 -0.0077,0.175662 0.01175,0.348929 0.04471,0.521307 0.0117,0.06121 0.01695,0.243591 0.03439,0.183763 0.429904,-1.475109 1.02506,-2.0395646 2.438138,-2.5813868 0.510274,-0.1956567 1.048509,-0.3740958 1.588744,-0.4671448 0.144192,-0.024835 0.291205,-0.025095 0.436732,-0.031917 0.05527,-0.00259 0.197413,0.027475 0.165064,-0.017409 -0.270991,-0.3760006 -1.69559,-0.091468 -2.01516,0.020311 -0.2415,0.084472 -0.455604,0.2408454 -0.701523,0.3114299 -0.15116,0.043387 -0.353694,-0.079462 -0.471121,0.025146 -0.191308,0.1704256 -0.186335,0.4785512 -0.306057,0.7050696"
       id="path11" />
    <path
       style="fill:#ffffff"
       d="m 7.9935353,20.561675 c -0.3018261,0.0915 -0.4591321,0.313965 -0.5949192,0.582239 -0.2685842,0.53064 -0.3570458,1.068037 -0.429855,1.650965 -0.020414,0.163438 -0.039319,0.327797 -0.05846,0.491324 -0.00603,0.05155 -0.055194,0.190099 -0.017194,0.154748 0.2414479,-0.224616 0.559022,-0.904449 0.835638,-1.233146 0.6613955,-0.785924 1.7138439,-1.411549 2.7098049,-1.663539 0.491564,-0.124371 0.999919,-0.21075 1.502773,-0.277579 0.01204,-0.0016 0.422551,-0.03612 0.419539,-0.059 -0.01519,-0.115339 -0.860254,-0.320456 -0.962875,-0.331741 -1.060792,-0.116647 -1.7907404,0.189505 -2.7407552,0.503898 -0.2177692,0.07207 -0.4790187,0.04577 -0.6636961,0.181828 -0.1091941,0.08045 -0.057617,0.26715 -0.1134817,0.390738 -0.1288487,0.285049 -0.1834763,0.204839 -0.2372799,0.537749"
       id="path12" />
  </g>
</svg>
