<?xml version="1.0" encoding="UTF-8" standalone="no"?>
<!-- Created with Inkscape (http://www.inkscape.org/) -->

<svg
   width="48"
   height="48"
   viewBox="0 0 48 48"
   version="1.1"
   id="svg1"
   sodipodi:docname="olive.svg"
   inkscape:version="1.3 (0e150ed6c4, 2023-07-21)"
   xmlns:inkscape="http://www.inkscape.org/namespaces/inkscape"
   xmlns:sodipodi="http://sodipodi.sourceforge.net/DTD/sodipodi-0.dtd"
   xmlns="http://www.w3.org/2000/svg"
   xmlns:svg="http://www.w3.org/2000/svg">
  <sodipodi:namedview
     id="namedview1"
     pagecolor="#ffffff"
     bordercolor="#000000"
     borderopacity="0.25"
     inkscape:showpageshadow="2"
     inkscape:pageopacity="0.0"
     inkscape:pagecheckerboard="0"
     inkscape:deskcolor="#d1d1d1"
     inkscape:document-units="px"
     inkscape:zoom="35.229167"
     inkscape:cx="24"
     inkscape:cy="40.974571"
     inkscape:window-width="2400"
     inkscape:window-height="1271"
     inkscape:window-x="2391"
     inkscape:window-y="-9"
     inkscape:window-maximized="1"
     inkscape:current-layer="layer1" />
  <defs
     id="defs1" />
  <g
     inkscape:label="Calque 1"
     inkscape:groupmode="layer"
     id="layer1">
    <path
       style="fill:#483737"
       d="m 8.7597656,12.021484 a 1.6973647,1.6846683 0 0 0 -1.6699218,1.703125 1.6973647,1.6846683 0 0 0 1.7050781,1.666016 1.6973647,1.6846683 0 0 0 1.6894531,-1.683594 l -0.002,-0.03711 A 1.6973647,1.6846683 0 0 0 8.7597656,12.021484 Z m -0.011719,0.511719 c 0.066773,-0.0017 0.1327702,0.0023 0.1992187,0.01758 0.1319999,0.03152 0.2624003,0.07514 0.3828125,0.138672 0.1141161,0.06408 0.2205739,0.138367 0.3085938,0.236328 0.070984,0.08407 0.1330505,0.174692 0.1699219,0.279297 0.03736,0.106784 0.064136,0.216808 0.072266,0.330078 0.00849,0.132402 0.00685,0.265856 -0.019531,0.396485 -0.026542,0.133471 -0.065283,0.26374 -0.1289062,0.384765 -0.059633,0.108154 -0.1297857,0.208941 -0.2285157,0.285156 -0.092899,0.069 -0.1938677,0.124707 -0.3066406,0.154297 -0.1087338,0.02767 -0.2194385,0.04516 -0.3320312,0.03516 -0.09798,-0.009 -0.195057,-0.02685 -0.2890625,-0.05664 C 8.4869069,14.707134 8.3977602,14.675246 8.3164062,14.628906 8.2178795,14.572047 8.124083,14.509614 8.0390625,14.433594 7.9329389,14.333841 7.8387245,14.221378 7.78125,14.085938 c -0.061163,-0.155977 -0.094617,-0.319852 -0.091797,-0.488282 0.0067,-0.166269 0.03391,-0.328179 0.109375,-0.478515 0.069479,-0.129727 0.1539437,-0.252267 0.2675781,-0.347657 0.00803,-0.0067 0.015673,-0.01253 0.023438,-0.01758 0.00138,-9.01e-4 0.00253,-0.0011 0.00391,-0.002 0.03794,-0.03188 0.079689,-0.06087 0.125,-0.08398 0.1049146,-0.05128 0.2130936,-0.0912 0.328125,-0.113281 0.066421,-0.01137 0.1343984,-0.01977 0.2011719,-0.02149 z m 0.068359,0.246094 c 0.00926,0.0059 0.01781,0.01179 0.025391,0.01953 0.0028,0.0029 0.00532,0.0063 0.00781,0.0098 0.00449,-0.0077 0.00871,-0.01601 0.013672,-0.02344 -0.01556,-0.0024 -0.031,-0.0048 -0.046875,-0.0059 z m 0.1347657,0.884765 c 8.997e-4,0.0077 0.00136,0.01581 0.00195,0.02344 8.974e-4,-0.0047 0.00101,-0.009 0.00195,-0.01367 -0.00135,-0.0032 -0.00248,-0.0066 -0.00391,-0.0098 z m 0.2929687,0.8125 c -0.00141,0.01135 -0.00268,0.02295 -0.00781,0.0332 -0.00346,0.0069 -0.00749,0.0131 -0.011719,0.01953 0.01745,-0.0082 0.034171,-0.01754 0.050781,-0.02734 -0.011856,-0.0063 -0.022621,-0.01503 -0.03125,-0.02539 z"
       id="path2" />
    <path
       style="fill:#483737"
       d="m 18.315369,8.8255477 a 1.6973647,1.6846683 0 0 0 -1.669922,1.7031253 1.6973647,1.6846683 0 0 0 1.705078,1.666016 1.6973647,1.6846683 0 0 0 1.689453,-1.683594 l -0.002,-0.03711 A 1.6973647,1.6846683 0 0 0 18.315369,8.8255477 Z m -0.01172,0.511719 c 0.06677,-0.0017 0.13277,0.0023 0.199219,0.01758 0.131999,0.03152 0.2624,0.07514 0.382812,0.138672 0.114116,0.06408 0.220574,0.138367 0.308594,0.236328 0.07098,0.08407 0.13305,0.174692 0.169922,0.2792973 0.03736,0.106784 0.06414,0.216808 0.07227,0.330078 0.0085,0.132402 0.0069,0.265856 -0.01953,0.396485 -0.02654,0.133471 -0.06528,0.26374 -0.128906,0.384765 -0.05963,0.108154 -0.129786,0.208941 -0.228516,0.285156 -0.0929,0.069 -0.193868,0.124707 -0.306641,0.154297 -0.108734,0.02767 -0.219438,0.04516 -0.332031,0.03516 -0.09798,-0.009 -0.195057,-0.02685 -0.289062,-0.05664 -0.08927,-0.02725 -0.178413,-0.05914 -0.259767,-0.105475 -0.09853,-0.05686 -0.192323,-0.119292 -0.277343,-0.195312 -0.106124,-0.09975 -0.200338,-0.212216 -0.257813,-0.347656 -0.06116,-0.155977 -0.09462,-0.319852 -0.0918,-0.488282 0.0067,-0.166269 0.03391,-0.328179 0.109375,-0.4785153 0.06948,-0.129727 0.153944,-0.252267 0.267578,-0.347657 0.008,-0.0067 0.01567,-0.01253 0.02344,-0.01758 0.0014,-9.01e-4 0.0025,-0.0011 0.0039,-0.002 0.03794,-0.03188 0.07969,-0.06087 0.125,-0.08398 0.104915,-0.05128 0.213094,-0.0912 0.328125,-0.113281 0.06642,-0.01137 0.134399,-0.01977 0.201172,-0.02149 z m 0.06836,0.246094 c 0.0093,0.0059 0.01781,0.01179 0.02539,0.01953 0.0028,0.0029 0.0053,0.0063 0.0078,0.0098 0.0045,-0.0077 0.0087,-0.01601 0.01367,-0.02344 -0.01556,-0.0024 -0.031,-0.0048 -0.04687,-0.0059 z m 0.134766,0.8847653 c 8.99e-4,0.0077 0.0014,0.01581 0.002,0.02344 8.97e-4,-0.0047 0.001,-0.009 0.0019,-0.01367 -0.0013,-0.0032 -0.0025,-0.0066 -0.0039,-0.0098 z m 0.292968,0.8125 c -0.0014,0.01135 -0.0027,0.02295 -0.0078,0.0332 -0.0035,0.0069 -0.0075,0.0131 -0.01172,0.01953 0.01745,-0.0082 0.03417,-0.01754 0.05078,-0.02734 -0.01186,-0.0063 -0.02262,-0.01503 -0.03125,-0.02539 z"
       id="path2-4" />
    <path
       style="fill:#483737"
       d="m 13.016512,16.888355 a 1.6973647,1.6846683 0 0 0 -1.669922,1.703125 1.6973647,1.6846683 0 0 0 1.705078,1.666016 1.6973647,1.6846683 0 0 0 1.689453,-1.683594 l -0.002,-0.03711 a 1.6973647,1.6846683 0 0 0 -1.722609,-1.648437 z m -0.01172,0.511719 c 0.06677,-0.0017 0.13277,0.0023 0.199218,0.01758 0.132,0.03152 0.262401,0.07514 0.382813,0.138672 0.114116,0.06408 0.220574,0.138367 0.308594,0.236328 0.07098,0.08407 0.13305,0.174692 0.169921,0.279297 0.03736,0.106784 0.06414,0.216808 0.07227,0.330078 0.0085,0.132402 0.0069,0.265856 -0.01953,0.396485 -0.02654,0.133471 -0.06528,0.26374 -0.128906,0.384765 -0.05963,0.108154 -0.129785,0.208941 -0.228515,0.285156 -0.0929,0.069 -0.193868,0.124707 -0.306641,0.154297 -0.108734,0.02767 -0.219438,0.04516 -0.332031,0.03516 -0.09798,-0.009 -0.195057,-0.02685 -0.289063,-0.05664 -0.08927,-0.02725 -0.178412,-0.05913 -0.259766,-0.105475 -0.09853,-0.05686 -0.192323,-0.119292 -0.277344,-0.195312 -0.106123,-0.09975 -0.200338,-0.212216 -0.257812,-0.347656 -0.06116,-0.155977 -0.09462,-0.319852 -0.0918,-0.488282 0.0067,-0.166269 0.03391,-0.328179 0.109375,-0.478515 0.06948,-0.129727 0.153944,-0.252267 0.267578,-0.347657 0.008,-0.0067 0.01567,-0.01253 0.02344,-0.01758 0.0014,-9.01e-4 0.0025,-0.0011 0.0039,-0.002 0.03794,-0.03188 0.07969,-0.06087 0.125,-0.08398 0.104915,-0.05128 0.213094,-0.0912 0.328125,-0.113281 0.06642,-0.01137 0.134398,-0.01977 0.201172,-0.02149 z m 0.06836,0.246094 c 0.0093,0.0059 0.01781,0.01179 0.02539,0.01953 0.0028,0.0029 0.0053,0.0063 0.0078,0.0098 0.0045,-0.0077 0.0087,-0.01601 0.01367,-0.02344 -0.01556,-0.0024 -0.031,-0.0048 -0.04687,-0.0059 z m 0.134765,0.884765 c 9e-4,0.0077 0.0014,0.01581 0.002,0.02344 8.98e-4,-0.0047 10e-4,-0.009 0.0019,-0.01367 -0.0013,-0.0032 -0.0025,-0.0066 -0.0039,-0.0098 z m 0.292969,0.8125 c -0.0014,0.01135 -0.0027,0.02295 -0.0078,0.0332 -0.0035,0.0069 -0.0075,0.0131 -0.01172,0.01953 0.01745,-0.0082 0.03417,-0.01754 0.05078,-0.02734 -0.01186,-0.0063 -0.02262,-0.01503 -0.03125,-0.02539 z"
       id="path2-2" />
    <path
       style="fill:#483737"
       d="m 8.6700261,12.000192 a 1.6973647,1.6846683 0 0 0 -1.6699218,1.703125 1.6973647,1.6846683 0 0 0 1.7050781,1.666016 1.6973647,1.6846683 0 0 0 1.6894536,-1.683594 l -0.002,-0.03711 A 1.6973647,1.6846683 0 0 0 8.6700261,12.000192 Z m -0.011719,0.511719 c 0.066773,-0.0017 0.1327702,0.0023 0.1992187,0.01758 0.1319999,0.03152 0.2624003,0.07514 0.3828125,0.138672 0.1141161,0.06408 0.2205739,0.138367 0.3085938,0.236328 0.070984,0.08407 0.1330505,0.174692 0.1699219,0.279297 0.03736,0.106784 0.064136,0.216808 0.072266,0.330078 0.00849,0.132402 0.00685,0.265856 -0.019531,0.396485 -0.026542,0.133471 -0.065283,0.26374 -0.1289062,0.384765 -0.059633,0.108154 -0.1297857,0.208941 -0.2285157,0.285156 -0.092899,0.069 -0.1938677,0.124707 -0.3066406,0.154297 -0.1087338,0.02767 -0.2194385,0.04516 -0.3320312,0.03516 -0.09798,-0.009 -0.195057,-0.02685 -0.2890625,-0.05664 C 8.3971674,14.685842 8.3080207,14.653954 8.2266667,14.607614 8.12814,14.550755 8.0343435,14.488322 7.949323,14.412302 7.8431994,14.312549 7.748985,14.200086 7.6915105,14.064646 c -0.061163,-0.155977 -0.094617,-0.319852 -0.091797,-0.488282 0.0067,-0.166269 0.03391,-0.328179 0.109375,-0.478515 0.069479,-0.129727 0.1539437,-0.252267 0.2675781,-0.347657 0.00803,-0.0067 0.015673,-0.01253 0.023438,-0.01758 0.00138,-9.01e-4 0.00253,-0.0011 0.00391,-0.002 0.03794,-0.03188 0.079689,-0.06087 0.125,-0.08398 0.1049146,-0.05128 0.2130936,-0.0912 0.328125,-0.113281 0.066421,-0.01137 0.1343984,-0.01977 0.2011719,-0.02149 z m 0.068359,0.246094 c 0.00926,0.0059 0.01781,0.01179 0.025391,0.01953 0.0028,0.0029 0.00532,0.0063 0.00781,0.0098 0.00449,-0.0077 0.00871,-0.01601 0.013672,-0.02344 -0.01556,-0.0024 -0.031,-0.0048 -0.046875,-0.0059 z m 0.1347657,0.884765 c 8.997e-4,0.0077 0.00136,0.01581 0.00195,0.02344 8.974e-4,-0.0047 0.00101,-0.009 0.00195,-0.01367 -0.00135,-0.0032 -0.00248,-0.0066 -0.00391,-0.0098 z m 0.2929687,0.8125 c -0.00141,0.01135 -0.00268,0.02295 -0.00781,0.0332 -0.00346,0.0069 -0.00749,0.0131 -0.011719,0.01953 0.01745,-0.0082 0.034171,-0.01754 0.050781,-0.02734 -0.011856,-0.0063 -0.022621,-0.01503 -0.03125,-0.02539 z"
       id="path2-9" />
    <path
       style="fill:#483737"
       d="m 8.1389793,26.17701 a 1.6973647,1.6846683 0 0 0 -1.669922,1.703125 1.6973647,1.6846683 0 0 0 1.705078,1.666016 1.6973647,1.6846683 0 0 0 1.689453,-1.683594 l -0.002,-0.03711 A 1.6973647,1.6846683 0 0 0 8.1389793,26.17701 Z m -0.01172,0.511719 c 0.06677,-0.0017 0.13277,0.0023 0.199218,0.01758 0.132,0.03152 0.262401,0.07514 0.382813,0.138672 0.114116,0.06408 0.220574,0.138367 0.308594,0.236328 0.07098,0.08407 0.13305,0.174692 0.169921,0.279297 0.03736,0.106784 0.06414,0.216808 0.07227,0.330078 0.0085,0.132402 0.0069,0.265856 -0.01953,0.396485 -0.02654,0.133471 -0.06528,0.26374 -0.128906,0.384765 -0.05963,0.108154 -0.129785,0.208941 -0.228515,0.285156 -0.0929,0.069 -0.193868,0.124707 -0.306641,0.154297 -0.108734,0.02767 -0.219438,0.04516 -0.332031,0.03516 -0.09798,-0.009 -0.195057,-0.02685 -0.289063,-0.05664 -0.08927,-0.02725 -0.178412,-0.05913 -0.259766,-0.105475 -0.09853,-0.05686 -0.192323,-0.119292 -0.277344,-0.195312 -0.106123,-0.09975 -0.200338,-0.212216 -0.257812,-0.347656 -0.06116,-0.155977 -0.09462,-0.319852 -0.0918,-0.488282 0.0067,-0.166269 0.03391,-0.328179 0.109375,-0.478515 0.06948,-0.129727 0.153944,-0.252267 0.267578,-0.347657 0.008,-0.0067 0.01567,-0.01253 0.02344,-0.01758 0.0014,-9.01e-4 0.0025,-0.0011 0.0039,-0.002 0.03794,-0.03188 0.07969,-0.06087 0.125,-0.08398 0.104915,-0.05128 0.213094,-0.0912 0.328125,-0.113281 0.06642,-0.01137 0.134398,-0.01977 0.201172,-0.02149 z m 0.06836,0.246094 c 0.0093,0.0059 0.01781,0.01179 0.02539,0.01953 0.0028,0.0029 0.0053,0.0063 0.0078,0.0098 0.0045,-0.0077 0.0087,-0.01601 0.01367,-0.02344 -0.01556,-0.0024 -0.031,-0.0048 -0.04687,-0.0059 z m 0.134765,0.884765 c 9e-4,0.0077 0.0014,0.01581 0.002,0.02344 8.98e-4,-0.0047 0.001,-0.009 0.0019,-0.01367 -0.0013,-0.0032 -0.0025,-0.0066 -0.0039,-0.0098 z m 0.292969,0.8125 c -0.0014,0.01135 -0.0027,0.02295 -0.0078,0.0332 -0.0035,0.0069 -0.0075,0.0131 -0.01172,0.01953 0.01745,-0.0082 0.03417,-0.01754 0.05078,-0.02734 -0.01186,-0.0063 -0.02262,-0.01503 -0.03125,-0.02539 z"
       id="path2-2-9" />
    <path
       style="fill:#483737"
       d="m 18.31225,25.89966 a 1.6973647,1.6846683 0 0 0 -1.669922,1.703125 1.6973647,1.6846683 0 0 0 1.705078,1.666016 1.6973647,1.6846683 0 0 0 1.689453,-1.683594 l -0.002,-0.03711 A 1.6973647,1.6846683 0 0 0 18.31225,25.89966 Z m -0.01172,0.511719 c 0.06677,-0.0017 0.13277,0.0023 0.199218,0.01758 0.132,0.03152 0.262401,0.07514 0.382813,0.138672 0.114116,0.06408 0.220574,0.138367 0.308594,0.236328 0.07098,0.08407 0.13305,0.174692 0.169921,0.279297 0.03736,0.106784 0.06414,0.216808 0.07227,0.330078 0.0085,0.132402 0.0069,0.265856 -0.01953,0.396485 -0.02654,0.133471 -0.06528,0.26374 -0.128906,0.384765 -0.05963,0.108154 -0.129785,0.208941 -0.228515,0.285156 -0.0929,0.069 -0.193868,0.124707 -0.306641,0.154297 -0.108734,0.02767 -0.219438,0.04516 -0.332031,0.03516 -0.09798,-0.009 -0.195057,-0.02685 -0.289063,-0.05664 -0.08927,-0.02725 -0.178412,-0.05913 -0.259766,-0.105475 -0.09853,-0.05686 -0.192323,-0.119292 -0.277344,-0.195312 -0.106123,-0.09975 -0.200338,-0.212216 -0.257812,-0.347656 -0.06116,-0.155977 -0.09462,-0.319852 -0.0918,-0.488282 0.0067,-0.166269 0.03391,-0.328179 0.109375,-0.478515 0.06948,-0.129727 0.153944,-0.252267 0.267578,-0.347657 0.008,-0.0067 0.01567,-0.01253 0.02344,-0.01758 0.0014,-9.01e-4 0.0025,-0.0011 0.0039,-0.002 0.03794,-0.03188 0.07969,-0.06087 0.125,-0.08398 0.104915,-0.05128 0.213094,-0.0912 0.328125,-0.113281 0.06642,-0.01137 0.134398,-0.01977 0.201172,-0.02149 z m 0.06836,0.246094 c 0.0093,0.0059 0.01781,0.01179 0.02539,0.01953 0.0028,0.0029 0.0053,0.0063 0.0078,0.0098 0.0045,-0.0077 0.0087,-0.01601 0.01367,-0.02344 -0.01556,-0.0024 -0.031,-0.0048 -0.04687,-0.0059 z m 0.134765,0.884765 c 9e-4,0.0077 0.0014,0.01581 0.002,0.02344 8.98e-4,-0.0047 10e-4,-0.009 0.0019,-0.01367 -0.0013,-0.0032 -0.0025,-0.0066 -0.0039,-0.0098 z m 0.292969,0.8125 c -0.0014,0.01135 -0.0027,0.02295 -0.0078,0.0332 -0.0035,0.0069 -0.0075,0.0131 -0.01172,0.01953 0.01745,-0.0082 0.03417,-0.01754 0.05078,-0.02734 -0.01186,-0.0063 -0.02262,-0.01503 -0.03125,-0.02539 z"
       id="path2-2-5" />
    <path
       style="fill:#483737"
       d="m 19.859855,37.197117 a 1.6973647,1.6846683 0 0 0 -1.669922,1.703125 1.6973647,1.6846683 0 0 0 1.705078,1.666016 1.6973647,1.6846683 0 0 0 1.689453,-1.683594 l -0.002,-0.03711 a 1.6973647,1.6846683 0 0 0 -1.722609,-1.648437 z m -0.01172,0.511719 c 0.06677,-0.0017 0.13277,0.0023 0.199218,0.01758 0.132,0.03152 0.262401,0.07514 0.382813,0.138672 0.114116,0.06408 0.220574,0.138367 0.308594,0.236328 0.07098,0.08407 0.13305,0.174692 0.169921,0.279297 0.03736,0.106784 0.06414,0.216808 0.07227,0.330078 0.0085,0.132402 0.0069,0.265856 -0.01953,0.396485 -0.02654,0.133471 -0.06528,0.26374 -0.128906,0.384765 -0.05963,0.108154 -0.129785,0.208941 -0.228515,0.285156 -0.0929,0.069 -0.193868,0.124707 -0.306641,0.154297 -0.108734,0.02767 -0.219438,0.04516 -0.332031,0.03516 -0.09798,-0.009 -0.195057,-0.02685 -0.289063,-0.05664 -0.08927,-0.02725 -0.178412,-0.05913 -0.259766,-0.105475 -0.09853,-0.05686 -0.192323,-0.119292 -0.277344,-0.195312 -0.106123,-0.09975 -0.200338,-0.212216 -0.257812,-0.347656 -0.06116,-0.155977 -0.09462,-0.319852 -0.0918,-0.488282 0.0067,-0.166269 0.03391,-0.328179 0.109375,-0.478515 0.06948,-0.129727 0.153944,-0.252267 0.267578,-0.347657 0.008,-0.0067 0.01567,-0.01253 0.02344,-0.01758 0.0014,-9.01e-4 0.0025,-0.0011 0.0039,-0.002 0.03794,-0.03188 0.07969,-0.06087 0.125,-0.08398 0.104915,-0.05128 0.213094,-0.0912 0.328125,-0.113281 0.06642,-0.01137 0.134398,-0.01977 0.201172,-0.02149 z m 0.06836,0.246094 c 0.0093,0.0059 0.01781,0.01179 0.02539,0.01953 0.0028,0.0029 0.0053,0.0063 0.0078,0.0098 0.0045,-0.0077 0.0087,-0.01601 0.01367,-0.02344 -0.01556,-0.0024 -0.031,-0.0048 -0.04687,-0.0059 z m 0.134765,0.884765 c 9e-4,0.0077 0.0014,0.01581 0.002,0.02344 8.98e-4,-0.0047 10e-4,-0.009 0.0019,-0.01367 -0.0013,-0.0032 -0.0025,-0.0066 -0.0039,-0.0098 z m 0.292969,0.8125 c -0.0014,0.01135 -0.0027,0.02295 -0.0078,0.0332 -0.0035,0.0069 -0.0075,0.0131 -0.01172,0.01953 0.01745,-0.0082 0.03417,-0.01754 0.05078,-0.02734 -0.01186,-0.0063 -0.02262,-0.01503 -0.03125,-0.02539 z"
       id="path2-2-7" />
    <path
       style="fill:#483737"
       d="m 27.61562,31.641824 a 1.6973647,1.6846683 0 0 0 -1.669922,1.703125 1.6973647,1.6846683 0 0 0 1.705078,1.666016 1.6973647,1.6846683 0 0 0 1.689453,-1.683594 l -0.002,-0.03711 A 1.6973647,1.6846683 0 0 0 27.61562,31.641824 Z m -0.01172,0.511719 c 0.06677,-0.0017 0.13277,0.0023 0.199218,0.01758 0.132,0.03152 0.262401,0.07514 0.382813,0.138672 0.114116,0.06408 0.220574,0.138367 0.308594,0.236328 0.07098,0.08407 0.13305,0.174692 0.169921,0.279297 0.03736,0.106784 0.06414,0.216808 0.07227,0.330078 0.0085,0.132402 0.0069,0.265856 -0.01953,0.396485 -0.02654,0.133471 -0.06528,0.26374 -0.128906,0.384765 -0.05963,0.108154 -0.129785,0.208941 -0.228515,0.285156 -0.0929,0.069 -0.193868,0.124707 -0.306641,0.154297 -0.108734,0.02767 -0.219438,0.04516 -0.332031,0.03516 -0.09798,-0.009 -0.195057,-0.02685 -0.289063,-0.05664 -0.08927,-0.02725 -0.178412,-0.05913 -0.259766,-0.105475 -0.09853,-0.05686 -0.192323,-0.119292 -0.277344,-0.195312 -0.106123,-0.09975 -0.200338,-0.212216 -0.257812,-0.347656 -0.06116,-0.155977 -0.09462,-0.319852 -0.0918,-0.488282 0.0067,-0.166269 0.03391,-0.328179 0.109375,-0.478515 0.06948,-0.129727 0.153944,-0.252267 0.267578,-0.347657 0.008,-0.0067 0.01567,-0.01253 0.02344,-0.01758 0.0014,-9.01e-4 0.0025,-0.0011 0.0039,-0.002 0.03794,-0.03188 0.07969,-0.06087 0.125,-0.08398 0.104915,-0.05128 0.213094,-0.0912 0.328125,-0.113281 0.06642,-0.01137 0.134398,-0.01977 0.201172,-0.02149 z m 0.06836,0.246094 c 0.0093,0.0059 0.01781,0.01179 0.02539,0.01953 0.0028,0.0029 0.0053,0.0063 0.0078,0.0098 0.0045,-0.0077 0.0087,-0.01601 0.01367,-0.02344 -0.01556,-0.0024 -0.031,-0.0048 -0.04687,-0.0059 z m 0.134765,0.884765 c 9e-4,0.0077 0.0014,0.01581 0.002,0.02344 8.98e-4,-0.0047 0.001,-0.009 0.0019,-0.01367 -0.0013,-0.0032 -0.0025,-0.0066 -0.0039,-0.0098 z m 0.292969,0.8125 c -0.0014,0.01135 -0.0027,0.02295 -0.0078,0.0332 -0.0035,0.0069 -0.0075,0.0131 -0.01172,0.01953 0.01745,-0.0082 0.03417,-0.01754 0.05078,-0.02734 -0.01186,-0.0063 -0.02262,-0.01503 -0.03125,-0.02539 z"
       id="path2-2-0" />
    <path
       style="fill:#483737"
       d="m 35.375526,35.157495 a 1.6973647,1.6846683 0 0 0 -1.669922,1.703125 1.6973647,1.6846683 0 0 0 1.705078,1.666016 1.6973647,1.6846683 0 0 0 1.689453,-1.683594 l -0.002,-0.03711 a 1.6973647,1.6846683 0 0 0 -1.722609,-1.648437 z m -0.01172,0.511719 c 0.06677,-0.0017 0.13277,0.0023 0.199218,0.01758 0.132,0.03152 0.262401,0.07514 0.382813,0.138672 0.114116,0.06408 0.220574,0.138367 0.308594,0.236328 0.07098,0.08407 0.13305,0.174692 0.169921,0.279297 0.03736,0.106784 0.06414,0.216808 0.07227,0.330078 0.0085,0.132402 0.0069,0.265856 -0.01953,0.396485 -0.02654,0.133471 -0.06528,0.26374 -0.128906,0.384765 -0.05963,0.108154 -0.129785,0.208941 -0.228515,0.285156 -0.0929,0.069 -0.193868,0.124707 -0.306641,0.154297 -0.108734,0.02767 -0.219438,0.04516 -0.332031,0.03516 -0.09798,-0.009 -0.195057,-0.02685 -0.289063,-0.05664 -0.08927,-0.02725 -0.178412,-0.05913 -0.259766,-0.105475 -0.09853,-0.05686 -0.192323,-0.119292 -0.277344,-0.195312 -0.106123,-0.09975 -0.200338,-0.212216 -0.257812,-0.347656 -0.06116,-0.155977 -0.09462,-0.319852 -0.0918,-0.488282 0.0067,-0.166269 0.03391,-0.328179 0.109375,-0.478515 0.06948,-0.129727 0.153944,-0.252267 0.267578,-0.347657 0.008,-0.0067 0.01567,-0.01253 0.02344,-0.01758 0.0014,-9.01e-4 0.0025,-0.0011 0.0039,-0.002 0.03794,-0.03188 0.07969,-0.06087 0.125,-0.08398 0.104915,-0.05128 0.213094,-0.0912 0.328125,-0.113281 0.06642,-0.01137 0.134398,-0.01977 0.201172,-0.02149 z m 0.06836,0.246094 c 0.0093,0.0059 0.01781,0.01179 0.02539,0.01953 0.0028,0.0029 0.0053,0.0063 0.0078,0.0098 0.0045,-0.0077 0.0087,-0.01601 0.01367,-0.02344 -0.01556,-0.0024 -0.031,-0.0048 -0.04687,-0.0059 z m 0.134765,0.884765 c 9e-4,0.0077 0.0014,0.01581 0.002,0.02344 8.98e-4,-0.0047 10e-4,-0.009 0.0019,-0.01367 -0.0013,-0.0032 -0.0025,-0.0066 -0.0039,-0.0098 z m 0.292969,0.8125 c -0.0014,0.01135 -0.0027,0.02295 -0.0078,0.0332 -0.0035,0.0069 -0.0075,0.0131 -0.01172,0.01953 0.01745,-0.0082 0.03417,-0.01754 0.05078,-0.02734 -0.01186,-0.0063 -0.02262,-0.01503 -0.03125,-0.02539 z"
       id="path2-2-1" />
    <path
       style="fill:#483737"
       d="m 36.263758,18.44963 a 1.6973647,1.6846683 0 0 0 -1.669922,1.703125 1.6973647,1.6846683 0 0 0 1.705078,1.666016 1.6973647,1.6846683 0 0 0 1.689453,-1.683594 l -0.002,-0.03711 A 1.6973647,1.6846683 0 0 0 36.263758,18.44963 Z m -0.01172,0.511719 c 0.06677,-0.0017 0.13277,0.0023 0.199218,0.01758 0.132,0.03152 0.262401,0.07514 0.382813,0.138672 0.114116,0.06408 0.220574,0.138367 0.308594,0.236328 0.07098,0.08407 0.13305,0.174692 0.169921,0.279297 0.03736,0.106784 0.06414,0.216808 0.07227,0.330078 0.0085,0.132402 0.0069,0.265856 -0.01953,0.396485 -0.02654,0.133471 -0.06528,0.26374 -0.128906,0.384765 -0.05963,0.108154 -0.129785,0.208941 -0.228515,0.285156 -0.0929,0.069 -0.193868,0.124707 -0.306641,0.154297 -0.108734,0.02767 -0.219438,0.04516 -0.332031,0.03516 -0.09798,-0.009 -0.195057,-0.02685 -0.289063,-0.05664 -0.08927,-0.02725 -0.178412,-0.05913 -0.259766,-0.105475 -0.09853,-0.05686 -0.192323,-0.119292 -0.277344,-0.195312 -0.106123,-0.09975 -0.200338,-0.212216 -0.257812,-0.347656 -0.06116,-0.155977 -0.09462,-0.319852 -0.0918,-0.488282 0.0067,-0.166269 0.03391,-0.328179 0.109375,-0.478515 0.06948,-0.129727 0.153944,-0.252267 0.267578,-0.347657 0.008,-0.0067 0.01567,-0.01253 0.02344,-0.01758 0.0014,-9.01e-4 0.0025,-0.0011 0.0039,-0.002 0.03794,-0.03188 0.07969,-0.06087 0.125,-0.08398 0.104915,-0.05128 0.213094,-0.0912 0.328125,-0.113281 0.06642,-0.01137 0.134398,-0.01977 0.201172,-0.02149 z m 0.06836,0.246094 c 0.0093,0.0059 0.01781,0.01179 0.02539,0.01953 0.0028,0.0029 0.0053,0.0063 0.0078,0.0098 0.0045,-0.0077 0.0087,-0.01601 0.01367,-0.02344 -0.01556,-0.0024 -0.031,-0.0048 -0.04687,-0.0059 z m 0.134765,0.884765 c 9e-4,0.0077 0.0014,0.01581 0.002,0.02344 8.98e-4,-0.0047 10e-4,-0.009 0.0019,-0.01367 -0.0013,-0.0032 -0.0025,-0.0066 -0.0039,-0.0098 z m 0.292969,0.8125 c -0.0014,0.01135 -0.0027,0.02295 -0.0078,0.0332 -0.0035,0.0069 -0.0075,0.0131 -0.01172,0.01953 0.01745,-0.0082 0.03417,-0.01754 0.05078,-0.02734 -0.01186,-0.0063 -0.02262,-0.01503 -0.03125,-0.02539 z"
       id="path2-2-90" />
    <path
       style="fill:#483737"
       d="m 41.545839,29.572634 a 1.6973647,1.6846683 0 0 0 -1.669922,1.703125 1.6973647,1.6846683 0 0 0 1.705078,1.666016 1.6973647,1.6846683 0 0 0 1.689453,-1.683594 l -0.002,-0.03711 a 1.6973647,1.6846683 0 0 0 -1.722609,-1.648437 z m -0.01172,0.511719 c 0.06677,-0.0017 0.13277,0.0023 0.199218,0.01758 0.132,0.03152 0.262401,0.07514 0.382813,0.138672 0.114116,0.06408 0.220574,0.138367 0.308594,0.236328 0.07098,0.08407 0.13305,0.174692 0.169921,0.279297 0.03736,0.106784 0.06414,0.216808 0.07227,0.330078 0.0085,0.132402 0.0069,0.265856 -0.01953,0.396485 -0.02654,0.133471 -0.06528,0.26374 -0.128906,0.384765 -0.05963,0.108154 -0.129785,0.208941 -0.228515,0.285156 -0.0929,0.069 -0.193868,0.124707 -0.306641,0.154297 -0.108734,0.02767 -0.219438,0.04516 -0.332031,0.03516 -0.09798,-0.009 -0.195057,-0.02685 -0.289063,-0.05664 -0.08927,-0.02725 -0.178412,-0.05913 -0.259766,-0.105475 -0.09853,-0.05686 -0.192323,-0.119292 -0.277344,-0.195312 -0.106123,-0.09975 -0.200338,-0.212216 -0.257812,-0.347656 -0.06116,-0.155977 -0.09462,-0.319852 -0.0918,-0.488282 0.0067,-0.166269 0.03391,-0.328179 0.109375,-0.478515 0.06948,-0.129727 0.153944,-0.252267 0.267578,-0.347657 0.008,-0.0067 0.01567,-0.01253 0.02344,-0.01758 0.0014,-9.01e-4 0.0025,-0.0011 0.0039,-0.002 0.03794,-0.03188 0.07969,-0.06087 0.125,-0.08398 0.104915,-0.05128 0.213094,-0.0912 0.328125,-0.113281 0.06642,-0.01137 0.134398,-0.01977 0.201172,-0.02149 z m 0.06836,0.246094 c 0.0093,0.0059 0.01781,0.01179 0.02539,0.01953 0.0028,0.0029 0.0053,0.0063 0.0078,0.0098 0.0045,-0.0077 0.0087,-0.01601 0.01367,-0.02344 -0.01556,-0.0024 -0.031,-0.0048 -0.04687,-0.0059 z m 0.134765,0.884765 c 9e-4,0.0077 0.0014,0.01581 0.002,0.02344 8.98e-4,-0.0047 10e-4,-0.009 0.0019,-0.01367 -0.0013,-0.0032 -0.0025,-0.0066 -0.0039,-0.0098 z m 0.292969,0.8125 c -0.0014,0.01135 -0.0027,0.02295 -0.0078,0.0332 -0.0035,0.0069 -0.0075,0.0131 -0.01172,0.01953 0.01745,-0.0082 0.03417,-0.01754 0.05078,-0.02734 -0.01186,-0.0063 -0.02262,-0.01503 -0.03125,-0.02539 z"
       id="path2-2-3" />
    <path
       style="fill:#483737"
       d="m 42.783568,22.768377 a 1.6973647,1.6846683 0 0 0 -1.669922,1.703125 1.6973647,1.6846683 0 0 0 1.705078,1.666016 1.6973647,1.6846683 0 0 0 1.689453,-1.683594 l -0.002,-0.03711 a 1.6973647,1.6846683 0 0 0 -1.722609,-1.648437 z m -0.01172,0.511719 c 0.06677,-0.0017 0.13277,0.0023 0.199218,0.01758 0.132,0.03152 0.262401,0.07514 0.382813,0.138672 0.114116,0.06408 0.220574,0.138367 0.308594,0.236328 0.07098,0.08407 0.13305,0.174692 0.169921,0.279297 0.03736,0.106784 0.06414,0.216808 0.07227,0.330078 0.0085,0.132402 0.0069,0.265856 -0.01953,0.396485 -0.02654,0.133471 -0.06528,0.26374 -0.128906,0.384765 -0.05963,0.108154 -0.129785,0.208941 -0.228515,0.285156 -0.0929,0.069 -0.193868,0.124707 -0.306641,0.154297 -0.108734,0.02767 -0.219438,0.04516 -0.332031,0.03516 -0.09798,-0.009 -0.195057,-0.02685 -0.289063,-0.05664 -0.08927,-0.02725 -0.178412,-0.05913 -0.259766,-0.105475 -0.09853,-0.05686 -0.192323,-0.119292 -0.277344,-0.195312 -0.106123,-0.09975 -0.200338,-0.212216 -0.257812,-0.347656 -0.06116,-0.155977 -0.09462,-0.319852 -0.0918,-0.488282 0.0067,-0.166269 0.03391,-0.328179 0.109375,-0.478515 0.06948,-0.129727 0.153944,-0.252267 0.267578,-0.347657 0.008,-0.0067 0.01567,-0.01253 0.02344,-0.01758 0.0014,-9.01e-4 0.0025,-0.0011 0.0039,-0.002 0.03794,-0.03188 0.07969,-0.06087 0.125,-0.08398 0.104915,-0.05128 0.213094,-0.0912 0.328125,-0.113281 0.06642,-0.01137 0.134398,-0.01977 0.201172,-0.02149 z m 0.06836,0.246094 c 0.0093,0.0059 0.01781,0.01179 0.02539,0.01953 0.0028,0.0029 0.0053,0.0063 0.0078,0.0098 0.0045,-0.0077 0.0087,-0.01601 0.01367,-0.02344 -0.01556,-0.0024 -0.031,-0.0048 -0.04687,-0.0059 z m 0.134765,0.884765 c 9e-4,0.0077 0.0014,0.01581 0.002,0.02344 8.98e-4,-0.0047 10e-4,-0.009 0.0019,-0.01367 -0.0013,-0.0032 -0.0025,-0.0066 -0.0039,-0.0098 z m 0.292969,0.8125 c -0.0014,0.01135 -0.0027,0.02295 -0.0078,0.0332 -0.0035,0.0069 -0.0075,0.0131 -0.01172,0.01953 0.01745,-0.0082 0.03417,-0.01754 0.05078,-0.02734 -0.01186,-0.0063 -0.02262,-0.01503 -0.03125,-0.02539 z"
       id="path2-2-73" />
    <path
       style="fill:#483737"
       d="m 35.381439,5.2663067 a 1.6973647,1.6846683 0 0 0 -1.669922,1.703125 1.6973647,1.6846683 0 0 0 1.705078,1.666016 1.6973647,1.6846683 0 0 0 1.689453,-1.683594 l -0.002,-0.03711 a 1.6973647,1.6846683 0 0 0 -1.722609,-1.648437 z m -0.01172,0.511719 c 0.06677,-0.0017 0.13277,0.0023 0.199218,0.01758 0.132,0.03152 0.262401,0.07514 0.382813,0.138672 0.114116,0.06408 0.220574,0.138367 0.308594,0.236328 0.07098,0.08407 0.13305,0.174692 0.169921,0.279297 0.03736,0.106784 0.06414,0.216808 0.07227,0.330078 0.0085,0.132402 0.0069,0.265856 -0.01953,0.396485 -0.02654,0.133471 -0.06528,0.26374 -0.128906,0.384765 -0.05963,0.108154 -0.129785,0.208941 -0.228515,0.285156 -0.0929,0.069 -0.193868,0.124707 -0.306641,0.154297 -0.108734,0.02767 -0.219438,0.04516 -0.332031,0.03516 -0.09798,-0.009 -0.195057,-0.02685 -0.289063,-0.05664 -0.08927,-0.02725 -0.178412,-0.05913 -0.259766,-0.105475 -0.09853,-0.05686 -0.192323,-0.119292 -0.277344,-0.195312 -0.106123,-0.09975 -0.200338,-0.212216 -0.257812,-0.347656 -0.06116,-0.155977 -0.09462,-0.319852 -0.0918,-0.488282 0.0067,-0.166269 0.03391,-0.328179 0.109375,-0.478515 0.06948,-0.129727 0.153944,-0.252267 0.267578,-0.347657 0.008,-0.0067 0.01567,-0.01253 0.02344,-0.01758 0.0014,-9.01e-4 0.0025,-0.0011 0.0039,-0.002 0.03794,-0.03188 0.07969,-0.06087 0.125,-0.08398 0.104915,-0.05128 0.213094,-0.0912 0.328125,-0.113281 0.06642,-0.01137 0.134398,-0.01977 0.201172,-0.02149 z m 0.06836,0.246094 c 0.0093,0.0059 0.01781,0.01179 0.02539,0.01953 0.0028,0.0029 0.0053,0.0063 0.0078,0.0098 0.0045,-0.0077 0.0087,-0.01601 0.01367,-0.02344 -0.01556,-0.0024 -0.031,-0.0048 -0.04687,-0.0059 z m 0.134765,0.884765 c 9e-4,0.0077 0.0014,0.01581 0.002,0.02344 8.98e-4,-0.0047 10e-4,-0.009 0.0019,-0.01367 -0.0013,-0.0032 -0.0025,-0.0066 -0.0039,-0.0098 z m 0.292969,0.8125 c -0.0014,0.01135 -0.0027,0.02295 -0.0078,0.0332 -0.0035,0.0069 -0.0075,0.0131 -0.01172,0.01953 0.01745,-0.0082 0.03417,-0.01754 0.05078,-0.02734 -0.01186,-0.0063 -0.02262,-0.01503 -0.03125,-0.02539 z"
       id="path2-2-99" />
    <path
       style="fill:#483737"
       d="m 25.400954,16.607525 a 1.6973647,1.6846683 0 0 0 -1.669922,1.703125 1.6973647,1.6846683 0 0 0 1.705078,1.666016 1.6973647,1.6846683 0 0 0 1.689453,-1.683594 l -0.002,-0.03711 a 1.6973647,1.6846683 0 0 0 -1.722609,-1.648437 z m -0.01172,0.511719 c 0.06677,-0.0017 0.13277,0.0023 0.199218,0.01758 0.132,0.03152 0.262401,0.07514 0.382813,0.138672 0.114116,0.06408 0.220574,0.138367 0.308594,0.236328 0.07098,0.08407 0.13305,0.174692 0.169921,0.279297 0.03736,0.106784 0.06414,0.216808 0.07227,0.330078 0.0085,0.132402 0.0069,0.265856 -0.01953,0.396485 -0.02654,0.133471 -0.06528,0.26374 -0.128906,0.384765 -0.05963,0.108154 -0.129785,0.208941 -0.228515,0.285156 -0.0929,0.069 -0.193868,0.124707 -0.306641,0.154297 -0.108734,0.02767 -0.219438,0.04516 -0.332031,0.03516 -0.09798,-0.009 -0.195057,-0.02685 -0.289063,-0.05664 -0.08927,-0.02725 -0.178412,-0.05913 -0.259766,-0.105475 -0.09853,-0.05686 -0.192323,-0.119292 -0.277344,-0.195312 -0.106123,-0.09975 -0.200338,-0.212216 -0.257812,-0.347656 -0.06116,-0.155977 -0.09462,-0.319852 -0.0918,-0.488282 0.0067,-0.166269 0.03391,-0.328179 0.109375,-0.478515 0.06948,-0.129727 0.153944,-0.252267 0.267578,-0.347657 0.008,-0.0067 0.01567,-0.01253 0.02344,-0.01758 0.0014,-9.01e-4 0.0025,-0.0011 0.0039,-0.002 0.03794,-0.03188 0.07969,-0.06087 0.125,-0.08398 0.104915,-0.05128 0.213094,-0.0912 0.328125,-0.113281 0.06642,-0.01137 0.134398,-0.01977 0.201172,-0.02149 z m 0.06836,0.246094 c 0.0093,0.0059 0.01781,0.01179 0.02539,0.01953 0.0028,0.0029 0.0053,0.0063 0.0078,0.0098 0.0045,-0.0077 0.0087,-0.01601 0.01367,-0.02344 -0.01556,-0.0024 -0.031,-0.0048 -0.04687,-0.0059 z m 0.134765,0.884765 c 9e-4,0.0077 0.0014,0.01581 0.002,0.02344 8.98e-4,-0.0047 10e-4,-0.009 0.0019,-0.01367 -0.0013,-0.0032 -0.0025,-0.0066 -0.0039,-0.0098 z m 0.292969,0.8125 c -0.0014,0.01135 -0.0027,0.02295 -0.0078,0.0332 -0.0035,0.0069 -0.0075,0.0131 -0.01172,0.01953 0.01745,-0.0082 0.03417,-0.01754 0.05078,-0.02734 -0.01186,-0.0063 -0.02262,-0.01503 -0.03125,-0.02539 z"
       id="path2-2-08" />
    <path
       style="fill:#483737"
       d="m 27.534603,5.7116054 a 1.6973647,1.6846683 0 0 0 -1.669922,1.703125 1.6973647,1.6846683 0 0 0 1.705078,1.666016 1.6973647,1.6846683 0 0 0 1.689453,-1.683594 l -0.002,-0.03711 a 1.6973647,1.6846683 0 0 0 -1.722609,-1.648437 z m -0.01172,0.511719 c 0.06677,-0.0017 0.13277,0.0023 0.199218,0.01758 0.132,0.03152 0.262401,0.07514 0.382813,0.138672 0.114116,0.06408 0.220574,0.138367 0.308594,0.236328 0.07098,0.08407 0.13305,0.174692 0.169921,0.279297 0.03736,0.106784 0.06414,0.216808 0.07227,0.330078 0.0085,0.132402 0.0069,0.265856 -0.01953,0.396485 -0.02654,0.133471 -0.06528,0.26374 -0.128906,0.384765 -0.05963,0.108154 -0.129785,0.208941 -0.228515,0.285156 -0.0929,0.069 -0.193868,0.124707 -0.306641,0.154297 -0.108734,0.02767 -0.219438,0.04516 -0.332031,0.03516 -0.09798,-0.009 -0.195057,-0.02685 -0.289063,-0.05664 -0.08927,-0.02725 -0.178412,-0.05913 -0.259766,-0.105475 -0.09853,-0.05686 -0.192323,-0.119292 -0.277344,-0.195312 -0.106123,-0.09975 -0.200338,-0.212216 -0.257812,-0.347656 -0.06116,-0.155977 -0.09462,-0.319852 -0.0918,-0.488282 0.0067,-0.166269 0.03391,-0.328179 0.109375,-0.478515 0.06948,-0.129727 0.153944,-0.252267 0.267578,-0.347657 0.008,-0.0067 0.01567,-0.01253 0.02344,-0.01758 0.0014,-9.01e-4 0.0025,-0.0011 0.0039,-0.002 0.03794,-0.03188 0.07969,-0.06087 0.125,-0.08398 0.104915,-0.05128 0.213094,-0.0912 0.328125,-0.113281 0.06642,-0.01137 0.134398,-0.01977 0.201172,-0.02149 z m 0.06836,0.246094 c 0.0093,0.0059 0.01781,0.01179 0.02539,0.01953 0.0028,0.0029 0.0053,0.0063 0.0078,0.0098 0.0045,-0.0077 0.0087,-0.01601 0.01367,-0.02344 -0.01556,-0.0024 -0.031,-0.0048 -0.04687,-0.0059 z m 0.134765,0.884765 c 9e-4,0.0077 0.0014,0.01581 0.002,0.02344 8.98e-4,-0.0047 0.001,-0.009 0.0019,-0.01367 -0.0013,-0.0032 -0.0025,-0.0066 -0.0039,-0.0098 z m 0.292969,0.8125 c -0.0014,0.01135 -0.0027,0.02295 -0.0078,0.0332 -0.0035,0.0069 -0.0075,0.0131 -0.01172,0.01953 0.01745,-0.0082 0.03417,-0.01754 0.05078,-0.02734 -0.01186,-0.0063 -0.02262,-0.01503 -0.03125,-0.02539 z"
       id="path2-2-735" />
    <path
       style="fill:#483737"
       d="m 18.259027,3.4366201 a 1.6973647,1.6846683 0 0 0 -1.669922,1.703125 1.6973647,1.6846683 0 0 0 1.705078,1.666016 1.6973647,1.6846683 0 0 0 1.689453,-1.683594 l -0.002,-0.03711 a 1.6973647,1.6846683 0 0 0 -1.722609,-1.648437 z m -0.01172,0.511719 c 0.06677,-0.0017 0.13277,0.0023 0.199218,0.01758 0.132,0.03152 0.262401,0.07514 0.382813,0.138672 0.114116,0.06408 0.220574,0.138367 0.308594,0.236328 0.07098,0.08407 0.13305,0.174692 0.169921,0.279297 0.03736,0.106784 0.06414,0.216808 0.07227,0.330078 0.0085,0.132402 0.0069,0.265856 -0.01953,0.396485 -0.02654,0.133471 -0.06528,0.26374 -0.128906,0.384765 -0.05963,0.108154 -0.129785,0.208941 -0.228515,0.285156 -0.0929,0.069 -0.193868,0.124707 -0.306641,0.154297 -0.108734,0.02767 -0.219438,0.04516 -0.332031,0.03516 -0.09798,-0.009 -0.195057,-0.02685 -0.289063,-0.05664 -0.08927,-0.02725 -0.178412,-0.05913 -0.259766,-0.105475 -0.09853,-0.05686 -0.192323,-0.119292 -0.277344,-0.195312 -0.106123,-0.09975 -0.200338,-0.212216 -0.257812,-0.347656 -0.06116,-0.155977 -0.09462,-0.319852 -0.0918,-0.488282 0.0067,-0.166269 0.03391,-0.328179 0.109375,-0.478515 0.06948,-0.129727 0.153944,-0.252267 0.267578,-0.347657 0.008,-0.0067 0.01567,-0.01253 0.02344,-0.01758 0.0014,-9.01e-4 0.0025,-0.0011 0.0039,-0.002 0.03794,-0.03188 0.07969,-0.06087 0.125,-0.08398 0.104915,-0.05128 0.213094,-0.0912 0.328125,-0.113281 0.06642,-0.01137 0.134398,-0.01977 0.201172,-0.02149 z m 0.06836,0.246094 c 0.0093,0.0059 0.01781,0.01179 0.02539,0.01953 0.0028,0.0029 0.0053,0.0063 0.0078,0.0098 0.0045,-0.0077 0.0087,-0.01601 0.01367,-0.02344 -0.01556,-0.0024 -0.031,-0.0048 -0.04687,-0.0059 z m 0.134765,0.884765 c 9e-4,0.0077 0.0014,0.01581 0.002,0.02344 8.98e-4,-0.0047 10e-4,-0.009 0.0019,-0.01367 -0.0013,-0.0032 -0.0025,-0.0066 -0.0039,-0.0098 z m 0.292969,0.8125 c -0.0014,0.01135 -0.0027,0.02295 -0.0078,0.0332 -0.0035,0.0069 -0.0075,0.0131 -0.01172,0.01953 0.01745,-0.0082 0.03417,-0.01754 0.05078,-0.02734 -0.01186,-0.0063 -0.02262,-0.01503 -0.03125,-0.02539 z"
       id="path2-2-19" />
  </g>
</svg>
