<?xml version="1.0" encoding="UTF-8" standalone="no"?>
<!-- Created with Inkscape (http://www.inkscape.org/) -->

<svg
   width="48"
   height="48"
   viewBox="0 0 48 48"
   version="1.1"
   id="svg1"
   inkscape:version="1.3 (0e150ed6c4, 2023-07-21)"
   sodipodi:docname="ricota.svg"
   xmlns:inkscape="http://www.inkscape.org/namespaces/inkscape"
   xmlns:sodipodi="http://sodipodi.sourceforge.net/DTD/sodipodi-0.dtd"
   xmlns="http://www.w3.org/2000/svg"
   xmlns:svg="http://www.w3.org/2000/svg">
  <sodipodi:namedview
     id="namedview1"
     pagecolor="#ffffff"
     bordercolor="#000000"
     borderopacity="0.25"
     inkscape:showpageshadow="2"
     inkscape:pageopacity="0.0"
     inkscape:pagecheckerboard="0"
     inkscape:deskcolor="#d1d1d1"
     inkscape:document-units="px"
     inkscape:zoom="16.770833"
     inkscape:cx="24"
     inkscape:cy="24"
     inkscape:window-width="2400"
     inkscape:window-height="1271"
     inkscape:window-x="2391"
     inkscape:window-y="-9"
     inkscape:window-maximized="1"
     inkscape:current-layer="layer1" />
  <defs
     id="defs1" />
  <g
     inkscape:label="Calque 1"
     inkscape:groupmode="layer"
     id="layer1">
    <path
       style="fill:#ff0000"
       id="path2"
       sodipodi:type="arc"
       sodipodi:cx="55.729786"
       sodipodi:cy="39.484909"
       sodipodi:rx="0.13583416"
       sodipodi:ry="0.04690792"
       sodipodi:start="0"
       sodipodi:end="6.2620298"
       sodipodi:open="true"
       sodipodi:arc-type="arc"
       d="m 55.86562,39.484909 a 0.13583416,0.04690792 0 0 1 -0.135116,0.04691 0.13583416,0.04690792 0 0 1 -0.136545,-0.04641 0.13583416,0.04690792 0 0 1 0.133672,-0.0474 0.13583416,0.04690792 0 0 1 0.137959,0.04591" />
    <path
       style="fill:#ffffff"
       d="m 21.889886,9.7138557 c -0.449872,0.3178453 -0.806522,0.7487293 -1.15545,1.1693133 -0.12272,0.147921 -0.827239,1.020925 -0.811566,1.206065 0.02971,0.351013 1.607219,1.363978 1.939505,1.571657 0.105128,0.06571 0.86698,0.535959 0.89066,0.521307 0.06397,-0.03958 0.107056,-0.175596 0.123798,-0.20891 0.09297,-0.184991 0.184533,-0.370694 0.278546,-0.555157 0.230574,-0.452411 0.431597,-0.999156 0.759984,-1.397566 0.113017,-0.137117 0.242114,-0.262563 0.350761,-0.403312 0.141543,-0.183361 0.237008,-0.401671 0.381711,-0.582238 0.338014,-0.421788 0.736238,-0.790323 1.100429,-1.1886565 C 25.774037,9.8181694 26.367831,9.1252156 26.3535,9.091963 26.247505,8.8460223 25.276908,8.0612022 25.043302,7.7872458 24.825642,7.5319899 24.360507,6.7765789 24.018528,6.6082611"
       id="path3" />
    <path
       style="fill:#ffffff"
       d="m 11.109124,10.146182 c 0.154748,0.391383 0.307455,0.783579 0.464243,1.174149 0.172199,0.428959 0.334135,0.862388 0.522704,1.284407 0.287041,0.642399 0.802895,1.215209 1.162328,1.82022 0.07335,0.123475 0.318985,0.732151 0.567408,0.732151 0.221545,0 1.007031,-0.822939 1.231105,-0.965239 0.31033,-0.197078 0.64007,-0.361846 0.962875,-0.537749 0.04545,-0.02477 1.938205,-1.01836 1.877606,-1.285374 -0.0699,-0.307993 -0.406462,-0.613385 -0.612113,-0.817261 C 16.511206,10.784088 15.558813,10.26 14.709589,9.5910246 14.198421,9.1883527 13.871449,8.5613431 13.347809,8.1808855 c -0.09871,-0.071717 -0.234473,0.073972 -0.340446,0.1344371 -0.245343,0.1399866 -0.781629,0.5592025 -0.962875,0.6934635 -0.41907,0.3104341 -0.933257,0.6121292 -1.265493,1.0261709 -0.08345,0.103994 -0.178175,0.247626 -0.09629,0.374297"
       id="path4" />
    <path
       style="fill:#ffffff"
       d="m 8.3924407,17.778149 c -0.695898,0.559061 -0.6265986,0.475985 -1.2482987,1.078399 -0.1621854,0.157154 -0.7695064,0.668134 -0.8459546,0.929454 -0.055546,0.18987 0.3361513,0.583346 0.3920277,0.650908 0.5973714,0.722302 1.1821783,1.495205 1.887923,2.117143 0.068179,0.06008 1.1917674,0.952293 1.220788,0.928487 0.4461169,-0.365956 0.6787949,-0.989204 1.0041409,-1.464301 0.197586,-0.288532 0.40664,-0.569079 0.605236,-0.856916 0.160272,-0.232292 0.324089,-0.463845 0.471121,-0.70507 0.219264,-0.35973 -0.09836,-0.370379 -0.447049,-0.594812 -0.248433,-0.159903 -0.504857,-0.30844 -0.742789,-0.483586 C 10.151503,18.981761 9.7051482,18.487063 9.1627408,18.090547 9.0627302,18.017436 8.9714866,17.926261 8.8566841,17.879703 8.7098896,17.82017 8.5471885,17.812001 8.3924407,17.778149 Z"
       id="path5" />
    <path
       style="fill:#ffffff"
       d="m 10.672391,29.472246 c -0.177673,0.103165 -0.392134,0.159956 -0.53302,0.309495 -0.1599156,0.169739 -0.7752485,1.491548 -0.8115659,1.566822 -0.064821,0.134352 -0.8693004,1.582929 -0.8459545,1.641293 0.1491035,0.372759 1.3048359,1.057582 1.6575204,1.412074 0.454548,0.456876 0.569775,0.636783 0.911293,1.118053 0.171787,0.242084 1.04215,1.649955 1.440874,1.57746 0.230283,-0.04187 0.33751,-0.176226 0.488315,-0.356887 0.569627,-0.682403 0.902862,-1.547868 1.396169,-2.284464 0.156919,-0.234309 0.270615,-0.357775 0.453926,-0.569666 0.03609,-0.04171 0.07903,-0.09399 0.123799,-0.130568 0.0084,-0.0069 0.03591,-0.01054 0.02751,-0.01741 -0.127843,-0.10457 -0.285375,-0.172579 -0.402344,-0.289185 -0.543198,-0.541518 -0.818046,-1.025819 -1.286126,-1.636458 -0.358038,-0.467082 -0.949382,-1.224323 -1.406485,-1.682882 -0.16724,-0.167773 -0.349908,-0.319532 -0.529582,-0.473915 -0.09096,-0.07815 -0.166166,-0.192317 -0.281984,-0.223417 -0.130154,-0.03495 -0.293447,0.119044 -0.402345,0.03965 -0.117868,-0.08593 -0.06151,-0.287254 -0.120359,-0.420721 -0.0081,-0.01839 -0.117449,-0.114646 -0.130676,-0.142174"
       id="path6" />
    <path
       style="fill:#ffffff"
       d="m 20.167027,36.011307 c -0.680697,0.996555 -0.587259,0.82034 -1.179521,1.83763 -0.106082,0.182209 -1.218347,2.132474 -1.090113,2.324118 0.280289,0.418887 1.578375,0.726145 2.035793,0.893668 1.389108,0.508741 2.851608,1.19461 4.350132,1.309553 0.09336,0.0072 0.89856,-0.0079 0.925048,-0.06673 0.238417,-0.529253 0.09774,-1.784073 0.0447,-2.380215 -0.01804,-0.202792 -0.135014,-1.562993 -0.316373,-1.716733 -0.163844,-0.138893 -0.512248,-0.306741 -0.663696,-0.381066 -0.909485,-0.44634 -1.79339,-0.762158 -2.802654,-0.882063 -0.481674,-0.05722 -1.311609,0.01305 -1.757247,-0.213745"
       id="path7" />
    <path
       style="fill:#ffffff"
       d="m 32.718792,33.033379 c -0.570116,0.563827 -2.437198,2.53896 -1.894801,3.481825 0.311869,0.54213 1.592922,0.868423 2.176786,1.139331 0.764149,0.354558 1.588329,0.644105 2.314339,1.071628 0.219955,0.129525 0.573016,0.574544 0.863149,0.528077 0.640711,-0.102614 1.458282,-1.63123 1.667837,-2.140355 0.794301,-1.929804 0.425374,-1.160116 0.839077,-2.326053 0.08761,-0.246904 0.369418,-0.712408 0.306056,-1.001992 -0.04462,-0.20394 -0.450273,-0.264376 -0.584602,-0.326904 -0.638153,-0.29705 -0.795647,-0.37265 -1.399608,-0.739888 -0.676003,-0.411044 -0.63455,-0.413295 -1.282687,-0.87626 -0.366058,-0.261475 -0.732031,-0.499204 -1.134817,-0.700233 -0.269398,-0.123124 -0.162273,-0.07091 -0.412661,-0.197304 -0.04255,-0.02148 -0.130676,-0.105691 -0.130676,-0.05803 0,0.0903 0.162454,0.12021 0.123798,0.255334 -0.133104,0.465269 -0.749228,1.281419 -0.883781,1.442056 -0.154844,0.184859 -0.417911,0.25956 -0.567409,0.448768 -0.12092,0.15304 -0.123407,0.372236 -0.216647,0.543552 -0.119409,0.219397 -0.309512,0.337958 -0.395466,0.564829"
       id="path8" />
    <path
       style="fill:#ffffff"
       d="m 39.434846,22.755225 c -0.486835,0.770954 -0.838581,1.661349 -1.213911,2.498209 -0.14611,0.325779 -0.274613,0.659242 -0.419538,0.98555 -0.150888,0.339735 -0.560953,0.864704 -0.426416,1.277637 0.128735,0.395125 1.093451,0.523586 1.354903,0.611254 0.749166,0.251204 1.488983,0.538649 2.235245,0.798885 0.215782,0.07525 1.881209,0.695523 1.929189,0.59868 0.110617,-0.223267 0.107894,-0.487125 0.140993,-0.734084 0.157986,-1.178798 0.124112,-1.041164 0.244157,-2.0978 0.185348,-1.631418 0.110129,-0.760516 0.175381,-1.62872 0.06328,-0.84191 0.104516,-0.751002 -0.794372,-1.326963 -0.687476,-0.440498 -0.809307,-0.514352 -1.502773,-0.837572 -0.337132,-0.157135 -1.24407,-0.627907 -1.616254,-0.432327"
       id="path9" />
    <path
       style="fill:#ffffff"
       d="m 36.284869,13.330118 c 0.167096,0.421716 0.01256,-0.431704 0.0069,-0.374296 -0.08797,0.888234 0.284753,-0.182267 -0.821882,0.589976 -0.400406,0.279415 -1.317458,1.506265 -1.702226,1.987541 -0.0605,0.07567 -0.27742,0.314122 -0.199453,0.4449 0.362572,0.608154 1.385875,1.291482 1.991088,1.679981 0.0655,0.04205 1.176428,0.723464 1.351464,0.842408 0.480758,0.326692 0.64988,0.497495 1.12794,0.872391 0.05494,0.04308 1.119464,0.852346 1.179522,0.781476 0.296245,-0.349577 0.454899,-0.863847 0.691207,-1.24572 0.234143,-0.378375 0.570778,-0.803186 0.845954,-1.162542 0.329038,-0.429695 0.680193,-0.840278 1.021335,-1.260228 2.08e-4,-2.55e-4 0.563403,-0.687714 0.560531,-0.741822 -0.01888,-0.355796 -0.453173,-0.55021 -0.691206,-0.815327 -0.820893,-0.914294 -0.472024,-0.536469 -1.299882,-1.493316 -0.599194,-0.692556 -1.289858,-1.296507 -1.887923,-1.985608 -0.03944,-0.04545 -0.411157,-0.595816 -0.447049,-0.561928 -0.138623,0.130888 -0.198771,0.32606 -0.312934,0.478751 -0.592189,0.792039 -0.77257,0.979583 -1.468385,1.678047 -0.228143,0.229011 -0.465389,0.448768 -0.698084,0.673153 -0.236134,0.235023 -0.47352,0.468795 -0.708401,0.705069 -0.0091,0.0091 -0.301611,0.296032 -0.340445,0.380099 -0.0023,0.03611 -0.0046,0.07222 -0.0069,0.108324 0.0057,0.0048 0.01146,0.0097 0.01719,0.01451"
       id="path10" />
    <path
       style="fill:#ffffff"
       d="m 30.624539,9.4237036 c -0.400652,0.5022281 -0.728574,1.0485214 -0.928487,1.6606374 -0.01911,0.0585 -0.170031,0.456726 -0.02407,0.483587 0.380864,0.07009 0.794888,0.02927 1.179522,0.07641 0.438266,0.05371 0.857119,0.193378 1.282687,0.302726 0.110518,0.0284 0.312131,0.1187 0.409222,0.01161 0.08482,-0.09356 0.28852,-0.615316 0.288863,-0.61609 0.189069,-0.426746 0.24781,-0.553717 0.471121,-0.958469 0.329672,-0.5975305 0.744464,-1.1026465 1.138256,-1.6528997 0.02651,-0.037044 0.194933,-0.2191709 0.08597,-0.2601697 -0.06649,-0.025019 -0.141762,-0.01717 -0.20977,-0.03772 C 33.86149,8.2954243 33.408009,8.1479465 32.956073,7.9961631 31.101213,7.3732054 33.852726,8.24722 31.879716,7.6160639 31.734659,7.5696609 31.07016,7.3614481 31.06815,7.3626644 c -0.3162,0.191337 -0.364138,1.8029984 -0.44361,2.061047 -0.126966,0.4122604 -1.004119,1.7228396 -0.526143,2.2989716"
       id="path11" />
    <path
       style="fill:#ffffff"
       d="m 20.239243,19.655433 c 0.367694,0.432803 0.819419,2.033274 1.588744,2.249646 0.298104,0.08384 0.660541,-0.02101 0.959436,-0.02611 0.490813,-0.0084 0.957461,0.131255 1.433996,0.228253 0.19592,0.03988 1.382372,0.241821 1.509651,0.119929 0.48225,-0.461838 -0.796656,-1.827816 -1.152011,-2.16937 -0.133959,-0.128757 -0.69462,-0.707034 -0.91817,-0.758264 -1.238621,-0.283851 -2.625127,-0.04594 -3.896206,-0.05416"
       id="path12" />
    <path
       style="fill:#ffffff"
       d="m 19.836899,25.224419 c -0.113482,0.03353 -0.242137,0.03472 -0.340445,0.100586 -0.323374,0.216642 -0.661252,0.89172 -0.821883,1.191558 -0.206509,0.385477 -0.531976,0.983358 -0.436733,1.451728 0.182811,0.898989 1.799999,1.245704 2.534425,1.39273 0.05732,0.01147 1.268825,0.269913 1.299882,0.218581 0.27989,-0.46261 0.243254,-0.566873 0.350761,-1.186722 0.03677,-0.21202 0.05989,-0.426249 0.09629,-0.638335 0.01268,-0.07389 0.24772,-0.880212 0.199452,-0.972976 -0.366157,-0.703709 -1.498507,-1.21654 -2.156152,-1.60841 -0.21475,-0.127963 -0.497487,-0.259496 -0.639624,-0.457473"
       id="path13" />
    <path
       style="fill:#ffffff"
       d="m 27.704964,25.349185 c -0.05158,-0.08253 -0.08213,-0.182794 -0.154748,-0.247597 -0.176438,-0.157458 -0.394944,-0.035 -0.526142,0.100586 -0.653409,0.675253 -1.211342,1.711196 -1.33427,2.646187 -0.05654,0.430028 1.462877,0.535514 1.667837,0.574501 0.807559,0.153612 2.003737,0.634908 2.830165,0.360756 0.285509,-0.09471 0.473492,-0.616222 0.608675,-0.844342 0.06146,-0.103708 0.473489,-0.613891 0.515826,-0.754396 0.0212,-0.07035 -0.0184,-0.08975 -0.08597,-0.147977 -1.031053,-0.888461 -2.066651,-1.535989 -3.301286,-2.102636 -0.121047,-0.05555 -0.760555,-0.215216 -0.735912,-0.443933"
       id="path14" />
    <path
       style="fill:#ffffff"
       d="m 28.726299,20.495907 c -0.06648,0.331419 -0.172439,0.657315 -0.199452,0.994255 -0.01138,0.141969 -0.03388,1.209565 0.29574,1.39273 0.621449,0.345328 1.911436,0.04976 2.551619,-0.06383 0.112422,-0.01995 0.960824,-0.134501 1.021335,-0.255333 0.133867,-0.267317 -0.346822,-1.180829 -0.460804,-1.421746 -0.09671,-0.204399 -0.892462,-1.709498 -1.286126,-1.668374 -0.407946,0.04262 -1.570073,0.804132 -1.922312,1.022302 z"
       id="path15" />
    <path
       style="fill:#ececec"
       d="m 18.413219,2.6757331 c -0.308223,0.5687565 -0.151102,0.1755217 -0.113481,1.3259951 0.01297,0.3967288 0.0387,0.7971164 0.08597,1.1915579 0.0093,0.077346 0.02436,0.1539027 0.03439,0.2311545 0.0022,0.016658 -0.006,0.053301 0.01032,0.049326 0.222388,-0.054164 0.663378,-0.3133468 0.821883,-0.3907382 0.783905,-0.3827469 1.627675,-0.7524449 2.513792,-0.5870744 0.673698,0.1257282 1.299982,0.4448497 1.973894,0.5628951 0.01812,0.00317 0.543076,0.09669 0.550214,0.080275 0.204111,-0.46939 -0.378381,-1.8702606 -0.539903,-2.3502316 -0.06665,-0.1980428 -0.477127,-1.7333114 -0.691206,-1.88985732 -0.109605,-0.0801485 -0.316583,0.0962534 -0.38515,0.13830582 -0.793965,0.4869374 -1.577375,0.8900248 -2.46221,1.1886564 -0.860918,0.29056 -1.685853,0.1053799 -2.376238,0.8820624"
       id="path16" />
    <path
       style="fill:#ececec"
       d="m 13.557578,9.9914345 c 0.464212,0.1664835 0.709094,0.6116675 0.969753,1.0068275 0.072,0.10916 0.557092,0.770548 0.557092,0.918815 0,0.141602 -1.325865,0.79184 -1.430558,0.700234 -0.217457,-0.190275 -0.08941,-1.266454 -0.08941,-1.591968 0,-0.282916 -0.122534,-0.508287 -0.278546,-0.736986 -0.07394,-0.108385 -0.150849,-0.18719 -0.140992,-0.189566 0.02908,-0.007 0.06046,0.01527 0.08941,0.0077 0.110692,-0.0288 0.210678,-0.1353279 0.323251,-0.1150935 0.246026,0.044225 0.571757,0.2787655 0.82876,0.4023445"
       id="path17" />
    <path
       style="fill:#ececec"
       d="m 8.5678216,19.483277 c -0.051583,0.117028 -0.1262697,0.226403 -0.1547478,0.351084 -0.063602,0.278458 0.878223,0.57197 1.1004286,0.634465 0.046783,0.01316 0.2931786,0.115889 0.323251,0.02708 C 9.8718734,20.392194 9.7166918,20.125345 9.6785667,20.057778 9.5673386,19.860652 9.4508344,19.718693 9.2762225,19.566453 8.9153407,19.25181 9.0350172,19.335453 8.5678216,19.483277 Z"
       id="path18" />
    <path
       style="fill:#ececec"
       d="m 10.727413,32.166792 c -0.0149,0.101553 -0.05859,0.202963 -0.04471,0.304659 0.10926,0.800064 0.846436,1.058541 1.519967,1.208 0.140456,0.03117 0.515919,0.130087 0.629308,-0.03192 0.115976,-0.165701 -0.307207,-0.610923 -0.340445,-0.64317 -0.310398,-0.301138 -0.802936,-0.588212 -1.213911,-0.722479 -0.17811,-0.05819 -0.40308,9.26e-4 -0.550214,-0.115093 -0.136101,-0.10732 -0.135261,-0.319168 -0.202892,-0.478751"
       id="path19" />
    <path
       style="fill:#ececec"
       d="m 20.45589,27.150062 c -0.02866,0.08447 -0.109605,0.167392 -0.08597,0.253399 0.01874,0.06821 0.792799,0.543521 0.80125,0.535815 0.197129,-0.179769 0.02349,-0.839099 -0.251036,-0.854982 -0.156032,-0.009 -0.309495,0.04385 -0.464243,0.06577 z"
       id="path20" />
    <path
       style="fill:#ececec"
       d="m 21.068003,38.927335 c -0.112549,0.08946 -0.341602,-0.25141 -0.481437,-0.181828 -0.05459,0.02716 0.03136,0.140925 0.08941,0.159583 0.124607,0.04005 0.305541,-0.07599 0.392027,0.02224 0.106696,0.121196 -0.01575,0.334892 0.05158,0.481653 0.005,0.01092 0.500519,0.53658 0.567409,0.601582 0.625795,0.608137 0.564048,0.362929 1.100428,-0.299824 0.09375,-0.115842 0.419313,-0.367507 0.429855,-0.503898 0.01785,-0.230915 -0.388063,-0.537529 -0.53302,-0.657678 -0.320346,-0.265522 -0.672783,-0.460776 -1.038529,-0.653809 -0.01694,-0.0089 -0.167748,-0.106478 -0.192576,-0.08801 -0.308377,0.229356 -0.693399,0.973317 -0.735911,1.351142"
       id="path21" />
    <path
       style="fill:#ececec"
       d="m 28.361782,26.735144 c 0.262972,0.447127 0.09854,0.331078 0.471121,0.503898 1.287796,0.597347 -0.06867,-0.9693 -0.323251,-0.771805 -0.08059,0.06252 -0.09858,0.178605 -0.14787,0.267907 z"
       id="path22" />
    <path
       style="fill:#ececec"
       d="m 34.101205,34.701754 c -0.18686,0.169686 -0.775395,0.696303 -0.56053,1.038744 0.14597,0.232641 0.339037,0.323498 0.577725,0.457473 0.182162,0.102248 1.591702,0.759912 1.832901,0.471981 0.278062,-0.331936 0.110865,-0.975583 0.14787,-1.373387 0.0058,-0.06247 0.221142,-0.874441 0.220086,-0.877226 -0.01399,-0.0369 -0.037,-0.07601 -0.07222,-0.09382 -0.359067,-0.181573 -2.139742,-0.341521 -2.173346,0.02708"
       id="path23" />
    <path
       style="fill:#ececec"
       d="m 40.51808,25.283417 c -1.137888,0.540589 0.916178,1.796975 1.213911,1.528134 0.08708,-0.07863 0.11377,-0.218659 0.106604,-0.329806 -0.04267,-0.66172 -0.918999,-1.030704 -1.502773,-0.817262"
       id="path24" />
    <path
       style="fill:#ececec"
       d="m 36.869471,14.128036 c -0.03854,0.09825 -0.936415,0.831245 -0.890659,1.04358 0.06448,0.299211 0.674922,0.480045 0.914731,0.60255 0.06364,0.03251 0.648556,0.401781 0.74279,0.390738 0.07674,-0.009 0.03125,-0.152022 0.03439,-0.22922 0.01352,-0.332241 0.01015,-0.659924 0.05502,-0.989419 0.04121,-0.3026 0.121139,-0.489871 0.35764,-0.695398 0.07978,-0.06933 0.281568,-0.128365 0.312934,-0.23599 0.06304,-0.216294 -1.085197,-0.364307 -1.265493,-0.231155 -0.115907,0.0856 -0.174234,0.229543 -0.261352,0.344314 z"
       id="path25" />
    <path
       style="fill:#ececec"
       d="m 39.960988,16.926069 c -0.416833,0.21202 -0.260742,0.109698 -0.656818,0.412984 -0.586604,0.469346 0.126037,-0.09497 -0.35764,0.272743 -0.522328,0.397102 0.658234,0.300898 1.059163,-0.059 0.05457,-0.04899 0.135894,-0.103843 0.130676,-0.176993 -0.07219,-1.011995 -0.492171,0.132488 0.209769,-0.8898 0.157026,-0.228687 -0.940786,-0.10729 -1.138256,0.02515"
       id="path26" />
    <path
       style="fill:#ececec"
       d="m 30.449158,21.426328 c -0.559441,0.577145 -0.07949,0.759253 -0.01032,0.503898 0.04393,-0.162156 0.0069,-0.335932 0.01032,-0.503898 z"
       id="path27" />
    <path
       style="fill:#ececec"
       d="m 22.498561,21.225156 c -0.05731,-0.08285 -0.08909,-0.305877 -0.171942,-0.248563 -0.08286,0.05731 0.07466,0.222363 0.171942,0.248563 0.206098,0.05551 0.426596,-0.04327 0.639624,-0.02998 0.304919,0.01902 0.623407,0.181602 0.935364,0.221483"
       id="path28" />
    <path
       style="fill:#ececec"
       d="m 31.993197,9.4652921 c 0.189823,-0.7827326 0.01858,-0.032013 0,0 -0.137919,0.2375866 -0.359464,0.4182284 -0.50551,0.6509079 -0.05164,0.08228 -0.05943,0.185352 -0.07909,0.28048 -0.0842,0.407307 0.02402,0.51544 0.429855,0.483587 0.135748,-0.01065 0.310101,-0.02893 0.436733,-0.08124 0.26812,-0.110756 0.280737,-1.1606841 0.02407,-1.2873076 -0.09254,-0.045652 -0.204038,-0.03095 -0.306057,-0.046424 z"
       id="path29" />
    <path
       style="fill:#ececec"
       d="m 23.014387,10.207114 c -0.127685,0.165314 -0.862294,0.93331 -0.50551,1.213803 0.211192,0.166033 0.365938,0.219827 0.612114,0.26017 0.558722,0.09156 0.664885,-0.532504 0.82876,-0.94783 0.105618,-0.26768 0.209976,-0.534348 0.306057,-0.8056559 4e-4,-0.00113 0.07798,-0.2121945 0.0619,-0.2118111 -0.267243,0.00637 -0.562244,0.2253576 -0.742789,0.34915 -0.199048,0.136478 -0.38496,0.291753 -0.567409,0.449735 -0.241955,0.209508 -0.701693,0.626419 -0.612113,0.994255"
       id="path30" />
    <path
       style="fill:#ffeeaa"
       d="m 21.986174,2.2801591 c 0.1865,0.5762135 0.175856,0.6887767 0.460804,1.147068 0.02503,0.04026 0.360155,0.5805487 0.560531,0.5106676 0.110071,-0.038387 0.07136,-0.3959686 0.06878,-0.4545716 -0.01685,-0.3829351 -0.152355,-1.3732812 -0.777178,-1.2940783 -0.107762,0.01366 -0.208623,0.06061 -0.312934,0.090914 z"
       id="path31" />
    <path
       style="fill:#ffeeaa"
       d="m 15.940694,11.543748 c 0.09056,0.06802 0.190283,0.125307 0.271668,0.204074 0.215638,0.208701 0.381711,0.964767 0.381711,1.242818"
       id="path32" />
    <path
       style="fill:#ffeeaa"
       d="m 11.906935,10.556264 c 0.475656,1.159002 1.144579,2.563203 2.434698,2.972124"
       id="path33" />
    <path
       style="fill:#ffeeaa"
       d="m 8.8566841,20.851827 c -1.372351,-0.630287 0.3347326,1.201159 0.8665876,1.142232"
       id="path34" />
    <path
       style="fill:#ffeeaa"
       d="m 8.5678216,19.844032 c 1.1180726,0.339514 2.1013934,0.965274 3.0571284,1.617115"
       id="path35" />
    <path
       style="fill:#ffeeaa"
       d="m 20.167027,26.379225 c -0.08139,-0.05158 -0.148932,-0.14003 -0.244157,-0.154748 -0.05521,-0.0085 -0.09648,0.05788 -0.137554,0.09575 -0.284163,0.262019 -0.207154,0.589718 -0.134114,0.925585"
       id="path36" />
    <path
       style="fill:#ffeeaa"
       d="m 21.742016,26.988544 c 0.600251,0.106379 0.558771,0.753337 0.756545,1.198328"
       id="path37" />
    <path
       style="fill:#ffeeaa"
       d="m 20.342408,28.329047 c 0.334321,0.149771 0.698284,0.130886 1.055724,0.16055"
       id="path38" />
    <path
       style="fill:#ffeeaa"
       d="m 10.64832,31.474295 c 0.01719,-0.105099 0.03439,-0.210199 0.05158,-0.315298 -0.0092,-0.0087 -0.02547,-0.03859 -0.02751,-0.02611 -0.154099,0.941931 0.274665,-0.513977 -0.409222,0.94783 -0.161327,0.344837 -0.01446,0.774891 0.165065,1.075497 0.05335,0.08933 0.109193,0.17815 0.168503,0.263071 0.01103,0.01579 0.03896,0.06513 0.03439,0.04642 -0.08523,-0.348673 -0.6830887,-1.468296 -0.333567,-1.790239 0.09914,-0.09132 0.244317,-0.118487 0.350762,-0.201172 0.483053,-0.375228 0.273877,-0.420846 0.663696,-0.42749"
       id="path39" />
    <path
       style="fill:#ffeeaa"
       d="m 12.271452,35.320745 c -0.122327,0.7458 0.677244,0.44007 0.962875,0.09865 0.130753,-0.156291 0.621182,-1.298124 0.698084,-1.326963 0.03343,-0.01254 0.135951,0.02612 0.182259,0.01934"
       id="path40" />
    <path
       style="fill:#ffeeaa"
       d="m 19.785316,38.442781 c -0.08826,0.09446 -0.193381,0.175614 -0.26479,0.283382 -0.0938,0.141552 -0.02871,0.763534 -0.02407,0.925585 0.0062,0.215223 -0.0075,0.106674 0.0069,0.277579 0.0037,0.04374 -0.0046,0.168696 0.0172,0.130569 0.03505,-0.06143 0.349678,-1.210986 0.350761,-1.24572 0.004,-0.12701 -0.1476,-0.260268 -0.08597,-0.371395 0.08726,-0.157349 0.309054,-0.185383 0.453927,-0.292086 0.08882,-0.06542 0.146814,-0.165038 0.226964,-0.240826 0.09501,-0.08984 0.220975,-0.199322 0.216646,-0.201172 -0.261116,-0.111628 -0.869271,0.67889 -0.897537,0.734084 -0.04244,0.08288 -0.0726,0.592236 0,0.739888"
       id="path41" />
    <path
       style="fill:#ffeeaa"
       d="m 23.258544,41.582227 c 0.388197,-0.423657 0.40336,-0.394391 0.684329,-0.864653 0.219973,-0.368172 0.10126,-1.218733 0.113482,-1.237983 0.05028,-0.0792 0.259783,0.500652 0.285424,0.555158 0.102654,0.218214 0.273623,0.492142 0.23728,0.746658 -0.02533,0.177417 -0.113307,0.397673 -0.199453,0.555158 -0.01494,0.02732 -0.149358,0.167188 -0.140992,0.197303 0.01964,0.0707 0.372199,0.0025 0.409221,-0.01257 0.16704,-0.06786 0.14537,-0.378621 0.140993,-0.515504 -0.0088,-0.274598 -0.01315,-0.374216 -0.0619,-0.639301 -0.0194,-0.105487 -0.04644,-0.209428 -0.06878,-0.314332 -0.04025,-0.189035 -0.08113,-0.380784 -0.106604,-0.572567 -0.04553,-0.342813 0.02214,-1.063504 -0.426416,-1.169312 -0.02103,-0.005 -0.118683,-0.04653 -0.140993,-0.03869 -0.09321,0.03277 -0.02572,0.32065 -0.02407,0.341412 0.03243,0.407691 0.15214,0.848513 0.04127,1.250555 -0.125318,0.454416 -0.261899,1.023951 -0.199453,1.498152"
       id="path42" />
    <path
       style="fill:#ffeeaa"
       d="m 33.007655,34.269427 c 0.04356,-0.104132 0.104392,-0.202624 0.130675,-0.312397 0.0052,-0.02166 -0.0533,0.0046 -0.0619,0.02515 -0.03799,0.09083 -0.01292,0.206172 -0.06878,0.28725 -0.120375,0.174731 -0.322848,0.282043 -0.443611,0.456506 -0.221026,0.31931 -0.367303,0.906123 -0.230402,1.287308 0.02237,0.06229 0.132409,0.345102 0.271668,0.302725 0.187412,-0.05703 0.269083,-0.287736 0.374834,-0.452637 0.100731,-0.157074 0.191707,-0.32028 0.281985,-0.483587 0.253891,-0.459276 0.777895,-1.635756 1.231104,-1.938216 0.05873,-0.0392 0.263455,-0.09093 0.29574,-0.100586 0.0883,-0.02641 0.210545,-0.08565 0.288863,-0.03482"
       id="path43" />
    <path
       style="fill:#ffeeaa"
       d="m 37.698232,34.197856 c -0.02031,0.696477 -0.255823,1.429608 -0.220086,2.11811"
       id="path44" />
    <path
       style="fill:#ffeeaa"
       d="m 35.315116,37.42338 c -1.303214,-0.220596 1.291535,0.221606 0.618991,-0.137338 -0.177251,-0.0946 -0.653488,-0.289848 -0.794372,-0.343347 -0.153075,-0.05813 -0.309199,-0.107899 -0.464243,-0.160551 -0.09739,-0.03307 -0.375779,-0.152609 -0.29574,-0.08801 0.24687,0.199241 0.708954,0.290062 0.97663,0.414918 0.194276,0.09062 0.382152,0.194859 0.567408,0.302725 0.3139,0.18277 0.580013,0.495776 0.945681,0.579337"
       id="path45" />
    <path
       style="fill:#ffeeaa"
       d="m 39.758097,25.039689 c -0.09443,0.01145 0.154925,-0.890337 0.05502,-0.834671 -0.605495,0.337378 -0.948487,1.345293 -1.093551,1.967231 -0.07701,0.330171 -0.05286,0.213082 -0.08597,0.516471 -0.0096,0.088 -0.0565,0.34432 -0.01719,0.265006 0.130845,-0.264002 0.208975,-0.558012 0.323251,-0.829835 0.212145,-0.50462 0.439563,-1.008812 0.722156,-1.478809 0.13841,-0.230198 0.308217,-0.441055 0.491754,-0.6364 0.06939,-0.07386 0.143291,-0.138204 0.216647,-0.206975 0.02547,-0.02388 0.108284,-0.08783 0.07909,-0.06867 -0.457434,0.300191 -0.474814,0.856928 -0.691206,1.306651 -0.3659,0.76044 -0.522704,0.589958 -0.522704,1.427548"
       id="path46" />
    <path
       style="fill:#ffeeaa"
       d="m 42.168723,24.613166 c 0.09399,0.221805 0.204186,0.437424 0.281985,0.665415 0.0865,0.253493 0.142667,0.516369 0.209769,0.775673 0.0414,0.159999 0.05882,0.316272 0.06878,0.479718 0.0035,0.05757 0.0091,0.229254 0.01719,0.172157 0.07609,-0.534999 0.128997,-1.152735 -0.199452,-1.617114 -0.117008,-0.165431 -0.229433,-0.338355 -0.378273,-0.475849 -1.163795,-1.07508 -0.496315,1.014657 -0.357639,1.421745 0.142547,0.418453 0.466189,0.89412 0.447049,1.346305 -0.01102,0.260222 -0.02558,0.522561 -0.05158,0.781477 -0.0098,0.09737 -0.01807,0.194771 -0.02751,0.292086 -0.0013,0.01316 -0.004,0.05225 0,0.03965 0.276194,-0.870011 -0.12669,-1.957182 -0.374834,-2.791263 -0.08725,-0.293255 -0.116609,-0.60329 -0.226963,-0.888832"
       id="path47" />
    <path
       style="fill:#ffeeaa"
       d="m 30.125907,20.046172 c -0.351895,0.445327 -0.956097,0.993675 -1.014458,1.619048 -0.0071,0.0764 1.16e-4,0.244843 0.07222,0.218582 0.438793,-0.159827 0.836014,-0.598381 1.062601,-1.000058 0.05654,-0.100224 0.09439,-0.249861 0.185698,-0.326905 0.23447,-0.197834 0.884143,0.04875 1.072918,0.206008 0.121943,0.101588 0.199316,0.222027 0.299179,0.339478"
       id="path48" />
    <path
       style="fill:#ffeeaa"
       d="m 28.299883,25.988486 c -0.04929,-0.08447 -0.0519,-0.234587 -0.14787,-0.253399 -0.207447,-0.04066 -0.635598,0.533471 -0.663696,0.575468 -0.15362,0.229607 -0.2343,0.425626 -0.299179,0.673153 -0.0016,0.0063 -0.05647,0.20505 -0.0069,0.220516 0.187339,0.05842 0.50487,-0.393466 0.594919,-0.510668 0.545202,-0.709595 -0.105384,-0.890622 -0.185697,-0.339478"
       id="path49" />
    <path
       style="fill:#ffeeaa"
       d="m 30.205,27.245812 c 0.07535,0.02518 -0.51965,0.698769 -0.333567,0.84531 0.148512,0.116953 0.564829,-0.496405 0.577725,-0.513569 0.04161,-0.05538 0.0775,-0.114897 0.113482,-0.174092 0.0078,-0.01282 0.02103,-0.05609 0.01719,-0.04159 -0.07207,0.272204 -0.769898,1.289037 -0.130676,0.80759"
       id="path50" />
    <path
       style="fill:#ffeeaa"
       d="m 21.766088,19.733775 c 0.06763,-0.0835 0.286391,-0.182868 0.202891,-0.250498 -0.453803,-0.36756 -0.121624,0.485718 -0.106604,0.61222 0.01163,0.09795 -0.134252,0.315884 -0.04471,0.407181 0.138528,0.141233 0.892059,-0.463223 1.12794,-0.498095 0.467876,-0.06917 0.969744,0.308329 1.327392,0.56483"
       id="path51" />
    <path
       style="fill:#ffeeaa"
       d="m 23.750298,8.6306212 c -0.544072,0.3459629 -0.905333,0.8597944 -1.286126,1.3627477 -0.303725,0.4011621 -0.616663,0.7784461 -0.97663,1.1306261 -0.117648,0.115102 -0.236883,0.224939 -0.350762,0.343346 -0.01649,0.01715 -0.07536,0.04998 -0.05158,0.04933 0.536948,-0.01481 1.111938,-0.819125 1.475262,-1.149969 C 23.101355,9.8741621 23.7056,9.4360709 24.187033,8.8811232 24.456222,8.5708297 24.65544,8.2148559 24.953894,7.9303915"
       id="path52" />
    <path
       style="fill:#ffeeaa"
       d="m 22.281914,13.228565 c 0.45443,-0.738421 0.971085,-1.435639 1.45119,-2.156798 0.199334,-0.299415 0.394915,-0.777553 0.749667,-0.92365"
       id="path53" />
    <path
       style="fill:#ffeeaa"
       d="m 31.810938,8.5716236 c 0.01146,-0.095105 0.129494,-0.2738534 0.03439,-0.2853162 -0.09511,-0.011463 0.01307,0.2021068 -0.03439,0.2853162 -1.290912,2.2632034 0.03666,-0.5500037 -0.811566,1.3211592 -0.147626,0.3256592 -0.0921,0.1928002 -0.209769,0.4845542 -0.02674,0.06629 -0.131202,0.237923 -0.06878,0.203106 0.496955,-0.277168 1.027435,-1.1374683 1.413363,-1.5813286 0.166452,-0.1914376 0.36189,-0.2738197 0.59492,-0.3568871 0.07286,-0.025974 0.293879,-0.078833 0.216646,-0.083177 -0.47571,-0.026759 -1.585456,0.5948676 -1.832901,1.0019918"
       id="path54" />
    <path
       style="fill:#ffeeaa"
       d="m 35.218828,16.57015 c 0.683746,0.02744 1.085896,0.40921 1.640327,0.759231 0.204377,0.129027 0.746506,0.428769 0.907853,0.512602 0.05939,0.03086 0.870228,0.429588 0.883782,0.33174 0.01754,-0.126652 -0.119109,-0.227092 -0.192575,-0.33174 -0.521774,-0.743241 -1.14376,-1.327834 -1.922311,-1.79314 -0.170729,-0.102038 -0.50227,-0.314712 -0.698085,-0.213745"
       id="path55" />
    <path
       style="fill:#ffeeaa"
       d="m 38.203741,11.966403 c -0.433171,0.06014 -0.656304,0.402859 -0.897537,0.727315 -0.175571,0.23614 -0.258757,0.364013 0.07909,0.373329"
       id="path56" />
    <path
       style="fill:#ffeeaa"
       d="m 39.819996,13.285628 c 0.459866,0.349126 0.569277,1.324443 1.031652,1.601639"
       id="path57" />
  </g>
</svg>
